<svg xmlns="http://www.w3.org/2000/svg" xmlns:xlink="http://www.w3.org/1999/xlink" width="640" zoomAndPan="magnify" viewBox="0 0 480 269.999989" height="360" preserveAspectRatio="xMidYMid meet" version="1.0"><path fill="#094e49" d="M 271.308594 1.976562 C 268.507812 3.882812 267.550781 5.792969 267.550781 9.871094 C 267.550781 11.652344 267.234375 13.371094 266.851562 13.5625 C 266.023438 14.132812 266.660156 17.191406 268.253906 20.246094 C 268.890625 21.457031 269.84375 24.195312 270.351562 26.292969 C 271.054688 28.96875 271.945312 30.625 273.28125 31.832031 L 275.191406 33.617188 L 273.917969 34.890625 C 272.707031 36.097656 272.707031 36.289062 273.601562 37.179688 C 274.746094 38.390625 274.808594 38.007812 273.34375 41.320312 C 272.644531 42.910156 271.753906 46.730469 271.371094 49.851562 C 270.988281 52.96875 270.542969 55.644531 270.480469 55.769531 C 270.351562 55.898438 269.90625 54.117188 269.527344 51.886719 C 268.632812 46.601562 268.699219 39.535156 269.714844 33.742188 C 270.164062 31.261719 270.351562 29.160156 270.097656 29.160156 C 269.90625 29.160156 269.207031 29.542969 268.507812 30.050781 C 267.808594 30.496094 263.988281 31.960938 260.101562 33.234375 C 253.035156 35.589844 252.910156 35.652344 252.273438 37.945312 C 251.953125 39.21875 251.636719 40.9375 251.636719 41.703125 C 251.636719 42.464844 251.253906 44.058594 250.746094 45.203125 C 248.898438 49.40625 245.589844 61.5 244.25 68.949219 C 243.804688 71.304688 245.84375 74.617188 249.089844 76.78125 C 250.746094 77.925781 252.019531 78.246094 254.054688 78.054688 C 257.109375 77.800781 257.109375 77.863281 255.710938 82.636719 C 255.136719 84.546875 254.628906 86.777344 254.5 87.667969 C 254.375 88.621094 253.738281 92.441406 252.972656 96.324219 C 250.746094 108.804688 250.746094 108.167969 252.210938 108.546875 C 253.292969 108.804688 253.546875 109.441406 253.609375 111.539062 C 253.671875 112.941406 253.863281 117.144531 254.117188 120.835938 L 254.5 127.519531 L 263.09375 127.839844 C 267.808594 128.03125 271.882812 127.902344 272.074219 127.585938 C 272.328125 127.328125 272.835938 124.910156 273.28125 122.363281 C 273.664062 119.753906 274.109375 117.652344 274.238281 117.652344 C 274.363281 117.652344 275.066406 120.070312 275.890625 123.0625 C 277.101562 127.648438 277.484375 128.476562 278.628906 128.476562 C 280.667969 128.476562 281.429688 129.238281 281.6875 131.339844 C 281.8125 132.742188 282.511719 133.570312 284.421875 134.714844 L 286.96875 136.179688 L 285.058594 136.050781 C 280.859375 135.859375 280.476562 136.117188 282.957031 137.386719 C 284.230469 138.089844 285.503906 138.917969 285.695312 139.296875 C 285.949219 139.679688 284.550781 139.042969 282.703125 137.898438 C 279.964844 136.242188 278.503906 135.859375 274.875 135.667969 L 270.417969 135.414062 L 273.601562 138.40625 C 277.230469 141.78125 275.253906 141.082031 270.480469 137.261719 C 268.761719 135.925781 267.171875 134.96875 266.980469 135.222656 C 266.789062 135.414062 267.105469 135.859375 267.679688 136.179688 C 268.253906 136.496094 269.90625 137.769531 271.371094 138.980469 C 272.835938 140.191406 274.363281 141.273438 274.746094 141.335938 C 275.191406 141.398438 282.257812 141.464844 290.472656 141.464844 C 300.464844 141.527344 307.152344 141.84375 310.589844 142.417969 C 316.957031 143.5625 318.039062 143.183594 324.976562 137.578125 C 327.652344 135.351562 330.261719 133.757812 330.707031 133.949219 C 331.152344 134.140625 332.109375 135.160156 332.808594 136.242188 C 333.828125 137.835938 334.910156 138.472656 338.472656 139.425781 C 340.894531 140.0625 343.375 140.890625 344.011719 141.273438 C 348.914062 143.882812 338.601562 147.765625 319.757812 150.375 C 283.214844 155.46875 232.027344 156.488281 188.035156 152.988281 C 159.257812 150.695312 137.039062 146.238281 137.039062 142.863281 C 137.039062 141.589844 139.203125 140.253906 142.578125 139.296875 C 144.808594 138.726562 145.570312 138.152344 146.589844 136.117188 C 147.289062 134.714844 148.117188 133.570312 148.371094 133.570312 C 148.628906 133.570312 150.792969 135.160156 153.210938 137.070312 C 161.234375 143.4375 160.914062 143.371094 169.574219 142.863281 C 173.773438 142.609375 178.105469 142.289062 179.25 142.035156 C 181.03125 141.652344 181.160156 141.78125 180.523438 142.609375 C 179.824219 143.4375 180.714844 143.628906 188.417969 143.945312 C 193.191406 144.199219 203.125 144.390625 210.574219 144.390625 L 224.003906 144.390625 L 226.234375 141.972656 C 232.601562 135.160156 232.855469 134.078125 226.808594 139.617188 C 223.113281 142.992188 222.859375 143.117188 219.675781 142.992188 C 217.128906 142.925781 216.875 142.863281 218.53125 142.671875 C 220.566406 142.417969 222.351562 141.082031 222.351562 139.808594 C 222.351562 139.554688 215.921875 139.296875 208.089844 139.296875 L 193.765625 139.296875 L 192.554688 140.890625 C 191.472656 142.226562 190.582031 142.546875 186.445312 142.925781 C 183.769531 143.117188 181.605469 143.117188 181.605469 142.925781 C 181.605469 142.226562 185.042969 140.699219 190.199219 138.980469 C 194.148438 137.707031 196.4375 137.386719 201.46875 137.386719 C 207.898438 137.386719 209.363281 136.941406 209.492188 134.84375 C 209.492188 134.332031 209.746094 133.25 209.9375 132.488281 C 210.253906 131.46875 210.128906 130.894531 209.363281 130.640625 C 207.132812 129.8125 208.535156 129.113281 212.484375 129.113281 C 216.238281 129.113281 216.75 129.238281 217.195312 130.511719 C 217.511719 131.339844 217.574219 132.359375 217.382812 132.867188 C 216.875 134.140625 218.53125 134.84375 222.160156 134.84375 C 225.726562 134.84375 227.632812 134.332031 227.125 133.570312 C 226.933594 133.25 227.507812 131.722656 228.398438 130.066406 C 229.542969 128.03125 229.925781 126.691406 229.609375 125.738281 C 229.355469 124.972656 229.226562 123.445312 229.289062 122.425781 C 229.480469 119.882812 226.996094 114.789062 225.152344 113.769531 C 224.324219 113.324219 223.625 112.75 223.625 112.496094 C 223.625 112.242188 222.097656 109.820312 220.25 107.085938 C 218.402344 104.285156 216.492188 101.164062 216.046875 100.019531 C 215.601562 98.871094 214.839844 97.597656 214.328125 97.214844 C 213.820312 96.835938 213.4375 96.007812 213.4375 95.433594 C 213.4375 94.796875 212.417969 92.25 211.144531 89.703125 C 208.855469 85.054688 207.515625 83.910156 204.269531 83.910156 C 202.105469 83.910156 200.257812 82.320312 201.148438 81.238281 C 201.53125 80.792969 202.421875 78.816406 203.125 76.90625 C 204.523438 73.023438 204.652344 64.746094 203.316406 61.375 C 202.679688 59.84375 202.742188 59.464844 203.695312 58.761719 C 205.542969 57.363281 204.140625 54.433594 201.339844 53.859375 C 200.132812 53.605469 197.332031 52.777344 195.164062 52.015625 C 186.953125 49.148438 180.394531 52.652344 178.867188 60.671875 C 177.085938 69.90625 177.023438 70.09375 174.476562 72.832031 C 173.074219 74.359375 172.183594 75.632812 172.566406 75.632812 C 173.011719 75.632812 173.011719 76.269531 172.5 77.542969 C 171.863281 79.136719 171.992188 79.582031 173.203125 80.917969 C 173.964844 81.746094 174.601562 82.574219 174.601562 82.765625 C 174.601562 83.464844 167.152344 87.601562 163.96875 88.621094 C 161.933594 89.320312 160.53125 90.148438 160.277344 90.914062 C 159.894531 92.1875 160.46875 105.621094 160.914062 106.066406 C 161.042969 106.257812 160.914062 106.894531 160.597656 107.53125 C 160.152344 108.292969 160.214844 109.441406 160.851562 111.09375 C 162.507812 115.617188 163.589844 123.636719 162.316406 122.046875 C 162.1875 121.917969 160.851562 120.136719 159.324219 118.097656 C 157.796875 116.0625 156.011719 114.085938 155.3125 113.769531 C 154.675781 113.386719 153.59375 111.859375 152.894531 110.332031 C 152.257812 108.867188 151.238281 107.277344 150.726562 106.828125 C 150.21875 106.382812 149.773438 104.984375 149.773438 103.710938 C 149.773438 102.4375 149.328125 100.78125 148.816406 99.953125 C 148.117188 99.0625 147.925781 97.851562 148.183594 96.515625 C 148.5 94.796875 148.308594 94.222656 147.226562 93.585938 C 146.527344 93.140625 145.636719 92.949219 145.378906 93.078125 C 145.0625 93.269531 143.089844 91.296875 140.925781 88.683594 C 138.757812 86.074219 137.167969 83.910156 137.421875 83.910156 C 137.613281 83.910156 139.460938 85.183594 141.5625 86.777344 C 143.597656 88.367188 145.316406 89.386719 145.316406 89.066406 C 145.316406 88.75 146.015625 87.601562 146.910156 86.585938 C 148.117188 85.183594 149.199219 84.609375 151.621094 84.292969 C 153.339844 84.101562 155.058594 83.527344 155.375 83.082031 C 155.757812 82.636719 156.074219 80.726562 156.074219 78.816406 C 156.203125 72.769531 156.332031 72.132812 157.921875 71.941406 C 159.769531 71.6875 159.703125 70.476562 157.605469 67.996094 C 156.585938 66.722656 155.757812 64.746094 155.4375 62.710938 C 155.121094 60.929688 154.230469 58.125 153.402344 56.472656 C 152.066406 53.925781 151.9375 53.414062 152.765625 52.332031 C 153.71875 50.996094 153.402344 48.449219 152.066406 47.113281 C 150.726562 45.777344 142.324219 45.648438 135.894531 46.921875 C 131.121094 47.875 129.71875 48.449219 127.300781 50.488281 C 124.371094 52.90625 124.117188 53.480469 123.289062 60.164062 C 122.90625 62.964844 123.796875 66.65625 126.21875 72.195312 C 127.9375 76.015625 127.617188 78.816406 125.515625 78.816406 C 124.691406 78.816406 123.988281 79.519531 123.480469 80.664062 C 123.035156 81.683594 120.613281 84.484375 118.070312 86.839844 C 112.59375 91.933594 109.28125 96.644531 106.480469 103.457031 C 103.933594 109.503906 103.105469 112.367188 97.824219 132.550781 C 95.59375 141.335938 93.621094 148.59375 93.492188 148.722656 C 93.367188 148.847656 92.667969 147.320312 91.902344 145.410156 C 87.765625 134.207031 80.316406 123.191406 75.160156 120.453125 C 71.65625 118.609375 65.609375 119.945312 66.628906 122.363281 C 66.753906 122.746094 68.730469 127.074219 71.019531 131.976562 C 79.488281 150.3125 81.90625 159.289062 82.542969 174.632812 C 82.734375 180.425781 83.246094 184.753906 83.945312 186.855469 C 85.980469 193.285156 91.074219 197.359375 99.667969 199.589844 C 102.789062 200.351562 105.273438 200.480469 111.765625 200.160156 C 119.597656 199.714844 119.851562 199.78125 119.851562 201.054688 C 119.851562 201.816406 119.40625 202.324219 118.769531 202.324219 C 114.949219 202.390625 115.394531 205.828125 119.214844 206.464844 L 121.761719 206.910156 L 121.761719 226.265625 L 115.839844 229 C 112.65625 230.53125 105.398438 233.777344 99.796875 236.257812 C 94.195312 238.742188 89.417969 241.097656 89.164062 241.480469 C 88.910156 241.796875 88.65625 244.027344 88.65625 246.382812 C 88.65625 250.582031 88.71875 250.710938 90.246094 250.710938 C 91.773438 250.710938 91.839844 250.519531 91.839844 247.335938 C 91.839844 245.492188 92.222656 243.515625 92.601562 242.945312 C 93.046875 242.433594 95.148438 241.351562 97.25 240.523438 C 99.351562 239.695312 103.871094 237.785156 107.371094 236.257812 C 110.8125 234.730469 114.058594 233.523438 114.566406 233.648438 C 115.140625 233.777344 113.675781 235.175781 111.191406 237.023438 C 96.675781 247.589844 89.992188 252.175781 88.144531 252.9375 L 86.109375 253.832031 L 86.109375 258.921875 C 86.109375 264.015625 86.109375 264.082031 87.699219 264.082031 C 89.230469 264.082031 89.292969 263.953125 89.292969 259.75 L 89.292969 255.421875 L 91.964844 253.894531 C 93.429688 253.066406 100.75 248.101562 108.199219 242.878906 C 115.714844 237.660156 121.953125 233.523438 122.078125 233.648438 C 122.269531 233.777344 122.589844 236.832031 122.78125 240.460938 L 123.226562 246.953125 L 125.199219 246.765625 L 127.171875 246.574219 L 127.363281 240.015625 C 127.425781 236.449219 127.808594 233.523438 128.128906 233.523438 C 128.382812 233.523438 130.039062 234.605469 131.757812 235.878906 C 134.8125 238.234375 135.832031 238.933594 143.40625 244.664062 C 148.308594 248.417969 148.5 248.546875 148.5 251.09375 C 148.5 253.003906 148.5625 253.066406 153.59375 254.148438 L 158.6875 255.359375 L 158.6875 259.625 C 158.6875 264.082031 159.132812 264.78125 161.425781 264.207031 C 162.316406 263.953125 162.507812 263.1875 162.507812 259.878906 C 162.507812 257.714844 162.25 255.167969 161.871094 254.277344 C 161.296875 252.75 161.359375 252.683594 162.761719 253.257812 C 163.589844 253.574219 165.816406 254.59375 167.664062 255.613281 C 170.910156 257.269531 171.546875 257.394531 179.25 257.394531 C 184.597656 257.394531 187.335938 257.648438 187.335938 258.097656 C 187.335938 259.179688 190.007812 261.34375 192.746094 262.425781 C 196.25 263.890625 209.300781 266.4375 217.449219 267.199219 C 245.90625 270 282.386719 267.582031 295.375 262.105469 C 298.300781 260.832031 300.277344 258.476562 299.640625 256.886719 C 298.746094 254.402344 285.3125 249.820312 277.738281 249.375 C 276.847656 249.308594 278.566406 249.054688 281.558594 248.800781 C 285.125 248.484375 288.179688 247.78125 290.472656 246.765625 C 295.882812 244.28125 296.835938 244.089844 296.835938 245.300781 C 296.835938 246.191406 297.285156 246.316406 299.574219 245.9375 C 301.039062 245.746094 303.203125 245.234375 304.351562 244.917969 L 306.386719 244.21875 L 306.386719 239.886719 C 306.386719 237.46875 306.132812 234.792969 305.75 233.902344 C 305.175781 232.3125 305.175781 232.25 307.914062 232.25 C 309.441406 232.25 311.609375 232.058594 312.753906 231.800781 L 314.855469 231.421875 L 314.410156 225.308594 C 314.027344 220.023438 313.707031 219.007812 312.371094 217.542969 C 311.035156 216.140625 310.84375 215.441406 311.160156 213.59375 C 311.480469 212.066406 311.289062 210.730469 310.589844 209.519531 C 309.761719 208.054688 307.660156 198.441406 307.660156 196.152344 C 307.660156 194.941406 311.671875 194.6875 321.347656 195.324219 C 332.808594 196.023438 337.328125 196.914062 338.21875 198.507812 C 339.238281 200.417969 338.984375 200.988281 336.820312 201.5625 C 335.289062 201.945312 334.652344 202.515625 334.527344 203.535156 C 334.207031 205.382812 335.289062 206.144531 338.410156 206.144531 L 340.765625 206.144531 L 340.765625 225.945312 L 334.273438 229 C 330.644531 230.71875 324.402344 233.585938 320.394531 235.367188 C 316.382812 237.152344 312.054688 239.125 310.84375 239.761719 L 308.617188 240.84375 L 308.425781 245.808594 C 308.234375 250.710938 308.296875 250.773438 309.699219 250.582031 C 311.035156 250.394531 311.226562 249.945312 311.480469 246.316406 L 311.796875 242.242188 L 316.890625 240.078125 C 326.761719 235.878906 334.589844 232.820312 334.84375 233.074219 C 334.972656 233.265625 329.878906 237.277344 323.449219 242.050781 C 317.019531 246.765625 311.480469 250.964844 311.097656 251.285156 C 310.714844 251.601562 309.507812 252.300781 308.425781 252.875 C 306.386719 253.894531 306.386719 253.957031 306.386719 258.988281 C 306.386719 264.082031 306.769531 265.035156 308.550781 264.335938 C 309.316406 264.015625 309.570312 263 309.570312 259.941406 L 309.570312 255.929688 L 315.808594 251.410156 C 336.753906 236.195312 340.511719 233.523438 341.273438 233.523438 C 341.847656 233.523438 342.039062 235.304688 342.039062 240.269531 L 342.039062 246.953125 L 344.140625 246.765625 L 346.175781 246.574219 L 346.75 240.015625 C 347.070312 236.449219 347.449219 233.523438 347.707031 233.523438 C 347.894531 233.585938 350.699219 235.429688 353.816406 237.660156 C 357 239.886719 364.195312 244.855469 369.925781 248.800781 L 380.238281 255.867188 L 380.238281 259.941406 C 380.238281 264.144531 380.8125 265.035156 382.910156 264.015625 C 383.867188 263.507812 384.121094 260.261719 383.484375 254.722656 C 383.484375 254.277344 382.019531 253.195312 380.238281 252.300781 C 378.519531 251.410156 374.828125 249.054688 372.152344 247.019531 C 369.414062 244.980469 364.386719 241.226562 360.949219 238.679688 C 357.507812 236.132812 354.835938 233.902344 354.964844 233.710938 C 355.152344 233.585938 360.183594 235.496094 366.167969 238.042969 L 376.992188 242.6875 L 377.183594 246.507812 C 377.371094 250.011719 377.5 250.394531 378.835938 250.582031 C 380.238281 250.773438 380.300781 250.710938 380.109375 245.871094 L 379.917969 240.96875 L 368.460938 235.75 C 362.15625 232.949219 354.898438 229.511719 352.351562 228.238281 L 347.707031 225.816406 L 347.894531 216.523438 L 348.085938 207.164062 L 350.632812 206.402344 C 352.671875 205.828125 353.246094 205.382812 353.371094 204.046875 C 353.5625 202.582031 353.371094 202.324219 351.972656 202.324219 C 350.570312 202.324219 350.441406 202.136719 350.886719 200.863281 C 351.335938 199.78125 351.90625 199.523438 353.246094 199.589844 C 365.914062 200.605469 369.796875 200.542969 374.953125 199.144531 C 386.984375 195.894531 391.699219 189.339844 391.699219 176.03125 C 391.699219 162.535156 395.261719 149.359375 403.601562 132.167969 C 408.824219 121.28125 408.949219 120.453125 405.511719 119.5 C 400.101562 118.035156 393.605469 123.890625 387.496094 135.734375 L 383.546875 143.308594 L 382.464844 139.554688 C 380.875 133.949219 371.453125 109.695312 369.097656 104.917969 C 367.949219 102.628906 366.105469 99.570312 365.085938 98.109375 C 362.921875 95.179688 355.21875 88.75 353.054688 88.113281 C 352.226562 87.859375 351.144531 86.839844 350.507812 85.757812 C 349.933594 84.738281 348.914062 83.910156 348.277344 83.910156 C 346.433594 83.910156 346.175781 82.128906 347.324219 77.609375 C 347.960938 75.316406 348.40625 71.6875 348.40625 69.523438 C 348.40625 64.492188 346.113281 60.738281 341.273438 58.0625 C 338.15625 56.34375 337.390625 56.214844 331.472656 56.214844 C 325.933594 56.214844 324.785156 56.40625 323.578125 57.488281 C 322.621094 58.382812 322.304688 59.273438 322.496094 60.546875 C 322.621094 61.628906 322.046875 63.664062 320.902344 65.894531 C 319.566406 68.503906 319.183594 70.03125 319.503906 71.304688 C 319.757812 72.707031 319.4375 73.660156 318.230469 75.316406 C 316.382812 77.734375 316.128906 79.328125 317.527344 79.835938 C 318.039062 80.089844 318.484375 80.726562 318.484375 81.363281 C 318.484375 82.0625 318.738281 82.699219 319.054688 82.890625 C 319.375 83.082031 319.503906 84.738281 319.375 86.519531 C 319.054688 90.722656 319.757812 91.550781 323.703125 91.550781 C 326.441406 91.550781 327.140625 91.867188 329.433594 94.035156 L 332.042969 96.453125 L 330.644531 98.488281 C 329.816406 99.636719 329.050781 101.738281 328.859375 103.199219 C 328.667969 104.664062 328.03125 106.449219 327.460938 107.148438 C 326.886719 107.847656 325.296875 110.140625 323.894531 112.242188 C 320.964844 116.699219 314.789062 123.128906 312.691406 123.890625 C 311.863281 124.210938 309.761719 124.65625 307.980469 124.910156 C 306.261719 125.164062 303.96875 125.484375 302.949219 125.738281 C 301.167969 126.054688 301.101562 126.121094 302.25 126.949219 C 302.886719 127.457031 303.269531 127.902344 303.011719 127.902344 C 299.449219 128.539062 298.109375 129.304688 296.902344 131.277344 C 296.136719 132.421875 295.5625 133.824219 295.5625 134.394531 C 295.5625 134.90625 295.246094 135.480469 294.800781 135.605469 C 293.78125 135.988281 294.671875 137.261719 297.09375 138.789062 L 299.066406 140.0625 L 297.21875 139.617188 C 296.199219 139.425781 294.609375 138.660156 293.78125 137.960938 C 292.890625 137.324219 291.746094 136.753906 291.171875 136.6875 C 290.597656 136.625 290.851562 136.433594 291.679688 136.179688 C 292.761719 135.859375 293.527344 134.96875 294.101562 133.125 C 294.738281 131.339844 295.691406 130.003906 297.09375 129.113281 L 299.257812 127.839844 L 296.773438 125.101562 C 295.375 123.636719 294.417969 122.046875 294.609375 121.601562 C 294.800781 121.089844 294.925781 118.480469 294.925781 115.742188 L 294.925781 110.777344 L 296.835938 110.394531 C 299.066406 110.011719 299.191406 109.183594 298.109375 100.71875 C 297.730469 97.917969 297.21875 92.886719 296.835938 89.578125 C 296.519531 86.265625 296.074219 83.019531 295.882812 82.320312 C 295.5625 81.238281 295.945312 80.917969 298.554688 80.28125 C 305.050781 78.753906 308.933594 76.90625 309.953125 74.871094 C 311.097656 72.640625 310.972656 70.796875 308.933594 62.265625 C 308.105469 58.953125 307.277344 54.945312 307.023438 53.351562 C 306.769531 51.761719 305.941406 48.195312 305.242188 45.394531 C 304.476562 42.59375 303.839844 39.601562 303.714844 38.710938 C 303.523438 37.308594 302.566406 36.734375 295.753906 33.933594 C 291.488281 32.152344 287.414062 30.179688 286.714844 29.542969 C 285.378906 28.332031 285.378906 28.332031 285.378906 29.605469 C 285.378906 31.515625 282.511719 41.382812 280.09375 47.621094 L 278.058594 53.035156 L 277.675781 46.03125 C 277.230469 38.773438 277.675781 36.734375 279.394531 38.136719 C 280.667969 39.15625 280.476562 38.074219 279.074219 35.78125 L 277.867188 33.742188 L 280.859375 30.878906 C 283.660156 28.203125 283.851562 27.757812 283.851562 24.765625 C 283.851562 22.285156 284.167969 21.203125 285.3125 19.992188 C 286.90625 18.335938 287.988281 13.242188 286.714844 13.242188 C 286.269531 13.242188 286.015625 11.84375 286.015625 9.488281 C 286.015625 5.347656 284.804688 3.121094 281.558594 1.464844 C 278.691406 0 273.855469 0.253906 271.308594 1.976562 Z M 297.09375 66.53125 C 297.410156 67.613281 297.285156 68.375 296.710938 68.695312 C 295.375 69.523438 294.738281 69.332031 295.183594 68.25 C 295.375 67.675781 295.5625 66.722656 295.5625 66.019531 C 295.5625 64.238281 296.648438 64.558594 297.09375 66.53125 Z M 187.78125 91.105469 L 189.882812 93.078125 L 187.972656 93.84375 C 185.550781 94.859375 185.550781 95.496094 187.90625 97.40625 C 189.753906 98.808594 189.816406 99 189.4375 102.945312 L 189.054688 106.957031 L 186.253906 98.488281 C 184.789062 93.777344 183.324219 88.941406 183.132812 87.730469 L 182.816406 85.503906 L 184.214844 87.347656 C 185.042969 88.367188 186.636719 90.085938 187.78125 91.105469 Z M 195.992188 107.910156 C 195.929688 107.976562 195.292969 106.066406 194.59375 103.648438 C 193.382812 99.699219 193.382812 99 194.148438 96.644531 C 195.164062 93.652344 194.527344 92.1875 192.238281 92.1875 L 190.898438 92.1875 L 192.238281 91.230469 C 193 90.722656 193.957031 89.195312 194.464844 87.859375 C 195.230469 85.691406 195.292969 86.328125 195.738281 96.644531 C 195.992188 102.753906 196.121094 107.847656 195.992188 107.910156 Z M 211.464844 116.570312 C 214.457031 120.453125 214.582031 120.835938 212.800781 120.835938 C 212.101562 120.835938 210.445312 121.410156 209.171875 122.109375 C 207.835938 122.808594 206.308594 123.382812 205.671875 123.382812 C 204.714844 123.382812 204.777344 123 206.117188 120.007812 C 207.007812 118.226562 207.707031 116.125 207.707031 115.359375 C 207.707031 114.277344 208.21875 113.195312 208.664062 113.195312 C 208.789062 113.195312 210 114.722656 211.464844 116.570312 Z M 220.695312 118.988281 C 220.058594 119.691406 218.914062 120.582031 218.210938 120.898438 C 217.511719 121.28125 217.957031 120.644531 219.167969 119.5625 C 221.714844 117.335938 222.476562 117.078125 220.695312 118.988281 Z M 193.894531 125.929688 C 193.066406 128.03125 192.554688 128.476562 191.089844 128.476562 L 189.308594 128.476562 L 190.898438 130.195312 C 192.171875 131.53125 192.429688 132.488281 192.300781 134.460938 C 192.046875 138.023438 191.027344 137.515625 190.136719 133.441406 C 189.5625 131.085938 188.800781 129.683594 187.527344 128.667969 C 186.570312 127.839844 186.125 127.203125 186.570312 127.203125 C 187.015625 127.203125 187.71875 126.3125 188.035156 125.292969 C 188.671875 123.511719 188.992188 123.382812 191.792969 123.382812 L 194.847656 123.382812 Z M 279.328125 137.386719 C 279.519531 137.769531 279.265625 137.835938 278.757812 137.644531 C 277.609375 137.199219 277.421875 136.753906 278.3125 136.753906 C 278.691406 136.753906 279.140625 137.007812 279.328125 137.386719 Z M 281.875 139.808594 C 281.6875 140 281.175781 139.808594 280.730469 139.363281 C 280.15625 138.726562 280.222656 138.660156 281.113281 139.042969 C 281.75 139.234375 282.066406 139.617188 281.875 139.808594 Z M 157.285156 154.894531 C 159.832031 155.40625 161.996094 155.851562 162.058594 155.851562 C 162.125 155.851562 162.125 157.507812 161.996094 159.542969 L 161.742188 163.234375 L 156.394531 162.535156 C 150.15625 161.707031 147.800781 160.179688 149.074219 157.886719 C 149.453125 157.1875 149.773438 155.851562 149.773438 154.894531 C 149.773438 153.558594 150.027344 153.304688 151.238281 153.621094 C 152 153.8125 154.738281 154.386719 157.285156 154.894531 Z M 302.25 158.714844 C 299.191406 159.734375 297.472656 159.863281 297.472656 159.097656 C 297.472656 158.398438 299.449219 157.953125 302.566406 157.886719 L 304.796875 157.886719 Z M 283.023438 168.710938 C 283.976562 177.113281 283.914062 177.5625 282.703125 181.445312 C 278.375 195.386719 272.136719 216.652344 272.328125 216.96875 C 272.453125 217.222656 276.148438 218.496094 280.539062 219.898438 C 289.898438 222.824219 290.214844 223.273438 285.695312 227.601562 C 280.222656 232.820312 276.464844 234.859375 270.925781 235.496094 C 266.085938 236.132812 263.730469 237.277344 263.730469 238.996094 C 263.730469 240.332031 266.34375 241.734375 269.589844 242.179688 C 273.28125 242.6875 273.980469 243.453125 271.308594 244.027344 C 269.078125 244.535156 268.316406 245.808594 269.460938 247.210938 C 270.480469 248.417969 270.671875 248.417969 260.167969 246.574219 C 255.328125 245.679688 251.125 244.980469 250.871094 244.980469 C 250.554688 244.980469 250.363281 237.152344 250.363281 227.539062 L 250.363281 210.09375 L 254.054688 209.648438 C 258.257812 209.136719 261.632812 207.738281 262.648438 206.082031 C 263.222656 205.191406 263.921875 205 265.640625 205.253906 C 266.851562 205.445312 268.632812 205.316406 269.652344 204.9375 C 271.371094 204.300781 271.371094 204.234375 271.371094 198.507812 C 271.371094 194.433594 271.054688 192.140625 270.351562 190.738281 C 269.652344 189.339844 269.527344 188.636719 270.035156 188.128906 C 271.054688 187.109375 270.925781 182.460938 269.78125 178.070312 C 269.078125 175.460938 268.824219 172.023438 268.953125 167.121094 L 269.144531 159.988281 L 275.191406 159.671875 C 278.503906 159.480469 281.429688 159.480469 281.621094 159.671875 C 281.875 159.863281 282.511719 163.9375 283.023438 168.710938 Z M 236.355469 202.582031 L 236.355469 244.855469 L 234.636719 245.234375 C 233.617188 245.425781 225.789062 246.765625 217.066406 248.164062 C 208.40625 249.628906 199.496094 251.285156 197.265625 251.921875 C 193.320312 253.003906 193.128906 253.003906 191.984375 251.921875 C 191.28125 251.21875 189.054688 250.582031 186.125 250.136719 C 180.394531 249.375 177.210938 247.402344 173.964844 242.5625 C 172.757812 240.78125 171.355469 239.316406 170.910156 239.25 C 170.210938 239.25 168.234375 235.6875 168.234375 234.476562 C 168.234375 234.285156 170.910156 234.347656 174.21875 234.539062 C 181.03125 235.050781 180.332031 235.621094 181.667969 228.429688 C 182.6875 222.824219 183.195312 221.933594 184.152344 224.097656 C 185.234375 226.390625 188.289062 228.492188 191.21875 228.875 C 192.554688 229.066406 193.703125 229.066406 193.703125 228.9375 C 193.703125 228.746094 193.257812 227.347656 192.746094 225.882812 C 192.238281 224.417969 191.792969 222.445312 191.855469 221.488281 C 191.855469 220.214844 192.171875 220.597656 193.128906 223.207031 C 194.71875 227.28125 196.503906 228.363281 202.679688 228.875 C 209.679688 229.445312 210.699219 227.21875 205.097656 223.527344 C 202.167969 221.550781 200.769531 219.195312 198.792969 212.640625 L 197.457031 207.929688 L 199.050781 205.445312 C 200.578125 203.152344 200.832031 203.027344 202.296875 203.726562 C 203.1875 204.109375 204.015625 204.300781 204.078125 204.171875 C 204.207031 204.046875 205.671875 201.816406 207.390625 199.207031 C 209.042969 196.660156 213.183594 191.183594 216.558594 187.109375 C 223.625 178.578125 226.871094 174.1875 228.335938 171.320312 C 229.609375 168.773438 229.671875 164.128906 228.398438 162.472656 C 227.890625 161.835938 227.445312 161.070312 227.445312 160.753906 C 227.445312 160.5 229.480469 160.308594 231.898438 160.308594 L 236.355469 160.308594 Z M 254.308594 164.445312 C 254.566406 166.546875 255.074219 171.386719 255.457031 175.269531 C 255.839844 179.089844 256.601562 183.863281 257.175781 185.773438 C 258.449219 190.292969 258.703125 193.859375 257.9375 196.339844 C 257.300781 198.507812 252.527344 203.597656 251.191406 203.597656 C 250.488281 203.597656 250.363281 199.714844 250.363281 182.398438 C 250.363281 170.683594 250.554688 160.945312 250.808594 160.691406 C 251.0625 160.433594 251.828125 160.308594 252.589844 160.433594 C 253.671875 160.625 253.929688 161.261719 254.308594 164.445312 Z M 203.125 170.875 C 205.160156 171.449219 206.816406 172.023438 206.945312 172.085938 C 207.582031 172.660156 196.566406 190.867188 195.613281 190.867188 C 194.65625 190.867188 195.355469 186.027344 197.265625 180.042969 C 198.09375 177.433594 198.792969 174.058594 198.792969 172.53125 C 198.792969 171.066406 198.984375 169.855469 199.175781 169.855469 C 199.367188 169.855469 201.148438 170.304688 203.125 170.875 Z M 164.160156 197.679688 C 163.90625 199.398438 163.460938 203.089844 163.144531 205.890625 C 162.695312 209.457031 161.804688 212.574219 160.339844 215.757812 C 159.195312 218.371094 157.730469 221.742188 157.160156 223.335938 C 156.585938 224.925781 155.121094 227.792969 153.910156 229.703125 C 152.703125 231.613281 151.683594 233.457031 151.683594 233.839844 C 151.683594 234.160156 151.429688 234.859375 151.175781 235.304688 C 150.539062 236.257812 149.265625 235.75 136.914062 229.765625 L 128.765625 225.816406 L 128.765625 206.910156 L 131.691406 206.402344 C 133.347656 206.082031 134.941406 205.382812 135.320312 204.808594 C 136.339844 203.152344 135.386719 201.691406 133.21875 201.691406 C 131.121094 201.691406 130.675781 200.289062 132.136719 198.316406 C 133.285156 196.660156 146.015625 195.003906 159.578125 194.75 L 164.605469 194.6875 Z M 142.832031 236.449219 C 148.5 238.871094 149.773438 239.632812 149.390625 240.460938 C 149.199219 241.035156 148.816406 241.988281 148.691406 242.5625 C 148.5 243.199219 148.117188 243.707031 147.863281 243.707031 C 146.71875 243.707031 134.238281 233.585938 135.320312 233.523438 C 135.574219 233.523438 138.949219 234.859375 142.832031 236.449219 Z M 142.832031 236.449219 " fill-opacity="1" fill-rule="nonzero"/></svg>