<svg xmlns="http://www.w3.org/2000/svg" xmlns:xlink="http://www.w3.org/1999/xlink" width="640" zoomAndPan="magnify" viewBox="0 0 480 269.999989" height="360" preserveAspectRatio="xMidYMid meet" version="1.0"><defs><clipPath id="2b49f3de9c"><path d="M 2.636719 0 L 477.386719 0 L 477.386719 270 L 2.636719 270 Z M 2.636719 0 " clip-rule="nonzero"/></clipPath></defs><g clip-path="url(#2b49f3de9c)"><path fill="#094e49" d="M 223.566406 29.191406 C 223.375 36.542969 224.121094 43.660156 224.980469 50.953125 C 225.117188 52.128906 225.25 53.308594 225.390625 54.519531 C 225.722656 57.398438 226.058594 60.28125 226.398438 63.160156 C 228.285156 60.324219 228.589844 59.308594 228.914062 56.058594 C 228.996094 55.234375 229.082031 54.40625 229.167969 53.558594 C 229.246094 52.699219 229.324219 51.832031 229.40625 50.953125 C 229.496094 50.097656 229.582031 49.242188 229.675781 48.359375 C 230.039062 45.371094 230.015625 42.410156 229.597656 39.472656 C 229.476562 38.882812 229.351562 38.292969 229.226562 37.683594 C 229.851562 36.75 230.472656 35.816406 231.113281 34.855469 C 230.21875 34.269531 229.324219 33.6875 228.402344 33.085938 C 226.4375 31.75 224.824219 30.449219 223.566406 29.191406 Z M 234.890625 0.886719 C 237.742188 2.527344 240 4.503906 241.492188 7.492188 C 241.972656 14.617188 242.269531 20.996094 238.664062 27.304688 C 239.175781 27.464844 239.691406 27.625 240.222656 27.792969 C 242.546875 28.539062 244.851562 29.332031 247.15625 30.136719 C 247.933594 30.398438 248.710938 30.660156 249.511719 30.933594 C 250.25 31.214844 250.992188 31.496094 251.753906 31.789062 C 252.433594 32.035156 253.121094 32.285156 253.8125 32.539062 C 256.582031 34.609375 257.375 37.355469 258.480469 40.515625 C 258.753906 41.296875 259.03125 42.074219 259.316406 42.875 C 260.230469 45.519531 261.097656 48.175781 261.957031 50.835938 C 262.261719 51.734375 262.5625 52.628906 262.875 53.554688 C 264.574219 58.816406 265.71875 63.285156 265.085938 68.824219 C 264.152344 69.445312 263.214844 70.070312 262.253906 70.710938 C 259.738281 67.09375 258.480469 64.578125 258.480469 63.160156 C 257.796875 62.890625 257.117188 62.617188 256.414062 62.335938 C 254.644531 61.628906 253.054688 60.902344 251.636719 60.15625 C 246.183594 58.542969 240.933594 60.027344 235.832031 62.21875 C 235.96875 59.367188 236.105469 56.519531 236.246094 53.667969 C 236.285156 52.867188 236.320312 52.070312 236.359375 51.246094 C 236.589844 46.671875 237.046875 42.222656 237.722656 37.6875 C 237.777344 36.292969 237.804688 34.894531 237.777344 33.5 C 237.757812 32.390625 237.742188 31.28125 237.722656 30.136719 C 235.851562 32.316406 233.984375 34.496094 232.058594 36.742188 L 233.945312 36.742188 C 233.773438 37.535156 233.597656 38.324219 233.417969 39.140625 C 232.953125 42.785156 233.316406 45.738281 233.886719 49.363281 C 235.089844 57.621094 235.109375 63.457031 233.945312 66.878906 C 231.074219 69.835938 228.558594 69.570312 224.507812 69.765625 C 226.378906 70.703125 228.246094 71.636719 230.171875 72.597656 C 230.195312 73.992188 230.214844 75.390625 230.230469 76.785156 C 230.242188 77.5625 230.25 78.339844 230.261719 79.140625 C 230.199219 80.441406 229.855469 81.40625 229.226562 82.035156 C 227.164062 82.101562 225.097656 82.113281 223.035156 82.09375 C 221.90625 82.085938 220.773438 82.074219 219.609375 82.066406 C 218.734375 82.054688 217.851562 82.046875 216.960938 82.035156 C 216.648438 81.410156 216.335938 80.78125 216.015625 80.148438 C 216.328125 79.210938 216.640625 78.269531 216.960938 77.316406 C 216.027344 77.003906 215.082031 76.691406 214.128906 76.371094 C 214.503906 73.648438 214.875 72.765625 217.019531 70.945312 C 217.621094 70.558594 218.226562 70.167969 218.847656 69.765625 C 217.289062 70.078125 215.71875 70.394531 214.128906 70.710938 C 213.507812 72.578125 212.882812 74.449219 212.242188 76.371094 C 208.703125 75.800781 205.835938 74.789062 202.628906 73.1875 C 201.816406 72.792969 201.007812 72.394531 200.171875 71.988281 C 198.78125 71.136719 197.460938 69.765625 196.203125 67.878906 C 196.707031 57.199219 199.609375 39.566406 207.59375 32.074219 C 212.023438 29.398438 216.660156 28.371094 221.679688 27.304688 L 222.621094 25.417969 C 222.171875 24.746094 221.722656 24.078125 221.261719 23.386719 C 219.34375 19.882812 219.570312 17.582031 219.851562 13.625 C 219.917969 12.410156 219.988281 11.191406 220.0625 9.9375 C 220.808594 6.179688 221.796875 4.5 224.507812 1.828125 C 228.027344 0.65625 231.242188 0.253906 234.890625 0.886719 Z M 152.679688 35.265625 C 150.699219 37.972656 150.691406 38.40625 151.027344 41.578125 C 151.277344 43.113281 151.554688 44.648438 151.855469 46.175781 C 152.019531 47.050781 152.183594 47.925781 152.351562 48.828125 C 152.792969 51.09375 153.253906 53.355469 153.742188 55.613281 L 154.683594 55.613281 C 155.644531 50.878906 155.742188 46.378906 155.6875 41.578125 C 155.683594 40.835938 155.679688 40.097656 155.671875 39.335938 C 155.664062 37.527344 155.644531 35.71875 155.628906 33.910156 C 154.816406 33.851562 153.832031 34.304688 152.679688 35.265625 Z M 139.585938 28.25 C 142.003906 38.027344 144.507812 47.777344 147.136719 57.5 L 148.078125 57.5 C 148.261719 55.339844 148.4375 53.175781 148.609375 51.011719 C 148.707031 49.808594 148.808594 48.605469 148.910156 47.363281 C 149.144531 45.386719 148.871094 43.734375 148.078125 42.402344 C 148.667969 41.066406 149.296875 39.808594 149.964844 38.628906 C 149.523438 38.273438 149.078125 37.921875 148.621094 37.554688 C 145.160156 34.710938 142.65625 32.265625 140.53125 28.25 Z M 153.742188 2.773438 C 156.84375 4.023438 159.742188 5.335938 161.289062 8.433594 C 161.382812 10.863281 161.421875 13.257812 161.40625 15.6875 C 161.410156 16.34375 161.414062 17.007812 161.417969 17.675781 C 161.410156 21.921875 161.039062 25.945312 160.347656 30.136719 C 160.996094 30.332031 161.644531 30.527344 162.3125 30.730469 C 166.964844 32.320312 170.0625 34.363281 171.609375 36.859375 C 171.984375 38.066406 172.316406 39.285156 172.613281 40.515625 C 174.929688 48.988281 178.425781 56.40625 182.65625 64.097656 C 184.632812 68.484375 184.585938 72.535156 184.878906 77.316406 L 194.3125 81.089844 L 194.3125 82.03125 C 190.464844 82.878906 186.613281 83.699219 182.753906 84.511719 C 181.660156 84.75 180.566406 84.992188 179.441406 85.238281 C 178.390625 85.457031 177.335938 85.675781 176.253906 85.902344 C 175.285156 86.109375 174.316406 86.316406 173.320312 86.53125 C 170.4375 86.777344 169.386719 86.296875 166.949219 84.863281 C 165.179688 84.78125 163.351562 84.800781 161.464844 84.921875 C 156.480469 85.027344 153.375 84.40625 149.023438 82.03125 C 150.035156 79.28125 150.699219 77.523438 152.796875 75.429688 C 155.980469 75.316406 159.105469 75.386719 162.289062 75.5 C 166.234375 75.589844 168.03125 75.359375 171.667969 73.539062 C 170.113281 70.738281 168.554688 67.9375 166.949219 65.046875 L 166.007812 72.597656 C 160.675781 73.703125 155.367188 74.722656 149.964844 75.429688 C 149.675781 76.167969 149.382812 76.90625 149.082031 77.667969 C 148.414062 79.320312 147.765625 80.773438 147.136719 82.03125 C 144.957031 81.722656 142.777344 81.410156 140.53125 81.089844 L 140.53125 58.445312 C 133.144531 55.488281 127.621094 53.9375 119.769531 55.613281 C 117.945312 56.507812 116.371094 57.453125 115.054688 58.445312 L 113.167969 58.445312 L 111.277344 62.21875 L 110.335938 62.21875 C 110.285156 60.683594 110.246094 59.152344 110.21875 57.617188 C 110.195312 56.765625 110.171875 55.902344 110.152344 55.03125 C 110.273438 53.53125 110.964844 52.152344 112.222656 50.894531 C 114.414062 50.515625 116.617188 50.195312 118.828125 49.953125 C 118.839844 49.257812 118.855469 48.554688 118.867188 47.847656 C 118.914062 46.925781 118.957031 46.003906 119.003906 45.058594 C 119.039062 44.148438 119.070312 43.238281 119.105469 42.304688 C 120.011719 38.589844 121.546875 37.261719 124.488281 34.855469 C 126.730469 33.585938 128.886719 32.449219 131.210938 31.375 C 134.441406 29.839844 137.546875 28.351562 140.53125 26.363281 C 140.394531 25.679688 140.257812 25 140.117188 24.296875 L 139.585938 21.644531 C 139.390625 20.941406 139.195312 20.242188 138.996094 19.519531 C 138.476562 15.707031 138.578125 12.164062 139.585938 8.433594 C 143.734375 3.328125 147.21875 1.890625 153.742188 2.773438 Z M 286.84375 55.613281 C 285.546875 56.242188 284.269531 56.554688 283.011719 56.554688 C 283.324219 57.492188 283.632812 58.425781 283.957031 59.386719 C 285.183594 59.265625 286.441406 58.949219 287.730469 58.445312 C 288.539062 57.195312 289.167969 55.9375 289.617188 54.667969 C 288.851562 54.621094 287.929688 54.9375 286.84375 55.613281 Z M 316.035156 36.742188 C 315.980469 39.691406 315.949219 42.636719 315.917969 45.585938 C 315.902344 46.425781 315.886719 47.265625 315.871094 48.128906 C 315.863281 48.933594 315.859375 49.734375 315.851562 50.5625 C 315.84375 51.304688 315.832031 52.046875 315.820312 52.808594 C 315.851562 54.195312 316.550781 55.445312 317.921875 56.554688 C 318.238281 54.726562 318.554688 52.898438 318.867188 51.070312 C 319.042969 50.054688 319.214844 49.035156 319.398438 47.984375 C 319.71875 46.148438 319.855469 44.285156 319.808594 42.402344 L 319.808594 39.570312 C 318.589844 38.5 317.332031 37.554688 316.035156 36.742188 Z M 329.246094 32.023438 C 328.683594 32.917969 328.117188 33.8125 327.539062 34.734375 C 325.609375 37.488281 324.765625 38.476562 321.699219 39.570312 C 321.835938 40.3125 321.972656 41.050781 322.113281 41.8125 C 322.773438 46.085938 323.1875 50.367188 323.585938 54.667969 C 325.757812 51.410156 326.800781 48.109375 327.949219 44.40625 C 328.164062 43.738281 328.382812 43.074219 328.605469 42.382812 C 329.71875 38.828125 330.472656 35.792969 330.191406 32.023438 Z M 327.359375 6.546875 C 330.28125 8.496094 331.714844 9.859375 332.601562 13.300781 C 333.125 17.128906 333.316406 20.761719 332.078125 24.476562 C 331.453125 25.097656 330.832031 25.71875 330.191406 26.363281 C 329.976562 27.90625 330.292969 29.480469 331.132812 31.078125 C 333.613281 32.90625 336.324219 34.179688 339.097656 35.503906 C 340.570312 36.230469 342.042969 36.960938 343.515625 37.695312 C 344.171875 38.011719 344.828125 38.328125 345.503906 38.652344 C 346.617188 39.265625 347.804688 40.199219 349.0625 41.460938 C 349.324219 42.820312 349.519531 44.273438 349.652344 45.824219 C 349.722656 46.59375 349.792969 47.375 349.867188 48.160156 C 349.914062 48.75 349.960938 49.34375 350.007812 49.953125 C 350.921875 50.085938 351.835938 50.222656 352.777344 50.363281 C 354.707031 50.71875 355.984375 51.210938 356.613281 51.839844 C 356.707031 54.679688 356.742188 57.492188 356.730469 60.332031 C 356.734375 61.109375 356.738281 61.890625 356.742188 62.695312 C 356.734375 67.949219 356.332031 73.042969 355.667969 78.257812 C 354.902344 78.226562 354.128906 78.191406 353.351562 78.160156 C 346.875 78 341.398438 78.464844 335.230469 80.46875 C 333.757812 80.882812 331.765625 81.089844 329.246094 81.089844 C 328.3125 79.222656 327.378906 77.351562 326.417969 75.429688 L 325.472656 75.429688 C 326.097656 76.984375 326.71875 78.542969 327.359375 80.144531 C 321.957031 83.160156 317.625 83.152344 311.492188 82.800781 C 309.449219 82.773438 307.566406 83.320312 305.839844 84.4375 C 302.320312 86.039062 300.675781 85.910156 296.910156 85.257812 C 295.820312 85.078125 294.730469 84.898438 293.609375 84.714844 C 292.488281 84.511719 291.363281 84.308594 290.207031 84.097656 C 289.0625 83.90625 287.90625 83.710938 286.738281 83.511719 C 283.921875 83.035156 281.109375 82.542969 278.296875 82.035156 C 280.457031 77.710938 287.1875 76.0625 291.503906 74.484375 C 294.753906 73.972656 297.683594 74.117188 300.941406 74.484375 C 302.789062 74.664062 304.636719 74.839844 306.484375 75.015625 C 307.320312 75.113281 308.160156 75.214844 309.015625 75.3125 C 311.28125 75.425781 312.945312 75.160156 315.09375 74.484375 L 315.09375 72.597656 L 304.714844 72.597656 C 303.320312 69.808594 303.714844 67.179688 303.773438 64.105469 L 301.886719 64.105469 C 300.976562 65.152344 300.121094 66.242188 299.289062 67.347656 C 297.285156 69.742188 296.347656 70.660156 293.394531 71.890625 C 289.492188 71.5625 287.4375 69.726562 284.902344 66.9375 C 282.1875 63.410156 281.675781 60.980469 282.070312 56.554688 C 282.382812 55.933594 282.691406 55.3125 283.011719 54.667969 C 282.488281 54.609375 281.957031 54.550781 281.421875 54.492188 C 278.320312 53.402344 276.734375 51.390625 274.519531 49.007812 C 273.957031 48.480469 273.394531 47.957031 272.8125 47.414062 C 272.0625 46.589844 271.691406 45.546875 271.691406 44.289062 C 277.082031 44.199219 280.855469 44.515625 283.011719 45.234375 C 282.703125 43.054688 282.390625 40.875 282.070312 38.628906 C 283.003906 38.316406 283.949219 38.003906 284.902344 37.683594 C 287.542969 43.265625 290.035156 48.660156 291.503906 54.667969 C 294.878906 51.054688 296.476562 47.339844 298.175781 42.78125 C 298.464844 42.035156 298.757812 41.285156 299.054688 40.515625 C 299.292969 39.839844 299.53125 39.164062 299.777344 38.46875 C 301.480469 35.945312 303.394531 35.546875 306.25 34.617188 C 307.195312 34.300781 308.140625 33.984375 309.117188 33.660156 C 309.84375 33.429688 310.578125 33.199219 311.320312 32.96875 C 311.171875 32.03125 311.027344 31.097656 310.875 30.136719 C 309.503906 21.058594 309.339844 14.769531 310.378906 11.265625 C 315.144531 5.597656 320.511719 4.839844 327.363281 6.546875 Z M 398.128906 45.234375 C 397.808594 47.789062 397.496094 50.34375 397.183594 52.898438 C 397.09375 53.617188 397.003906 54.335938 396.910156 55.074219 C 396.433594 59.054688 396.136719 62.917969 396.242188 66.9375 C 399.867188 61.5 400.238281 56.28125 400.015625 49.953125 L 401.902344 49.953125 C 401.28125 48.394531 400.65625 46.835938 400.015625 45.234375 Z M 412.695312 15.394531 C 416.339844 19.128906 416.253906 22.171875 416.214844 27.113281 C 416.019531 29.648438 415.148438 31.582031 414.167969 33.910156 C 414.285156 34.960938 414.402344 36.011719 414.523438 37.09375 C 414.109375 41.097656 413.503906 41.523438 410.570312 44.054688 C 409.257812 45.078125 407.9375 46.101562 406.617188 47.121094 C 405.503906 48.03125 404.558594 48.976562 403.789062 49.953125 C 403.996094 51.5625 404.308594 53.132812 404.730469 54.667969 L 403.789062 56.554688 L 403.789062 63.160156 C 407.523438 55.6875 411.261719 48.214844 415.109375 40.515625 C 417.914062 42.074219 420.714844 43.628906 423.601562 45.234375 C 423.144531 48.5 422.679688 51.734375 422.011719 54.964844 C 421.914062 55.800781 421.816406 56.636719 421.714844 57.5 L 423.601562 59.386719 C 423.863281 60.75 424.058594 62.203125 424.191406 63.75 C 424.261719 64.523438 424.335938 65.292969 424.40625 66.089844 C 424.453125 66.679688 424.5 67.269531 424.546875 67.878906 C 425.421875 67.800781 426.296875 67.722656 427.199219 67.644531 C 429.207031 67.800781 430.777344 68.332031 431.917969 69.234375 C 433.554688 72.765625 433.742188 76.296875 433.984375 80.144531 C 433.046875 80.457031 432.113281 80.769531 431.152344 81.089844 C 430.570312 82.429688 430.101562 83.902344 429.738281 85.511719 C 427.34375 94.003906 424.566406 97.375 417 101.847656 C 416.230469 101.378906 415.460938 100.910156 414.671875 100.429688 C 406.019531 95.261719 397.132812 91.332031 387.746094 87.695312 C 388.34375 82.484375 389.011719 78.730469 389.753906 76.429688 C 390.984375 71.675781 390.980469 66.808594 388.757812 62.34375 C 387.613281 60.601562 386.394531 58.976562 384.917969 57.5 C 385.0625 52.992188 386.046875 49.746094 387.863281 47.769531 C 390.910156 45.980469 393.894531 44.636719 397.183594 43.34375 L 393.410156 42.402344 C 391.082031 36.148438 391.28125 30.140625 391.519531 23.53125 C 391.527344 22.828125 391.535156 22.125 391.539062 21.402344 C 391.605469 20.265625 391.914062 18.773438 392.464844 16.925781 C 398.503906 11.824219 406.132812 10.144531 412.695312 15.390625 Z M 81.96875 17.574219 C 83.894531 19.027344 85.070312 20.621094 85.496094 22.347656 C 86.296875 30.363281 86.8125 37.960938 82.972656 45.234375 C 81.59375 46.175781 80.335938 46.804688 79.199219 47.121094 C 79.761719 47.277344 80.324219 47.433594 80.90625 47.59375 C 85.054688 50.433594 85.75 56.105469 86.6875 60.800781 C 87.945312 66.636719 89.582031 71.671875 94.707031 75.132812 C 99.941406 78.054688 105.648438 80.015625 111.277344 82.03125 C 110.972656 85.476562 110.136719 87.898438 108.773438 89.304688 C 106.058594 90.800781 103.324219 91.953125 100.425781 93.0625 C 99.367188 93.472656 98.304688 93.886719 97.214844 94.308594 C 95.265625 94.929688 93.035156 95.242188 90.519531 95.242188 C 91.070312 91.625 91.699219 89.109375 92.40625 87.695312 C 89.605469 86.449219 86.800781 85.203125 83.914062 83.917969 L 83.914062 86.75 C 86.09375 87.0625 88.273438 87.371094 90.519531 87.695312 C 90.230469 89.246094 89.933594 90.800781 89.632812 92.351562 C 89.46875 93.21875 89.304688 94.082031 89.136719 94.972656 C 88.800781 96.410156 88.316406 97.445312 87.6875 98.074219 C 86.273438 98.199219 84.847656 98.265625 83.425781 98.304688 C 82.558594 98.335938 81.6875 98.367188 80.792969 98.398438 C 78.957031 98.457031 77.121094 98.511719 75.285156 98.5625 C 70.746094 98.730469 67.367188 99.121094 63.15625 100.902344 C 57.648438 98.488281 54.082031 95.71875 51.8125 89.96875 C 51.175781 88.183594 50.558594 86.394531 49.972656 84.597656 C 49.371094 82.84375 48.535156 81.152344 47.460938 79.535156 C 46.601562 78.054688 46.230469 76.332031 46.347656 74.367188 C 46.859375 72.558594 47.742188 70.710938 49.003906 68.820312 C 51.183594 68.132812 53.386719 67.5 55.605469 66.933594 C 56.476562 66.195312 56.910156 64.800781 56.90625 62.746094 C 57.097656 61.636719 57.292969 60.527344 57.496094 59.386719 L 60.324219 57.5 C 60.121094 56.941406 59.917969 56.382812 59.707031 55.808594 C 57.964844 50.871094 57.230469 47.03125 57.496094 44.289062 L 61.269531 42.402344 C 62.945312 45.25 64.613281 48.101562 66.28125 50.953125 C 66.753906 51.753906 67.226562 52.558594 67.710938 53.375 C 70.292969 57.804688 72.582031 62.167969 74.480469 66.933594 C 74.371094 65.597656 74.25 64.261719 74.125 62.921875 C 74.058594 62.179688 73.992188 61.433594 73.925781 60.667969 C 73.519531 58.359375 72.792969 56.695312 71.648438 54.667969 C 72.269531 53.734375 72.894531 52.800781 73.535156 51.835938 C 74.46875 52.148438 75.414062 52.460938 76.367188 52.78125 C 77.339844 55.242188 77.714844 57.726562 78.253906 60.328125 L 77.308594 49.007812 C 75.753906 49.628906 74.195312 50.25 72.589844 50.894531 C 68.09375 48.875 63.792969 44.6875 61.269531 40.515625 C 61.578125 39.253906 61.894531 37.996094 62.210938 36.738281 C 61.722656 34.898438 61.230469 33.058594 60.734375 31.222656 C 60.019531 27.671875 60.398438 25.183594 61.269531 21.640625 C 66.933594 14.402344 73.949219 13.636719 81.96875 17.574219 Z M 42.222656 33.734375 C 43.355469 33.71875 44.492188 33.707031 45.660156 33.691406 C 49.054688 33.914062 51.589844 34.339844 54.664062 35.796875 C 55.199219 36.925781 55.511719 38.183594 55.609375 39.570312 C 55.6875 40.367188 55.761719 41.167969 55.839844 41.976562 C 55.902344 42.835938 55.960938 43.699219 56.019531 44.585938 C 56.277344 47.796875 56.65625 50.667969 57.671875 53.726562 C 57.925781 54.660156 58.179688 55.59375 58.4375 56.554688 L 56.550781 59.386719 C 56.335938 60.496094 56.125 61.605469 55.902344 62.75 C 55.492188 63.820312 55.082031 64.898438 54.664062 65.992188 C 52.5 66.738281 50.300781 67.367188 48.058594 67.878906 C 46.835938 69.121094 45.894531 70.378906 45.230469 71.652344 C 36.265625 68.273438 30.890625 64.734375 29.105469 61.039062 C 28.667969 58.910156 28.441406 56.832031 28.246094 54.667969 C 27.875 53.714844 27.5 52.753906 27.125 51.78125 C 26.113281 48.128906 26.105469 45.03125 27.300781 41.460938 C 31.363281 35.132812 34.726562 33.773438 42.21875 33.734375 Z M 436.460938 33.496094 C 437.300781 33.453125 438.140625 33.410156 439.007812 33.367188 C 444.570312 33.273438 447.546875 34.15625 451.597656 38.019531 C 453.933594 40.90625 454.835938 43.488281 454.742188 47.121094 C 453.777344 51.324219 452.402344 55.324219 450.96875 59.386719 C 450.871094 60.058594 450.773438 60.734375 450.675781 61.429688 C 449.628906 64.203125 447.550781 65.074219 445.070312 66.582031 C 444.171875 67.136719 443.269531 67.695312 442.34375 68.269531 C 439.910156 69.617188 437.53125 70.691406 434.925781 71.652344 C 434.769531 71.089844 434.617188 70.523438 434.457031 69.941406 C 432.214844 66.675781 429.207031 66.246094 425.492188 65.046875 C 425.179688 62.246094 424.867188 59.441406 424.546875 56.554688 L 422.660156 56.554688 C 422.855469 55.960938 423.050781 55.363281 423.246094 54.757812 C 425.144531 48.726562 426.433594 43.160156 426.433594 36.800781 C 426.433594 32.027344 432.886719 33.570312 436.460938 33.496094 Z M 382.324219 57.617188 C 385.734375 59.988281 387.464844 61.921875 388.691406 65.992188 C 389.800781 73.699219 387.449219 80.480469 384.917969 87.695312 C 384.257812 87.785156 383.589844 87.878906 382.914062 87.976562 C 378.316406 88.699219 374.53125 89.378906 370.527344 91.824219 C 368.410156 92.984375 367.492188 93.445312 365.089844 93.023438 C 362.914062 92.007812 361.34375 90.859375 360.386719 89.582031 C 359.152344 83.386719 359.300781 77.125 359.324219 70.828125 C 359.320312 69.84375 359.316406 68.859375 359.3125 67.84375 C 359.3125 66.902344 359.316406 65.964844 359.316406 64.996094 C 359.316406 64.144531 359.316406 63.292969 359.320312 62.417969 C 359.398438 61.027344 359.753906 59.703125 360.382812 58.445312 C 367.671875 55.9375 375.289062 53.667969 382.324219 57.617188 Z M 244.324219 215.078125 C 244.636719 216.632812 244.949219 218.191406 245.269531 219.796875 C 245.890625 219.171875 246.515625 218.550781 247.15625 217.910156 L 247.15625 215.078125 Z M 407.5625 209.417969 C 405.921875 209.980469 404.351562 210.609375 402.847656 211.304688 C 403.160156 213.039062 403.789062 214.609375 404.734375 216.019531 C 406.304688 216.058594 407.878906 216.0625 409.453125 216.019531 L 409.453125 210.359375 Z M 81.085938 210.359375 L 82.027344 213.191406 Z M 369.820312 207.527344 C 370.132812 211.265625 370.445312 215.003906 370.765625 218.851562 L 371.707031 218.851562 L 371.707031 207.527344 Z M 123.546875 207.527344 C 123.234375 210.953125 122.925781 214.378906 122.601562 217.910156 C 123.226562 217.597656 123.847656 217.285156 124.492188 216.964844 C 124.785156 215.484375 124.980469 213.890625 125.078125 212.1875 C 125.152344 211.320312 125.222656 210.453125 125.292969 209.5625 C 125.339844 208.890625 125.386719 208.21875 125.433594 207.53125 L 123.546875 207.53125 Z M 362.273438 205.640625 C 361.222656 207.738281 361.089844 209.183594 360.890625 211.511719 C 360.816406 212.308594 360.746094 213.105469 360.671875 213.929688 C 360.59375 214.773438 360.519531 215.621094 360.445312 216.492188 C 359.832031 223.050781 359.054688 229.414062 357.554688 235.835938 C 354.25 236.058594 351.734375 236.058594 350.003906 235.835938 C 348.707031 234.65625 347.449219 233.398438 346.230469 232.0625 C 344.023438 231.289062 341.820312 230.660156 339.625 230.175781 C 338.691406 229.863281 337.757812 229.550781 336.796875 229.230469 C 337.105469 233.28125 337.417969 237.328125 337.738281 241.496094 C 336.804688 241.808594 335.863281 242.125 334.910156 242.441406 C 337.835938 244.394531 340.832031 245.789062 344.042969 247.195312 C 344.65625 247.464844 345.269531 247.734375 345.898438 248.011719 C 347.195312 248.582031 348.492188 249.148438 349.789062 249.710938 C 351.765625 250.574219 353.734375 251.449219 355.707031 252.328125 C 356.96875 252.878906 358.230469 253.425781 359.492188 253.976562 C 360.078125 254.238281 360.671875 254.503906 361.269531 254.773438 C 364.621094 256.214844 367.148438 256.710938 370.765625 256.59375 C 370.882812 250.207031 370.582031 243.984375 369.867188 237.636719 C 369.769531 236.773438 369.675781 235.910156 369.574219 235.023438 C 369.371094 233.222656 369.167969 231.417969 368.957031 229.621094 C 368.640625 226.855469 368.347656 224.089844 368.054688 221.320312 C 367.855469 219.566406 367.652344 217.808594 367.445312 216.050781 C 367.363281 215.222656 367.28125 214.394531 367.191406 213.542969 C 367.097656 212.78125 367.003906 212.015625 366.90625 211.230469 C 366.832031 210.558594 366.757812 209.886719 366.679688 209.195312 C 366.339844 207.953125 365.480469 207.003906 364.105469 206.351562 C 363.5 206.117188 362.894531 205.882812 362.273438 205.640625 Z M 129.207031 206.585938 C 128.871094 207.871094 128.621094 209.300781 128.457031 210.878906 C 128.34375 211.789062 128.226562 212.703125 128.105469 213.644531 C 127.988281 214.640625 127.871094 215.632812 127.753906 216.660156 C 127.625 217.675781 127.503906 218.691406 127.371094 219.738281 C 127.109375 221.890625 126.851562 224.046875 126.59375 226.203125 C 126.203125 229.503906 125.796875 232.800781 125.386719 236.101562 C 125.132812 238.191406 124.878906 240.28125 124.628906 242.371094 C 124.503906 243.359375 124.382812 244.347656 124.253906 245.367188 C 124.148438 246.289062 124.042969 247.210938 123.929688 248.164062 C 123.832031 248.972656 123.734375 249.78125 123.636719 250.617188 C 123.542969 252.882812 123.636719 254.492188 124.492188 256.59375 C 128.382812 257.894531 130.65625 256.355469 134.203125 254.742188 C 134.871094 254.445312 135.535156 254.152344 136.222656 253.847656 C 138.351562 252.90625 140.472656 251.949219 142.59375 250.992188 C 144.039062 250.351562 145.480469 249.710938 146.921875 249.070312 C 150.457031 247.5 153.988281 245.917969 157.515625 244.328125 C 157.054688 243.914062 156.59375 243.5 156.117188 243.074219 C 154.054688 240.804688 154.402344 239.136719 154.507812 236.132812 C 154.535156 235.195312 154.558594 234.246094 154.585938 233.289062 C 154.617188 232.574219 154.652344 231.855469 154.683594 231.117188 C 153.285156 231.542969 151.890625 231.976562 150.496094 232.417969 C 149.71875 232.65625 148.941406 232.898438 148.140625 233.144531 C 146.730469 233.5625 145.765625 234.457031 145.25 235.835938 C 140.585938 236.652344 137.441406 236.652344 135.8125 235.835938 C 135.566406 234.1875 135.375 232.277344 135.25 230.097656 C 135.175781 228.925781 135.097656 227.753906 135.023438 226.546875 C 134.953125 225.3125 134.882812 224.074219 134.808594 222.804688 C 134.664062 220.378906 134.515625 217.953125 134.363281 215.53125 C 134.300781 214.449219 134.238281 213.367188 134.175781 212.253906 C 133.96875 209.925781 133.640625 207.875 132.984375 205.640625 C 131.675781 205.546875 130.417969 205.863281 129.207031 206.585938 Z M 382.796875 204.640625 C 382.09375 204.824219 381.390625 205.007812 380.664062 205.199219 C 378.933594 205.652344 377.207031 206.117188 375.480469 206.585938 C 375.371094 210.105469 375.304688 213.621094 375.246094 217.140625 C 375.214844 218.136719 375.183594 219.132812 375.148438 220.160156 C 375.136719 221.125 375.125 222.085938 375.113281 223.082031 C 375.09375 223.964844 375.074219 224.847656 375.054688 225.761719 C 375.632812 229.171875 376.785156 230.601562 379.257812 233.007812 C 381.234375 234.039062 383.351562 234.925781 385.617188 235.671875 C 386.226562 235.890625 386.835938 236.109375 387.464844 236.335938 C 389.402344 237.027344 391.347656 237.699219 393.292969 238.371094 C 394.59375 238.835938 395.890625 239.296875 397.1875 239.761719 C 402.515625 241.65625 407.859375 243.496094 413.226562 245.273438 C 414.023438 241.96875 414.199219 239.386719 413.675781 236.03125 C 413.550781 235.207031 413.421875 234.378906 413.292969 233.523438 C 413.152344 232.671875 413.015625 231.820312 412.871094 230.941406 C 412.742188 230.078125 412.609375 229.21875 412.472656 228.328125 C 412.082031 225.394531 411.386719 222.550781 410.394531 219.796875 C 409.144531 219.507812 407.785156 219.269531 406.328125 219.089844 C 404.761719 218.789062 403.289062 218.398438 401.902344 217.910156 C 401.28125 216.9375 400.65625 215.964844 400.015625 214.960938 C 399.394531 214.066406 398.769531 213.171875 398.128906 212.25 C 395.914062 211.867188 393.949219 211.953125 391.707031 212.113281 C 389.3125 212.269531 387.238281 211.902344 384.917969 211.304688 C 385.230469 209.75 385.542969 208.191406 385.863281 206.585938 C 388.664062 205.652344 391.46875 204.71875 394.355469 203.757812 C 389.960938 202.660156 387.027344 203.488281 382.796875 204.640625 Z M 454.742188 201.867188 C 451.9375 202.03125 449.222656 202.085938 446.417969 202.050781 C 445.605469 202.050781 444.792969 202.046875 443.953125 202.042969 C 441.359375 202.03125 438.761719 202.007812 436.167969 201.984375 C 434.40625 201.976562 432.648438 201.964844 430.886719 201.960938 C 426.574219 201.9375 422.257812 201.90625 417.945312 201.867188 C 417.128906 203.265625 416.8125 205.152344 417 207.527344 L 413.226562 209.414062 C 413.535156 211.59375 413.847656 213.773438 414.167969 216.019531 C 425.390625 216.695312 436.597656 217.082031 447.84375 217.140625 C 448.964844 217.152344 450.085938 217.164062 451.238281 217.179688 C 452.28125 217.179688 453.324219 217.179688 454.402344 217.183594 C 455.332031 217.1875 456.261719 217.191406 457.222656 217.191406 C 458.832031 217.1875 460.207031 216.480469 461.347656 215.078125 C 461.386719 213.664062 461.289062 212.171875 461.054688 210.59375 C 460.953125 209.757812 460.847656 208.917969 460.746094 208.050781 C 460.363281 205.351562 459.957031 202.664062 459.460938 199.980469 C 458 199.863281 456.425781 200.492188 454.742188 201.867188 Z M 87.691406 199.980469 C 89.878906 202.507812 91.765625 203.4375 94.945312 204.402344 C 95.707031 204.640625 96.46875 204.878906 97.253906 205.121094 C 97.835938 205.292969 98.417969 205.464844 99.011719 205.644531 L 99.011719 208.472656 C 94.558594 210.144531 90.492188 210.765625 85.804688 211.304688 C 83.464844 222.234375 81.890625 233.242188 81.085938 244.328125 C 84.929688 245.609375 86.460938 244.503906 90.1875 242.988281 C 90.796875 242.742188 91.414062 242.492188 92.039062 242.242188 C 93.332031 241.71875 94.625 241.191406 95.914062 240.660156 C 97.875 239.855469 99.835938 239.0625 101.804688 238.269531 C 107.890625 236.230469 113.566406 233.53125 118.828125 230.175781 C 118.910156 228.425781 118.929688 226.675781 118.921875 224.925781 C 118.917969 223.863281 118.917969 222.800781 118.914062 221.707031 C 118.90625 220.589844 118.898438 219.472656 118.890625 218.324219 C 118.882812 217.203125 118.878906 216.082031 118.875 214.925781 C 118.863281 212.144531 118.847656 209.367188 118.828125 206.585938 C 108.558594 203.539062 98.179688 201.339844 87.691406 199.980469 Z M 21.640625 199.980469 C 21.089844 202.097656 20.5625 204.222656 20.046875 206.351562 C 19.753906 207.53125 19.457031 208.714844 19.152344 209.933594 C 18.726562 212.039062 18.976562 213.816406 19.898438 215.257812 C 20.972656 216.519531 22.296875 217.234375 23.863281 217.410156 C 24.742188 217.394531 25.621094 217.382812 26.527344 217.367188 C 27.527344 217.359375 28.527344 217.351562 29.558594 217.34375 C 30.644531 217.316406 31.726562 217.289062 32.84375 217.261719 C 33.960938 217.246094 35.074219 217.226562 36.222656 217.210938 C 39.855469 217.152344 43.484375 217.058594 47.117188 216.964844 C 48.394531 216.9375 49.671875 216.910156 50.949219 216.886719 C 54.703125 216.8125 58.457031 216.714844 62.214844 216.613281 C 63.394531 216.582031 64.574219 216.554688 65.792969 216.523438 C 66.886719 216.488281 67.992188 216.449219 69.113281 216.414062 C 70.082031 216.382812 71.0625 216.355469 72.050781 216.324219 C 73.816406 216.226562 75.570312 215.496094 77.308594 214.136719 C 77.464844 212.507812 77.464844 210.9375 77.308594 209.417969 C 75.449219 208.6875 73.542969 208.371094 71.589844 208.472656 C 69.742188 208.472656 68.1875 208.160156 66.929688 207.53125 C 66.535156 205.605469 66.222656 203.714844 65.988281 201.867188 C 64.8125 201.878906 63.636719 201.886719 62.421875 201.898438 C 58.054688 201.933594 53.683594 201.953125 49.3125 201.972656 C 47.421875 201.980469 45.535156 201.996094 43.644531 202.011719 C 40.925781 202.035156 38.203125 202.046875 35.484375 202.050781 C 34.644531 202.0625 33.800781 202.074219 32.933594 202.082031 C 28.742188 202.082031 25.445312 201.964844 21.636719 199.980469 Z M 155.628906 195.261719 C 154.5 195.742188 153.359375 196.351562 152.207031 197.089844 C 151.15625 197.734375 150.105469 198.375 149.023438 199.035156 C 148.996094 202.792969 148.980469 206.546875 148.964844 210.300781 C 148.957031 211.375 148.949219 212.445312 148.941406 213.550781 C 148.9375 214.570312 148.9375 215.585938 148.933594 216.636719 C 148.925781 217.582031 148.921875 218.523438 148.917969 219.496094 C 148.824219 220.929688 149.175781 221.972656 149.96875 222.625 L 154.6875 222.625 C 155.621094 213.90625 156.554688 205.1875 157.515625 196.207031 C 156.894531 195.894531 156.269531 195.582031 155.628906 195.261719 Z M 336.796875 195.261719 C 335.757812 198.378906 335.824219 200.464844 335.964844 203.734375 C 336.011719 204.832031 336.058594 205.933594 336.105469 207.0625 C 336.15625 208.207031 336.210938 209.355469 336.265625 210.535156 C 336.3125 211.695312 336.363281 212.851562 336.414062 214.042969 C 336.535156 216.90625 336.664062 219.765625 336.792969 222.625 C 339.285156 222.316406 341.800781 222 344.34375 221.683594 C 345.246094 213.800781 345.390625 206.019531 345.285156 198.09375 C 342.484375 197.160156 339.683594 196.226562 336.792969 195.261719 Z M 440.589844 170.730469 C 440.472656 171.605469 440.355469 172.480469 440.234375 173.382812 C 439.214844 175.386719 438.058594 176.703125 436.773438 177.332031 C 434.285156 178.074219 431.804688 178.675781 429.265625 179.222656 C 428.4375 179.414062 427.609375 179.609375 426.757812 179.808594 C 424.765625 180.265625 422.773438 180.691406 420.773438 181.109375 C 420.671875 181.9375 420.566406 182.769531 420.460938 183.625 C 420.3125 184.722656 420.160156 185.816406 420.007812 186.949219 C 419.867188 188.03125 419.722656 189.113281 419.578125 190.230469 C 418.882812 193.390625 417.878906 195.445312 416.058594 198.09375 C 428.652344 198.84375 441.183594 199.15625 453.800781 199.035156 C 455.71875 195.175781 455.742188 192.882812 454.839844 188.699219 C 454.621094 187.648438 454.398438 186.589844 454.175781 185.519531 C 453.9375 184.433594 453.695312 183.347656 453.449219 182.230469 C 453.214844 181.125 452.980469 180.023438 452.738281 178.886719 C 452.164062 176.164062 451.566406 173.445312 450.96875 170.730469 Z M 30.132812 170.730469 C 29.523438 173.148438 28.914062 175.566406 28.304688 177.984375 C 28.132812 178.664062 27.960938 179.34375 27.78125 180.046875 C 26.332031 185.824219 25.074219 191.132812 25.414062 197.152344 C 26.578125 198.589844 28.070312 199.285156 29.882812 199.238281 C 30.957031 199.222656 32.035156 199.203125 33.144531 199.183594 C 34.335938 199.167969 35.527344 199.152344 36.75 199.132812 C 42.683594 198.980469 48.613281 198.796875 54.546875 198.566406 C 55.746094 198.519531 56.945312 198.476562 58.183594 198.429688 C 61.097656 198.320312 64.015625 198.207031 66.929688 198.09375 C 68.953125 194.8125 69.019531 192.230469 68.933594 188.421875 C 68.917969 187.40625 68.902344 186.386719 68.882812 185.339844 C 68.863281 184.566406 68.839844 183.792969 68.816406 182.996094 C 68.058594 182.839844 67.304688 182.683594 66.523438 182.519531 C 63.097656 181.804688 59.675781 181.074219 56.253906 180.34375 C 55.0625 180.097656 53.871094 179.851562 52.644531 179.597656 C 51.503906 179.351562 50.363281 179.105469 49.191406 178.851562 C 48.136719 178.628906 47.085938 178.40625 46 178.175781 C 43.285156 177.316406 42.144531 176.800781 40.511719 174.503906 C 40.199219 173.257812 39.886719 172.015625 39.566406 170.730469 L 30.128906 170.730469 Z M 422.660156 169.785156 C 422.351562 172.277344 422.039062 174.769531 421.71875 177.335938 C 423.527344 177.066406 425.335938 176.789062 427.144531 176.507812 C 428.148438 176.355469 429.15625 176.203125 430.195312 176.042969 C 432.734375 175.511719 434.582031 174.847656 436.816406 173.558594 L 436.816406 169.785156 Z M 59.929688 168.957031 C 58.960938 169 57.996094 169.046875 57 169.09375 C 55.996094 169.148438 54.992188 169.199219 53.957031 169.253906 C 52.941406 169.304688 51.921875 169.351562 50.871094 169.402344 C 48.363281 169.527344 45.851562 169.652344 43.34375 169.785156 C 43.652344 171.34375 43.964844 172.898438 44.285156 174.503906 C 48 175.292969 51.714844 176.078125 55.429688 176.863281 C 56.488281 177.085938 57.542969 177.3125 58.632812 177.542969 C 59.644531 177.757812 60.65625 177.96875 61.703125 178.191406 C 62.636719 178.386719 63.570312 178.585938 64.53125 178.789062 C 66.171875 179.132812 67.914062 179.277344 69.761719 179.222656 C 69.453125 176.109375 69.136719 172.960938 68.820312 169.785156 C 65.449219 168.945312 63.324219 168.785156 59.929688 168.957031 Z M 212.242188 139.589844 C 211.738281 140.882812 211.421875 142.140625 211.300781 143.367188 C 212.113281 143.058594 212.929688 142.753906 213.765625 142.4375 C 216.964844 141.476562 219.453125 141.238281 222.78125 141.234375 C 223.914062 141.230469 225.042969 141.222656 226.207031 141.214844 C 227.417969 141.21875 228.636719 141.222656 229.871094 141.226562 C 231.136719 141.226562 232.40625 141.226562 233.671875 141.222656 C 236.320312 141.21875 238.96875 141.222656 241.617188 141.230469 C 244.996094 141.242188 248.375 141.238281 251.757812 141.226562 C 254.371094 141.21875 256.984375 141.222656 259.597656 141.226562 C 261.445312 141.226562 263.292969 141.222656 265.140625 141.214844 C 270.820312 141.246094 275.78125 141.371094 281.125 143.367188 C 279.832031 140.382812 279.25 139.597656 276.40625 137.703125 C 274.605469 137.511719 272.671875 137.429688 270.601562 137.460938 C 269.40625 137.453125 268.210938 137.449219 266.976562 137.441406 C 265.667969 137.445312 264.363281 137.449219 263.054688 137.453125 C 261.714844 137.453125 260.371094 137.449219 259.03125 137.449219 C 256.222656 137.445312 253.410156 137.449219 250.601562 137.457031 C 247 137.46875 243.402344 137.460938 239.804688 137.453125 C 237.035156 137.445312 234.265625 137.445312 231.496094 137.453125 C 230.167969 137.453125 228.84375 137.453125 227.515625 137.445312 C 225.660156 137.441406 223.800781 137.449219 221.945312 137.460938 C 220.890625 137.460938 219.824219 137.460938 218.746094 137.464844 C 216.046875 137.703125 214.476562 138.085938 212.242188 139.589844 Z M 126.378906 89.582031 L 127.320312 91.46875 C 127.945312 91.15625 128.566406 90.847656 129.207031 90.523438 C 128.273438 90.214844 127.339844 89.902344 126.378906 89.582031 Z M 134.871094 57.855469 C 136.757812 58.875 138.328125 60.015625 139.585938 61.273438 C 139.691406 62.597656 139.707031 64.074219 139.632812 65.699219 C 139.589844 66.59375 139.550781 67.484375 139.511719 68.402344 C 139.457031 69.339844 139.40625 70.277344 139.351562 71.242188 C 139.3125 72.152344 139.277344 73.0625 139.238281 74 C 138.742188 83.882812 137.089844 90.199219 134.28125 92.941406 C 133.539062 93.390625 132.800781 93.839844 132.039062 94.300781 C 133.097656 94.734375 134.152344 95.164062 135.242188 95.613281 C 136.632812 96.195312 138.023438 96.78125 139.410156 97.367188 C 140.109375 97.648438 140.804688 97.933594 141.519531 98.226562 C 146.351562 100.277344 148.796875 101.929688 150.902344 106.878906 C 151.175781 107.652344 151.453125 108.425781 151.734375 109.21875 C 153.507812 113.824219 155.714844 119.347656 160.347656 121.664062 C 160.617188 120.945312 160.890625 120.222656 161.171875 119.480469 C 161.878906 117.789062 162.863281 116.003906 164.121094 114.113281 C 168 114.339844 170.09375 114.460938 172.964844 117.179688 C 174.601562 119.949219 175.226562 121.304688 175.445312 124.496094 C 174.671875 127.316406 173.542969 129.953125 172.375 132.632812 C 172.082031 133.351562 171.785156 134.074219 171.480469 134.8125 C 169.746094 138.921875 167.921875 141.773438 166.007812 143.363281 C 162.019531 144.539062 159.347656 144.566406 155.628906 142.835938 C 151.746094 140.671875 148.480469 137.902344 145.25 134.871094 C 144.625 137.050781 144.003906 139.230469 143.363281 141.476562 C 157.3125 144.628906 171.640625 145.464844 185.871094 146.480469 C 190.925781 146.847656 195.917969 147.273438 200.921875 148.082031 C 200.707031 147.285156 200.492188 146.488281 200.269531 145.664062 C 199.96875 142.320312 200.511719 140.898438 201.867188 137.921875 C 203.011719 135.359375 204.046875 132.757812 205.082031 130.144531 C 205.488281 129.117188 205.898438 128.09375 206.320312 127.035156 C 207.167969 124.898438 208.015625 122.761719 208.863281 120.621094 C 209.269531 119.601562 209.675781 118.578125 210.09375 117.523438 C 210.460938 116.597656 210.828125 115.671875 211.207031 114.71875 C 212.878906 110.695312 214.484375 108.253906 216.015625 107.390625 C 216.773438 107.117188 217.535156 106.847656 218.316406 106.566406 C 219.15625 106.253906 219.992188 105.945312 220.855469 105.625 C 222.691406 104.984375 224.527344 104.34375 226.363281 103.703125 C 227.269531 103.382812 228.175781 103.0625 229.109375 102.734375 C 229.945312 102.449219 230.777344 102.167969 231.636719 101.875 C 233.203125 101.289062 234.625 100.476562 235.898438 99.433594 C 240.394531 96.078125 246.523438 96.6875 251.875 97.132812 C 254.785156 98.261719 256.996094 99.601562 259.570312 101.324219 C 262.910156 103.152344 266.273438 104.15625 269.921875 105.210938 C 274.628906 106.582031 278.050781 107.976562 280.183594 109.398438 C 280.808594 110.816406 281.394531 112.40625 281.945312 114.171875 C 282.253906 115.140625 282.5625 116.109375 282.882812 117.105469 C 283.199219 118.125 283.511719 119.140625 283.839844 120.191406 C 285.714844 126.195312 287.617188 131.960938 290.390625 137.621094 C 292.222656 141.46875 292.980469 143.886719 291.503906 148.085938 C 292.378906 147.980469 293.261719 147.878906 294.152344 147.773438 C 306.789062 146.28125 319.433594 144.824219 332.078125 143.367188 C 331.242188 142.742188 330.402344 142.121094 329.539062 141.476562 C 326.019531 138.535156 323.957031 135.140625 321.757812 131.160156 C 321.371094 130.507812 320.984375 129.855469 320.585938 129.1875 C 318.789062 125.988281 317.90625 124.144531 318.019531 120.410156 C 319.359375 116.429688 321.828125 114.078125 325.53125 112.171875 C 326.753906 112.210938 327.972656 112.699219 329.191406 113.644531 C 331.574219 116.535156 333.71875 119.523438 335.851562 122.609375 C 336.574219 122.160156 337.292969 121.710938 338.035156 121.25 C 339.726562 120.269531 341.515625 119.460938 343.402344 118.832031 C 344.058594 117.742188 344.6875 116.484375 345.289062 115.058594 C 350.078125 106.160156 355.109375 100.8125 360.386719 99.019531 C 361.710938 98.410156 363.03125 97.78125 364.335938 97.132812 C 364.960938 96.824219 365.585938 96.511719 366.230469 96.195312 C 367.507812 95.523438 368.902344 94.539062 370.414062 93.238281 C 374.878906 89.710938 381.132812 88.230469 386.808594 88.640625 C 388.859375 89.574219 390.535156 90.710938 392.359375 92.035156 C 395.277344 93.96875 398.429688 95.027344 401.714844 96.195312 C 403.949219 97.203125 405.125 98.035156 406.621094 99.960938 C 409.507812 107.671875 409.765625 118.082031 407.941406 126.019531 C 407.0625 127.519531 405.699219 128.585938 403.855469 129.222656 C 402.695312 129.390625 401.539062 129.558594 400.34375 129.730469 C 399.726562 129.824219 399.105469 129.921875 398.46875 130.019531 C 396.492188 130.320312 394.507812 130.59375 392.527344 130.863281 C 390.550781 131.15625 388.570312 131.453125 386.59375 131.75 C 384.800781 132.015625 383 132.269531 381.203125 132.523438 C 379.257812 132.78125 377.351562 133.25 375.484375 133.929688 C 372.761719 141.011719 371.964844 148.957031 370.964844 156.441406 C 370.824219 157.449219 370.683594 158.457031 370.539062 159.496094 C 370.097656 162.667969 369.664062 165.84375 369.230469 169.019531 C 368.792969 172.234375 368.351562 175.445312 367.90625 178.65625 C 367.628906 180.644531 367.355469 182.632812 367.089844 184.621094 C 366.964844 185.511719 366.839844 186.410156 366.714844 187.316406 C 366.609375 188.101562 366.503906 188.886719 366.390625 189.695312 C 366.160156 190.890625 365.730469 191.804688 365.101562 192.433594 C 362.582031 192.566406 360.078125 192.472656 357.554688 192.433594 L 357.554688 194.320312 C 358.144531 194.511719 358.738281 194.707031 359.34375 194.90625 C 360.117188 195.160156 360.894531 195.414062 361.683594 195.675781 C 362.449219 195.925781 363.214844 196.179688 364.003906 196.4375 C 365.367188 196.914062 366.675781 197.464844 367.933594 198.09375 C 368.039062 196.960938 368.144531 195.816406 368.25 194.660156 C 369.28125 183.703125 370.597656 172.816406 372.226562 161.929688 C 372.597656 159.417969 372.957031 156.902344 373.3125 154.386719 C 373.554688 152.769531 373.792969 151.152344 374.035156 149.53125 C 374.136719 148.792969 374.242188 148.046875 374.347656 147.285156 C 374.976562 143.207031 375.753906 140.125 378.3125 136.761719 C 381.707031 134.5 384.820312 134.074219 388.757812 133.453125 C 389.507812 133.328125 390.261719 133.207031 391.035156 133.078125 C 392.625 132.820312 394.214844 132.566406 395.808594 132.3125 C 398.21875 131.929688 400.628906 131.53125 403.039062 131.132812 C 404.589844 130.882812 406.136719 130.632812 407.691406 130.386719 C 408.398438 130.265625 409.113281 130.148438 409.84375 130.027344 C 414.792969 129.257812 419.539062 129.113281 424.546875 129.214844 C 422.722656 127.300781 421.121094 125.984375 418.886719 124.496094 C 419.820312 123.871094 420.765625 123.242188 421.71875 122.609375 C 417.941406 121.496094 414.257812 120.550781 410.394531 119.777344 L 410.394531 104.679688 C 413.191406 103.820312 415.984375 102.960938 418.78125 102.101562 C 423.242188 100.285156 425.742188 98.535156 427.902344 94.171875 C 428.3125 93.066406 428.726562 91.960938 429.148438 90.820312 C 431.507812 84.851562 434.476562 80.242188 438.703125 75.429688 C 439.167969 74.839844 439.632812 74.253906 440.113281 73.644531 C 443.527344 69.390625 447.4375 66.261719 451.914062 63.164062 C 453.175781 64.730469 454.433594 66.304688 455.6875 67.882812 C 456.210938 68.488281 456.734375 69.09375 457.277344 69.71875 C 464.882812 78.835938 467.671875 89.113281 467.007812 100.90625 C 466.421875 105.023438 465.625 109.09375 464.828125 113.171875 C 462.945312 123.183594 461.449219 133.15625 460.394531 143.289062 C 459.695312 149.816406 458.753906 154.558594 457.574219 157.519531 C 455.191406 159.429688 452.902344 160.136719 450.027344 161.296875 L 458.519531 161.296875 C 459.167969 158.074219 459.816406 154.847656 460.464844 151.625 C 460.667969 150.601562 460.875 149.582031 461.085938 148.527344 C 462.414062 141.90625 463.699219 135.277344 464.953125 128.644531 C 465.394531 126.320312 465.835938 123.996094 466.277344 121.671875 C 466.570312 120.136719 466.859375 118.59375 467.144531 117.054688 C 467.546875 114.875 467.960938 112.699219 468.375 110.523438 C 468.496094 109.863281 468.617188 109.199219 468.738281 108.527344 C 469.332031 105.476562 470.328125 103.25 471.726562 101.851562 C 474.59375 102.199219 476.480469 102.828125 477.390625 103.738281 C 477.238281 111.988281 475.898438 120.117188 474.421875 128.214844 C 474.222656 129.320312 474.019531 130.433594 473.816406 131.5625 C 473.398438 133.871094 472.976562 136.183594 472.550781 138.492188 C 471.898438 142.027344 471.273438 145.570312 470.648438 149.113281 C 470.238281 151.367188 469.824219 153.621094 469.410156 155.875 C 469.226562 156.929688 469.042969 157.988281 468.851562 159.074219 C 468.664062 160.054688 468.480469 161.035156 468.289062 162.046875 C 468.132812 162.90625 467.976562 163.765625 467.816406 164.652344 C 466.816406 167.511719 465.609375 168.867188 463.234375 170.730469 C 460.875 170.890625 458.675781 170.890625 456.628906 170.730469 C 456.886719 171.832031 457.144531 172.929688 457.410156 174.0625 C 458.367188 178.167969 459.316406 182.277344 460.257812 186.390625 C 460.667969 188.164062 461.078125 189.9375 461.496094 191.707031 C 462.09375 194.265625 462.679688 196.828125 463.265625 199.390625 C 463.449219 200.171875 463.636719 200.953125 463.828125 201.757812 C 465.703125 210.085938 465.6875 215.953125 463.785156 219.359375 C 460.089844 221.457031 456.722656 221.226562 452.542969 221.144531 C 451.683594 221.140625 450.824219 221.136719 449.941406 221.132812 C 447.195312 221.117188 444.453125 221.078125 441.710938 221.035156 C 439.875 221.027344 438.035156 221.015625 436.199219 221.007812 C 434.433594 220.996094 432.667969 220.984375 430.898438 220.964844 C 430.078125 220.960938 429.257812 220.953125 428.410156 220.945312 C 423.890625 220.875 419.570312 220.546875 415.113281 219.796875 C 415.316406 220.914062 415.523438 222.042969 415.730469 223.183594 C 418.199219 237.023438 418.574219 245.253906 416.859375 247.875 C 414.3125 249.589844 412.488281 249.25 409.449219 249.050781 C 407.503906 248.464844 405.503906 247.761719 403.449219 246.945312 C 402.320312 246.496094 401.1875 246.050781 400.023438 245.589844 C 399.4375 245.355469 398.855469 245.117188 398.253906 244.875 C 396.5 244.164062 394.734375 243.46875 392.972656 242.773438 C 386.347656 240.128906 379.90625 237.28125 373.59375 233.953125 C 373.730469 234.964844 373.867188 235.980469 374.007812 237.023438 C 374.183594 238.378906 374.363281 239.734375 374.539062 241.089844 C 374.628906 241.753906 374.71875 242.425781 374.8125 243.101562 C 375.859375 251.230469 375.140625 256.988281 372.652344 260.375 L 371.707031 261.316406 C 364.613281 261.058594 359.34375 258.960938 353.011719 255.890625 C 351.175781 255.023438 349.34375 254.160156 347.507812 253.296875 C 346.632812 252.882812 345.761719 252.472656 344.863281 252.046875 C 341.917969 250.6875 338.9375 249.507812 335.910156 248.34375 C 332.59375 247.015625 330.335938 245.695312 327.773438 243.210938 C 324.425781 239.988281 321.085938 239.746094 316.601562 239.128906 C 313.035156 238.464844 311.179688 237.304688 308.488281 234.898438 C 307.859375 233.597656 307.542969 232.339844 307.542969 231.121094 C 308.167969 230.1875 308.789062 229.253906 309.429688 228.292969 C 310.726562 228.128906 312.121094 228.089844 313.617188 228.171875 C 316.46875 228.3125 317.984375 228.269531 320.753906 227.347656 L 321.699219 225.460938 C 320.761719 225.148438 319.828125 224.839844 318.867188 224.515625 C 318.320312 219.148438 317.78125 213.78125 317.253906 208.414062 C 317.074219 206.597656 316.890625 204.777344 316.703125 202.957031 C 314.542969 181.761719 314.949219 169.132812 317.921875 165.074219 C 321.972656 161.164062 326.734375 161.257812 332.113281 161.230469 C 332.972656 161.222656 333.832031 161.210938 334.714844 161.203125 C 336.503906 161.1875 338.289062 161.195312 340.074219 161.226562 C 343.199219 161.253906 346.039062 160.5 348.59375 158.964844 C 351.777344 153.582031 352.027344 148.746094 351.953125 142.664062 C 351.945312 142.003906 351.941406 141.339844 351.9375 140.667969 C 351.925781 139.054688 351.910156 137.4375 351.890625 135.824219 C 348.15625 138.003906 344.417969 140.183594 340.570312 142.429688 L 350.949219 142.429688 C 350.398438 146.753906 349.769531 149.269531 349.0625 149.976562 C 346.4375 150.375 343.828125 150.722656 341.195312 151.035156 C 340.378906 151.132812 339.558594 151.230469 338.714844 151.335938 C 336.964844 151.542969 335.210938 151.753906 333.457031 151.960938 C 330.875 152.265625 328.292969 152.582031 325.710938 152.898438 C 311.824219 154.566406 297.910156 155.640625 283.953125 156.582031 C 283.949219 157.261719 283.941406 157.941406 283.9375 158.640625 C 283.882812 165.039062 283.816406 171.441406 283.730469 177.84375 C 283.6875 181.132812 283.652344 184.421875 283.625 187.714844 C 283.597656 191.496094 283.546875 195.277344 283.492188 199.0625 C 283.488281 200.242188 283.480469 201.425781 283.476562 202.644531 C 283.457031 203.742188 283.4375 204.847656 283.417969 205.964844 C 283.40625 206.929688 283.398438 207.894531 283.386719 208.890625 C 282.949219 211.707031 282.207031 212.269531 280.179688 214.140625 C 279.996094 216.785156 279.984375 219.203125 280.109375 221.835938 C 280.132812 222.605469 280.160156 223.378906 280.183594 224.171875 C 280.269531 226.648438 280.371094 229.121094 280.472656 231.597656 C 280.59375 234.8125 280.707031 238.023438 280.816406 241.238281 C 280.847656 242.03125 280.875 242.828125 280.90625 243.644531 C 281.195312 252.050781 281.183594 260.457031 281.121094 268.867188 C 279.878906 269.179688 278.632812 269.492188 277.347656 269.8125 C 276.890625 267.90625 276.441406 266 275.992188 264.09375 C 275.738281 263.03125 275.484375 261.957031 275.226562 260.875 C 273.617188 253.332031 273.429688 246.125 273.453125 238.4375 C 273.453125 237.339844 273.449219 236.242188 273.445312 235.109375 C 273.453125 228.382812 273.769531 221.773438 274.515625 215.085938 C 271.714844 215.398438 268.910156 215.707031 266.023438 216.027344 C 264.785156 219.113281 263.546875 222.199219 262.308594 225.289062 C 261.957031 226.164062 261.601562 227.046875 261.242188 227.941406 C 260.902344 228.785156 260.566406 229.625 260.21875 230.496094 C 259.90625 231.269531 259.59375 232.046875 259.273438 232.84375 C 258.648438 234.457031 258.078125 236.089844 257.53125 237.730469 C 257.84375 238.3125 258.152344 238.898438 258.476562 239.5 C 259.707031 242.117188 259.355469 243.511719 258.476562 246.222656 C 255.683594 247.617188 253.058594 247.222656 249.984375 247.167969 L 249.984375 254.714844 C 247.261719 256.074219 244.871094 255.746094 241.84375 255.714844 C 240.722656 255.707031 239.601562 255.699219 238.445312 255.691406 C 237.582031 255.679688 236.71875 255.667969 235.828125 255.660156 C 234.816406 252.570312 234.984375 250.535156 235.769531 247.402344 C 235.953125 246.648438 236.140625 245.886719 236.328125 245.117188 C 236.472656 244.546875 236.621094 243.976562 236.773438 243.390625 C 235.839844 242.769531 234.90625 242.144531 233.941406 241.503906 C 233.324219 239.949219 232.75 238.199219 232.222656 236.257812 C 231.933594 235.214844 231.644531 234.167969 231.347656 233.089844 C 231.054688 231.996094 230.765625 230.898438 230.460938 229.769531 C 230.160156 228.675781 229.859375 227.582031 229.546875 226.457031 C 228.074219 221.050781 227.335938 217.261719 227.335938 215.085938 L 218.84375 215.085938 C 218.859375 216.207031 218.875 217.339844 218.890625 218.484375 C 218.941406 222.71875 218.972656 226.953125 219 231.1875 C 219.015625 233.007812 219.03125 234.824219 219.058594 236.644531 C 219.210938 248.078125 218.671875 258.65625 216.015625 269.8125 C 214.769531 269.5 213.523438 269.1875 212.242188 268.867188 C 212.148438 256.023438 212.09375 243.191406 212.652344 230.359375 C 212.691406 229.484375 212.726562 228.609375 212.765625 227.703125 C 212.984375 223.125 213.394531 218.664062 214.128906 214.140625 C 213.527344 213.847656 212.921875 213.558594 212.300781 213.253906 C 211.003906 212.585938 210.039062 211.9375 209.410156 211.308594 C 209.292969 209.601562 209.242188 207.890625 209.21875 206.179688 C 209.199219 205.082031 209.179688 203.988281 209.160156 202.859375 C 209.144531 201.667969 209.128906 200.460938 209.113281 199.246094 C 209.09375 198.03125 209.074219 196.820312 209.054688 195.566406 C 209 192.335938 208.953125 189.105469 208.910156 185.875 C 208.863281 182.578125 208.808594 179.285156 208.757812 175.988281 C 208.65625 169.519531 208.558594 163.050781 208.46875 156.582031 C 207.691406 156.539062 206.910156 156.492188 206.121094 156.445312 C 191.070312 155.5625 176.097656 154.375 161.109375 152.75 C 160.335938 152.664062 159.566406 152.582031 158.769531 152.496094 C 156.566406 152.261719 154.367188 152.015625 152.164062 151.773438 C 151.503906 151.699219 150.847656 151.628906 150.167969 151.554688 C 147.4375 151.242188 145.035156 150.851562 142.414062 149.976562 C 142.867188 151.355469 143.320312 152.730469 143.773438 154.105469 C 144.023438 154.871094 144.277344 155.636719 144.535156 156.425781 C 144.980469 157.796875 145.53125 159.105469 146.191406 160.355469 C 147.652344 160.671875 149.269531 160.894531 151.039062 161.027344 C 152.03125 161.132812 153.023438 161.238281 154.046875 161.34375 C 156.144531 161.550781 158.238281 161.75 160.335938 161.941406 C 167.152344 162.671875 171.308594 163.46875 176.039062 168.648438 C 180.585938 176 176.742188 190.367188 175.820312 198.78125 C 175.558594 201.175781 175.308594 203.570312 175.0625 205.964844 C 174.898438 207.515625 174.730469 209.066406 174.566406 210.617188 C 174.492188 211.320312 174.417969 212.027344 174.34375 212.746094 C 173.792969 217.703125 172.835938 222.5 171.667969 227.351562 C 174.105469 227.835938 176.539062 228.320312 178.980469 228.765625 C 180.394531 229.082031 181.417969 229.550781 182.046875 230.179688 C 182.324219 231.597656 182.324219 233.167969 182.046875 234.898438 C 179.570312 237.695312 177.992188 239.386719 174.25 239.921875 C 172.765625 239.996094 171.320312 240.007812 169.921875 239.96875 C 168.359375 240.257812 167.152344 241.339844 166.304688 243.21875 C 163.75 246.730469 161.210938 248.019531 157.3125 249.597656 C 156.65625 249.878906 156.003906 250.160156 155.332031 250.449219 C 153.253906 251.335938 151.167969 252.199219 149.082031 253.0625 C 147.683594 253.65625 146.285156 254.25 144.890625 254.847656 C 141.242188 256.398438 137.589844 257.925781 133.925781 259.433594 C 133.066406 259.792969 132.203125 260.15625 131.3125 260.53125 C 128.492188 261.585938 126.53125 261.765625 123.546875 261.320312 C 121.058594 259.355469 119.9375 257.839844 119.511719 254.652344 C 119.472656 252.136719 119.597656 249.675781 119.773438 247.167969 C 119.847656 245.996094 119.921875 244.824219 119.996094 243.617188 C 120.214844 240.394531 120.457031 237.175781 120.714844 233.957031 C 120.074219 234.363281 119.433594 234.769531 118.769531 235.1875 C 115.726562 236.941406 112.597656 238.367188 109.371094 239.746094 C 108.746094 240.015625 108.117188 240.285156 107.472656 240.558594 C 106.152344 241.121094 104.832031 241.683594 103.507812 242.242188 C 101.5 243.09375 99.496094 243.960938 97.496094 244.832031 C 96.207031 245.378906 94.914062 245.925781 93.625 246.46875 C 93.035156 246.730469 92.441406 246.988281 91.832031 247.253906 C 87.800781 248.929688 84.488281 249.386719 80.140625 249.054688 C 78.960938 248.34375 78.019531 247.402344 77.3125 246.222656 C 76.394531 242.167969 76.40625 238.933594 77.101562 234.847656 C 77.273438 233.800781 77.445312 232.753906 77.625 231.679688 C 77.8125 230.601562 78.003906 229.523438 78.195312 228.414062 C 78.378906 227.3125 78.566406 226.214844 78.753906 225.082031 C 79.210938 222.375 79.671875 219.675781 80.144531 216.972656 C 79.625 217.425781 79.101562 217.886719 78.570312 218.347656 C 75.953125 220.074219 74.4375 220.238281 71.324219 220.40625 C 70.234375 220.46875 69.136719 220.527344 68.027344 220.589844 C 66.71875 220.644531 65.410156 220.695312 64.101562 220.746094 C 63.335938 220.777344 62.574219 220.808594 61.785156 220.84375 C 56.441406 221.066406 51.097656 221.234375 45.75 221.375 C 43.859375 221.429688 41.964844 221.488281 40.074219 221.550781 C 37.3125 221.648438 34.550781 221.722656 31.789062 221.792969 C 30.945312 221.824219 30.097656 221.859375 29.242188 221.890625 C 24.425781 221.988281 21.019531 221.699219 16.921875 218.859375 C 15.167969 216.101562 14.832031 214.328125 15.28125 211.117188 C 15.386719 210.371094 15.488281 209.625 15.597656 208.859375 C 16.1875 205.347656 16.902344 201.875 17.6875 198.398438 C 17.851562 197.660156 18.015625 196.925781 18.1875 196.164062 C 18.527344 194.625 18.875 193.082031 19.222656 191.542969 C 19.753906 189.179688 20.28125 186.816406 20.808594 184.449219 C 21.144531 182.949219 21.480469 181.445312 21.816406 179.941406 C 21.972656 179.234375 22.132812 178.523438 22.292969 177.800781 C 23.042969 174.496094 23.769531 172.140625 24.46875 170.738281 C 23.300781 170.816406 22.132812 170.894531 20.929688 170.972656 C 18.105469 171.164062 17.214844 170.980469 14.988281 169.148438 C 12.863281 166.625 12.429688 165.074219 11.867188 161.847656 C 11.679688 160.824219 11.496094 159.800781 11.304688 158.746094 C 11.121094 157.640625 10.9375 156.539062 10.746094 155.398438 C 10.546875 154.257812 10.339844 153.101562 10.136719 151.9375 C 9.710938 149.515625 9.292969 147.09375 8.882812 144.671875 C 8.257812 140.988281 7.613281 137.3125 6.964844 133.632812 C 6.554688 131.277344 6.144531 128.917969 5.734375 126.5625 C 5.546875 125.472656 5.355469 124.382812 5.160156 123.257812 C 3.488281 113.371094 2.691406 106.863281 2.769531 103.734375 C 3.390625 103.113281 4.015625 102.488281 4.65625 101.847656 C 6.226562 101.964844 7.800781 102.28125 9.375 102.792969 C 11.191406 105.519531 11.652344 106.816406 12.222656 109.9375 C 12.386719 110.808594 12.550781 111.683594 12.71875 112.582031 C 12.890625 113.527344 13.0625 114.46875 13.234375 115.441406 C 13.417969 116.417969 13.597656 117.394531 13.785156 118.402344 C 14.363281 121.53125 14.933594 124.664062 15.507812 127.796875 C 15.890625 129.878906 16.273438 131.960938 16.660156 134.039062 C 18.335938 143.121094 19.988281 152.207031 21.640625 161.292969 L 31.074219 161.292969 C 30.042969 160.925781 29.011719 160.554688 27.949219 160.171875 C 24.390625 158.898438 23.320312 157.089844 21.640625 153.746094 C 21.121094 151.257812 20.730469 148.894531 20.429688 146.382812 C 20.335938 145.671875 20.242188 144.960938 20.144531 144.226562 C 19.847656 141.957031 19.5625 139.683594 19.28125 137.410156 C 18.902344 134.441406 18.519531 131.480469 18.128906 128.515625 C 18.035156 127.785156 17.941406 127.058594 17.84375 126.304688 C 17.015625 120.117188 15.910156 114.003906 14.707031 107.878906 C 12.457031 96.210938 12.902344 85.007812 19.308594 74.585938 C 21.828125 70.976562 24.507812 67.507812 27.300781 64.105469 C 34.898438 65.492188 40.789062 72.402344 45.320312 78.238281 C 47.828125 82.222656 49.589844 86.453125 51.179688 90.882812 C 53.078125 95.824219 55.566406 98.527344 60.328125 100.90625 C 62.667969 101.65625 65.066406 102.203125 67.523438 102.554688 C 68.167969 102.664062 68.816406 102.773438 69.484375 102.886719 C 75.527344 103.859375 81.582031 104.332031 87.691406 104.679688 C 87.378906 108.105469 87.070312 111.53125 86.746094 115.058594 C 84.878906 115.371094 83.011719 115.679688 81.085938 116 C 80.152344 113.824219 79.21875 111.644531 78.253906 109.398438 C 78.566406 110.332031 78.878906 111.265625 79.199219 112.226562 L 79.199219 118.832031 C 73.90625 120.078125 68.613281 121.324219 63.160156 122.605469 C 65.339844 123.851562 67.519531 125.097656 69.761719 126.382812 L 69.761719 128.269531 C 70.515625 128.351562 71.273438 128.433594 72.039062 128.515625 C 80.78125 129.535156 89.496094 130.769531 98.199219 132.097656 C 99.523438 132.296875 100.855469 132.492188 102.183594 132.679688 C 104.082031 132.953125 105.980469 133.242188 107.875 133.539062 C 108.984375 133.707031 110.09375 133.871094 111.238281 134.042969 C 114.546875 135 115.796875 135.9375 117.886719 138.648438 C 119.441406 142.03125 120.171875 145.160156 120.679688 148.839844 C 120.832031 149.917969 120.980469 150.992188 121.136719 152.101562 C 121.292969 153.253906 121.445312 154.40625 121.609375 155.59375 C 121.773438 156.78125 121.9375 157.964844 122.109375 159.191406 C 122.542969 162.332031 122.972656 165.476562 123.402344 168.621094 C 123.839844 171.835938 124.285156 175.050781 124.730469 178.261719 C 125.601562 184.558594 126.460938 190.851562 127.320312 197.152344 C 130.433594 195.90625 133.546875 194.660156 136.757812 193.375 C 135.707031 193.296875 134.65625 193.222656 133.570312 193.140625 C 131.292969 192.667969 129.78125 191.886719 129.042969 190.792969 C 128.207031 188.5 127.800781 186.425781 127.488281 184.003906 C 127.367188 183.082031 127.242188 182.15625 127.117188 181.207031 C 126.992188 180.214844 126.863281 179.222656 126.734375 178.203125 C 126.453125 176.09375 126.171875 173.988281 125.890625 171.878906 C 125.453125 168.5625 125.023438 165.246094 124.59375 161.929688 C 124.175781 158.722656 123.746094 155.515625 123.316406 152.3125 C 123.191406 151.328125 123.066406 150.339844 122.941406 149.324219 C 122.226562 144.054688 121.378906 139.574219 118.828125 134.875 C 115.632812 132.742188 113.507812 132.398438 109.738281 131.769531 C 108.511719 131.5625 107.285156 131.359375 106.023438 131.144531 C 104.726562 130.933594 103.433594 130.722656 102.140625 130.511719 C 100.832031 130.292969 99.527344 130.074219 98.222656 129.855469 C 95.027344 129.320312 91.832031 128.792969 88.636719 128.269531 C 88.5625 121.4375 88.5625 114.714844 89.34375 107.925781 C 89.402344 107.289062 89.460938 106.65625 89.519531 106.003906 C 89.863281 103.125 90.359375 101.136719 92.042969 98.757812 C 95.488281 96.273438 99.308594 95.03125 103.273438 93.628906 C 106.191406 92.546875 108.253906 91.671875 110.441406 89.421875 C 111.628906 88.269531 113.105469 87.574219 114.863281 87.328125 C 115.785156 87.371094 116.703125 87.414062 117.652344 87.460938 C 118.582031 87.492188 119.511719 87.527344 120.46875 87.5625 C 121.171875 87.605469 121.878906 87.648438 122.605469 87.695312 C 120.113281 87.382812 117.621094 87.074219 115.054688 86.75 C 112.40625 79.371094 110.441406 72.816406 112.226562 65.050781 C 116.765625 56.136719 125.90625 54.183594 134.871094 57.855469 Z M 250.929688 61.273438 C 254.601562 63.175781 257.390625 65.1875 259.421875 68.824219 C 261.15625 75.285156 261.65625 83.003906 258.535156 89.050781 C 258.199219 89.613281 257.859375 90.179688 257.507812 90.757812 C 256.738281 92.035156 256.117188 93.847656 255.648438 96.1875 L 237.71875 96.1875 C 232.410156 87.410156 230.808594 80.871094 233 70.710938 C 236.695312 63.257812 242.597656 59.621094 250.929688 61.273438 Z M 358.496094 83.921875 C 358.632812 84.972656 358.769531 86.023438 358.910156 87.105469 C 359.128906 89.273438 359.621094 91.042969 360.386719 92.414062 C 354.4375 93.558594 350.84375 93.140625 345.347656 90.703125 C 344.714844 90.445312 344.082031 90.1875 343.429688 89.917969 C 340.359375 88.625 338.460938 87.253906 337.738281 85.808594 C 339.960938 85.488281 342.179688 85.175781 344.402344 84.863281 C 345.023438 84.773438 345.644531 84.683594 346.28125 84.59375 C 350.382812 84.027344 354.359375 83.835938 358.496094 83.921875 Z M 308.488281 94.300781 L 310.375 94.300781 C 311.214844 95.21875 312.097656 96.28125 313.027344 97.484375 C 315.355469 100.3125 317.121094 101.832031 320.753906 102.792969 L 320.753906 96.1875 C 321.6875 95.875 322.625 95.5625 323.585938 95.242188 C 326.070312 102.730469 327.015625 107.765625 326.417969 110.339844 C 324.394531 112.238281 322.207031 113.675781 319.8125 115.058594 C 314.640625 112.773438 311.410156 108.824219 309.078125 103.734375 C 308.410156 100.523438 308.355469 97.570312 308.488281 94.300781 Z M 179.21875 95.242188 L 181.105469 95.242188 C 182.601562 99.882812 181.648438 103.941406 180.160156 108.453125 C 178.542969 111.421875 177.183594 113.472656 174.558594 115.589844 C 173.261719 115.863281 171.808594 115.609375 170.195312 114.824219 C 169.4375 114.277344 168.675781 113.734375 167.894531 113.171875 L 165.0625 111.285156 C 165.195312 109.632812 165.335938 107.980469 165.476562 106.332031 C 165.554688 105.410156 165.628906 104.492188 165.707031 103.542969 C 165.960938 101.316406 166.339844 99.28125 166.949219 97.128906 L 169.78125 97.128906 L 169.78125 103.734375 C 174.265625 102.582031 175.820312 100.367188 178.167969 96.621094 C 178.511719 96.167969 178.859375 95.710938 179.21875 95.242188 Z M 179.21875 95.242188 " fill-opacity="1" fill-rule="nonzero"/></g></svg>