<svg xmlns="http://www.w3.org/2000/svg" xmlns:xlink="http://www.w3.org/1999/xlink" width="640" zoomAndPan="magnify" viewBox="0 0 480 269.999989" height="360" preserveAspectRatio="xMidYMid meet" version="1.0"><defs><clipPath id="7836736876"><path d="M 262 33 L 350.699219 33 L 350.699219 238.632812 L 262 238.632812 Z M 262 33 " clip-rule="nonzero"/></clipPath><clipPath id="1028c1a73a"><path d="M 143 91 L 222 91 L 222 238.632812 L 143 238.632812 Z M 143 91 " clip-rule="nonzero"/></clipPath></defs><g clip-path="url(#7836736876)"><path fill="#094e49" d="M 350.132812 72.824219 C 349.300781 68.640625 346.738281 64.902344 342.09375 64.230469 C 336.933594 63.480469 336.757812 66.222656 337.382812 61.378906 C 339.28125 48.421875 331.183594 33.925781 317.078125 33.480469 C 315.484375 33.355469 313.894531 33.382812 312.308594 33.558594 C 310.722656 33.738281 309.167969 34.0625 307.640625 34.539062 C 306.117188 35.011719 304.652344 35.628906 303.246094 36.382812 C 301.835938 37.136719 300.511719 38.015625 299.273438 39.023438 C 298.714844 39.5 298.070312 39.753906 297.339844 39.789062 C 293.171875 40.066406 289.726562 41.820312 287.242188 45.199219 C 284.21875 48.824219 285.292969 54.277344 288.96875 57.03125 C 289.246094 57.25 289.375 57.183594 289.296875 56.804688 C 288.65625 54.070312 288.613281 51.246094 289.613281 48.601562 C 289.648438 48.476562 289.824219 48.390625 289.9375 48.285156 C 288.980469 51.054688 289.421875 54.492188 289.628906 55.894531 L 289.628906 55.902344 C 290.042969 59.199219 291.125 62.5 289.328125 65.527344 C 288.332031 67.023438 287.257812 68.464844 286.109375 69.84375 C 283.742188 73.109375 290.246094 72.542969 288.855469 75.378906 C 288.625 76.011719 288.636719 76.535156 289.183594 76.941406 C 290.355469 77.664062 288.578125 79.238281 290.15625 80.238281 C 291.507812 81.183594 290.660156 82.800781 290.847656 84.144531 C 291.675781 89.5625 299.605469 85.285156 303.015625 85.121094 C 306.949219 84.898438 307.035156 92.785156 307.078125 95.65625 C 307.191406 97.285156 306.925781 98.851562 306.289062 100.359375 C 310.886719 97.128906 315.433594 93.652344 320.367188 90.847656 C 322.867188 89.578125 314.226562 96.265625 313.757812 97.058594 C 306.039062 105.035156 298.863281 113.621094 292.933594 123.03125 C 290.203125 127.179688 287.816406 131.515625 285.765625 136.039062 C 288.09375 126.28125 293.570312 117.808594 299.734375 110.042969 C 300.097656 109.589844 300.464844 108.890625 300.914062 108.8125 C 301.835938 108.664062 301.609375 108.152344 301.539062 107.632812 C 300.308594 102.851562 302.742188 103.300781 305.015625 99.761719 C 305.042969 99.683594 305.027344 99.613281 304.972656 99.550781 C 304.894531 99.503906 304.816406 99.496094 304.734375 99.527344 C 301.4375 101.648438 299.769531 103.242188 297.992188 106.8125 C 292.164062 115.132812 286.574219 123.632812 282.136719 132.796875 C 276.914062 142.5 282.613281 153.273438 286.207031 162.542969 C 287.273438 165.023438 287.695312 167.609375 287.480469 170.300781 C 287.335938 172.515625 287.402344 172.574219 285.3125 173.464844 C 277.828125 176.625 270.355469 179.828125 262.75 182.691406 C 262.289062 182.871094 262.191406 183.070312 262.386719 183.488281 C 264.808594 188.925781 266.613281 194.5625 267.796875 200.398438 C 267.976562 201.203125 268 201.230469 268.839844 200.894531 C 274.105469 198.8125 279.320312 196.609375 284.535156 194.402344 C 286.199219 193.460938 284.824219 196.875 284.855469 197.714844 C 284.386719 200.636719 283.921875 203.558594 283.460938 206.480469 C 282.996094 209.402344 282.566406 212.328125 282.035156 215.234375 C 281.90625 215.9375 282.125 216.253906 282.683594 216.460938 C 284.652344 217.203125 286.621094 217.960938 288.613281 218.648438 C 289.636719 219 289.65625 218.941406 289.683594 219.988281 C 289.84375 226.050781 289.964844 232.117188 290.097656 238.175781 L 333.703125 238.175781 C 333.933594 236.039062 334.3125 233.929688 334.84375 231.84375 C 335.054688 231.011719 335.234375 230.199219 335.390625 229.40625 C 335.566406 228.496094 335.710938 227.617188 335.835938 226.777344 C 336.042969 225.386719 336.191406 224.113281 336.339844 223.011719 C 336.402344 222.074219 336.46875 221.136719 336.492188 220.195312 C 336.617188 218.042969 336.476562 218.460938 338.386719 218.378906 C 339.539062 218.332031 339.5625 218.324219 339.359375 217.25 C 337.882812 211.128906 335.957031 205.152344 333.585938 199.324219 C 332.25 195.988281 330.875 192.667969 329.488281 189.355469 C 328.996094 188.222656 328.824219 187.039062 328.96875 185.8125 C 330.015625 175.710938 330.359375 165.546875 331.589844 155.464844 C 333.675781 130.976562 342.203125 122.785156 330.308594 98.109375 C 328.667969 95.046875 331.851562 95.890625 331.347656 94.289062 C 330.246094 91.585938 329.136719 88.886719 328.066406 86.171875 C 327.824219 85.53125 327.511719 85.351562 326.859375 85.585938 C 326.203125 85.675781 324.0625 86.792969 324.039062 85.714844 C 323.203125 78.300781 324.125 83.261719 329.550781 78.117188 C 329.96875 80.75 330.207031 83.421875 331.601562 85.789062 C 333.386719 88.8125 336.964844 90.246094 340.378906 89.9375 C 344.40625 89.574219 347.191406 86.957031 348.785156 83.371094 C 348.785156 82.765625 349.410156 81.785156 349.597656 81.179688 C 349.839844 80.386719 350.035156 79.585938 350.183594 78.769531 C 350.539062 76.785156 350.519531 74.800781 350.132812 72.824219 Z M 350.132812 72.824219 " fill-opacity="1" fill-rule="nonzero"/></g><g clip-path="url(#1028c1a73a)"><path fill="#094e49" d="M 221.421875 179.988281 C 221.261719 179.714844 220.535156 179.777344 220.0625 179.683594 C 213.304688 178.527344 206.523438 177.527344 199.757812 176.417969 C 198.105469 176.140625 198.117188 176.089844 197.835938 174.359375 C 196.441406 169.835938 198.242188 165.28125 199.882812 161.074219 C 203.847656 150.714844 206.921875 143.117188 200.078125 133.003906 C 194.054688 123.324219 187.410156 114.003906 181.855469 104.039062 C 180.398438 102.125 181.203125 104.253906 181.078125 105.117188 C 180.976562 107.320312 180.859375 109.519531 180.75 111.722656 C 180.761719 111.839844 180.789062 111.957031 180.828125 112.070312 C 180.917969 111.984375 181.058594 111.917969 181.082031 111.816406 C 181.300781 111.023438 181.585938 111.273438 181.933594 111.730469 C 186.535156 117.445312 190.410156 123.691406 193.960938 130.101562 C 197.226562 135.695312 199.46875 142.128906 199.328125 148.632812 C 195.886719 133.464844 185.203125 121.308594 175.691406 109.476562 C 169.953125 102.621094 163.601562 96.179688 155.644531 91.925781 C 154.800781 91.421875 154.6875 91.53125 154.375 92.378906 C 153.050781 95.960938 151.734375 99.539062 150.425781 103.121094 C 150.117188 104.171875 151.300781 103.136719 151.8125 103.113281 C 152.5 103.023438 151.964844 103.710938 151.75 103.976562 C 149.695312 106.707031 147.746094 109.523438 145.546875 112.132812 C 144.273438 113.675781 143.621094 115.449219 143.589844 117.449219 C 142.011719 138.503906 154.179688 157.140625 159.066406 177.027344 C 160.648438 184.054688 154.824219 190.746094 152.4375 197.085938 C 149.6875 202.910156 147.414062 208.914062 145.617188 215.097656 C 145.160156 216.546875 145.375 216.777344 146.816406 216.621094 C 147.164062 216.59375 147.324219 216.707031 147.316406 217.050781 C 147.296875 218.089844 147.160156 219.132812 147.125 220.171875 C 147.089844 221.234375 147.085938 222.292969 147.113281 223.355469 C 147.167969 225.472656 147.355469 227.578125 147.667969 229.675781 C 147.84375 230.824219 148.070312 231.96875 148.328125 233.101562 C 148.644531 234.207031 148.90625 235.324219 149.109375 236.457031 C 149.1875 237.03125 149.199219 237.605469 149.140625 238.179688 L 201.71875 238.179688 C 201.671875 238.054688 201.640625 237.925781 201.628906 237.789062 C 201.125 233.78125 199.9375 230.007812 197.519531 226.699219 C 197.257812 226.328125 197.117188 225.917969 197.09375 225.464844 C 197.050781 222.988281 197.085938 220.511719 197.027344 218.035156 C 197.011719 217.304688 197.292969 217.03125 197.960938 216.867188 C 199.390625 216.527344 200.796875 216.054688 202.234375 215.734375 C 202.972656 215.574219 203.046875 215.207031 202.933594 214.589844 C 201.996094 208.710938 200.953125 202.847656 200.050781 196.960938 C 198.988281 195.179688 213.585938 199.25 214.519531 199.441406 C 215.546875 199.714844 215.542969 199.796875 216.144531 198.933594 C 217.769531 196.53125 218.964844 193.929688 219.738281 191.136719 C 220.621094 187.574219 222.132812 183.664062 221.421875 179.988281 Z M 221.421875 179.988281 " fill-opacity="1" fill-rule="nonzero"/></g><path fill="#094e49" d="M 147.136719 76.199219 C 148.574219 78.40625 150.46875 80.109375 152.816406 81.308594 C 155.480469 82.480469 158.042969 83.230469 159.148438 81.847656 C 159.320312 82.714844 159.359375 91.410156 157.988281 90.507812 C 154.441406 89.507812 162.019531 93.359375 162.527344 93.808594 C 165.675781 95.730469 168.84375 97.605469 171.917969 99.640625 C 174.234375 101.179688 176.414062 102.929688 178.65625 104.585938 C 178.796875 104.675781 178.9375 104.75 179.089844 104.816406 C 179.085938 104.65625 179.054688 104.496094 179.003906 104.34375 C 178.175781 102.390625 176.539062 100.664062 176.507812 98.460938 C 176.515625 95.011719 176.476562 91.496094 177.644531 88.195312 C 178.875 84.207031 183.203125 86.929688 186.003906 87.191406 C 189.828125 88.070312 192.984375 87.523438 192.261719 82.839844 C 191.722656 80.617188 194.28125 81.046875 193.550781 78.675781 C 193.566406 77.265625 195.144531 77.695312 194.226562 75.890625 C 193.5625 74.542969 194.957031 74.039062 195.972656 73.59375 C 197.90625 72.597656 198.050781 72.066406 196.878906 70.277344 C 196.019531 68.960938 195.128906 67.660156 194.296875 66.328125 C 192.246094 63.539062 193.742188 60.40625 194.058594 57.339844 C 194.191406 54.40625 193.96875 51.503906 193.386719 48.625 C 193.011719 47.246094 194.097656 46.121094 194.242188 44.769531 C 194.511719 43.308594 194.261719 42.175781 193.652344 41.339844 L 193.652344 41.335938 C 191.390625 36.992188 186.75 37.726562 184.535156 38.484375 C 184.476562 38.503906 184.421875 38.523438 184.367188 38.546875 C 183.035156 39.09375 183.039062 40.972656 181.605469 39.273438 C 173.476562 33.023438 159.585938 31.820312 153.28125 41.125 C 153.175781 41.277344 152.09375 43.050781 151.667969 43.378906 C 151.265625 43.445312 151.238281 43.089844 151.144531 42.828125 C 150.214844 39.976562 147.109375 38.761719 144.3125 38.910156 C 140.023438 38.949219 136.84375 41.195312 135.453125 45.242188 C 135.316406 45.78125 134.992188 46.15625 134.480469 46.371094 C 134.089844 46.574219 133.742188 46.839844 133.441406 47.160156 C 133.140625 47.480469 132.902344 47.84375 132.722656 48.246094 C 132.542969 48.648438 132.4375 49.070312 132.402344 49.507812 C 132.363281 49.949219 132.402344 50.382812 132.515625 50.808594 C 132.652344 51.480469 132.523438 52.097656 132.128906 52.65625 C 129.449219 56.742188 130.839844 63.789062 136.230469 64.558594 C 139.738281 65.984375 140.179688 67.046875 144.289062 65.582031 C 144.539062 69.300781 144.902344 73.082031 147.136719 76.199219 Z M 159.035156 43.816406 C 157.535156 44.085938 156.023438 44.8125 154.523438 44.800781 C 155.160156 44.195312 157.699219 43.203125 158.792969 43.457031 C 159.527344 43.679688 159.683594 43.65625 159.035156 43.816406 Z M 151.042969 46.042969 C 151.144531 45.671875 151.269531 45.308594 151.421875 44.953125 C 151.554688 44.640625 151.707031 44.332031 151.878906 44.035156 C 152.441406 43.105469 153.058594 42.214844 153.726562 41.359375 C 156.980469 36.957031 162.664062 35.457031 167.90625 35.964844 C 168.621094 36.011719 169.332031 36.117188 170.03125 36.273438 C 170.425781 36.375 170.339844 36.542969 169.992188 36.558594 C 163.222656 36.359375 157.082031 38.589844 152.632812 43.828125 C 152.183594 44.382812 152.808594 44.226562 153.066406 43.847656 C 155.640625 40.871094 159.367188 39.886719 163.0625 39.609375 C 164.449219 40.011719 158.65625 41.277344 158.054688 41.734375 C 155.316406 42.785156 152.992188 44.425781 151.085938 46.65625 C 151.007812 46.742188 150.921875 46.824219 150.832031 46.894531 C 150.941406 46.816406 151 46.1875 151.042969 46.042969 Z M 145.246094 65.179688 C 146.019531 70.582031 147.992188 75.890625 152.058594 79.667969 C 147.472656 77.632812 144.453125 69.800781 145.246094 65.179688 Z M 134.5 63.015625 C 133.246094 62.066406 132.453125 60.816406 132.125 59.277344 C 131.828125 57.460938 132.089844 55.726562 132.90625 54.078125 C 132.957031 54.160156 132.988281 54.25 132.992188 54.347656 C 132.359375 57.417969 133.140625 60.191406 134.753906 62.792969 C 134.882812 63.085938 134.773438 63.203125 134.5 63.015625 Z M 136.023438 46.625 C 135.964844 43.710938 139.160156 41.132812 141.753906 41.757812 C 139.054688 42.515625 137.546875 44.492188 136.023438 46.625 Z M 136.023438 46.625 " fill-opacity="1" fill-rule="nonzero"/><path fill="#094e49" d="M 259.664062 185.105469 C 258.707031 185.847656 257.234375 185.59375 256.101562 185.980469 C 253.335938 186.410156 250.464844 183.34375 247.984375 182.214844 C 245.429688 180.964844 242.371094 182.355469 239.660156 182.488281 C 238.519531 182.679688 237.273438 182.90625 236.507812 183.867188 C 235.398438 185.457031 233.933594 185.074219 232.328125 184.710938 C 229.574219 184.121094 226.816406 183.542969 224.070312 182.910156 C 223.546875 182.789062 223.347656 182.820312 223.269531 183.382812 C 222.882812 186.273438 222.265625 189.113281 221.417969 191.902344 C 221.132812 192.84375 221.152344 192.839844 222.1875 193.042969 C 224.339844 193.464844 226.46875 193.925781 227.847656 195.773438 C 227.941406 196.015625 227.964844 196.265625 227.917969 196.519531 C 227.871094 196.773438 227.765625 196.996094 227.59375 197.191406 C 227.371094 197.402344 227.234375 197.660156 227.179688 197.960938 C 227.128906 198.265625 227.171875 198.554688 227.3125 198.828125 C 227.785156 199.875 228.8125 199.777344 229.757812 199.574219 C 230.222656 199.46875 231.007812 199.640625 230.835938 200.597656 C 230.835938 200.605469 230.835938 200.609375 230.835938 200.617188 C 230.660156 202.171875 231.6875 203.230469 233.296875 203 C 235.109375 202.597656 232.589844 206.375 236.347656 205.644531 C 236.863281 205.417969 237.207031 205.378906 237.578125 205.902344 C 239.125 208.042969 241.054688 205.132812 242.703125 205.878906 C 244.488281 206.984375 246.136719 205.257812 247.761719 204.574219 C 248.183594 204.339844 248.570312 204.226562 248.992188 204.585938 C 249.902344 205.222656 250.707031 204.597656 251.253906 203.835938 C 252.152344 202.582031 251.859375 202.953125 253.332031 202.710938 C 254.109375 202.585938 254.332031 202.21875 254.667969 201.511719 C 254.894531 201.035156 255.941406 201.28125 256.554688 201.460938 C 257.988281 201.359375 258.691406 200.5625 258.398438 199.191406 C 258.40625 198.273438 256.777344 197.015625 258 196.414062 C 261.234375 194.484375 262.25 193.835938 265.265625 196.542969 C 264.121094 192.609375 262.359375 188.832031 260.589844 185.128906 C 260.203125 184.339844 260.152344 184.394531 259.664062 185.105469 Z M 259.664062 185.105469 " fill-opacity="1" fill-rule="nonzero"/></svg>