<svg xmlns="http://www.w3.org/2000/svg" xmlns:xlink="http://www.w3.org/1999/xlink" width="640" zoomAndPan="magnify" viewBox="0 0 480 269.999989" height="360" preserveAspectRatio="xMidYMid meet" version="1.0"><defs><clipPath id="301ad0678f"><path d="M 134 98 L 346.761719 98 L 346.761719 270 L 134 270 Z M 134 98 " clip-rule="nonzero"/></clipPath><clipPath id="1e003f1fbe"><path d="M 295 6.347656 L 382 6.347656 L 382 115 L 295 115 Z M 295 6.347656 " clip-rule="nonzero"/></clipPath><clipPath id="c57ec2ffd7"><path d="M 353 32 L 392.714844 32 L 392.714844 87 L 353 87 Z M 353 32 " clip-rule="nonzero"/></clipPath></defs><path fill="#094e49" d="M 258.441406 50.339844 C 258.320312 50.644531 258.273438 50.957031 258.304688 51.285156 C 258.449219 52.824219 258.230469 54.308594 257.640625 55.738281 C 257.523438 56.03125 257.535156 56.371094 257.46875 56.6875 C 257.054688 58.609375 257.609375 60.535156 257.46875 62.460938 C 257.46875 66.226562 256.664062 66.417969 255.042969 69.488281 C 253.605469 72.214844 253.65625 75.507812 252.527344 78.351562 C 251.40625 81.148438 249.160156 83.359375 247.898438 86.09375 C 246.246094 89.675781 246.40625 93.835938 245.113281 97.558594 C 243.464844 102.308594 239.636719 105.914062 235.941406 109.324219 C 235.121094 110.078125 234.257812 110.859375 233.183594 111.164062 C 230.625 111.890625 225.761719 107.382812 223.605469 106.109375 C 219.878906 103.914062 216.121094 101.773438 212.285156 99.761719 C 208.542969 97.804688 205.113281 95.453125 202.335938 92.238281 C 200.460938 90.066406 198.8125 87.835938 198.742188 84.71875 C 198.675781 81.425781 197.359375 78.363281 196.519531 75.214844 C 196.199219 74.015625 195.898438 72.8125 195.550781 71.621094 C 195.410156 71.152344 195.304688 70.890625 195.125 70.769531 C 194.746094 70.867188 194.367188 70.882812 193.980469 70.8125 C 192.769531 71.0625 191.808594 70.636719 191.023438 69.703125 C 190.84375 69.496094 190.683594 69.273438 190.539062 69.042969 C 188.652344 67.40625 188.398438 60.636719 187.472656 57.398438 C 187.414062 57.230469 187.363281 57.066406 187.316406 56.898438 C 186.253906 53.914062 186.539062 50.75 185.945312 48.265625 C 185.765625 47.59375 185.769531 46.921875 185.957031 46.253906 C 185.988281 45.820312 186.191406 45.492188 186.558594 45.265625 C 186.710938 45.167969 186.878906 45.105469 187.058594 45.078125 C 187.601562 44.957031 188.289062 45.183594 189.050781 45.917969 C 189.480469 46.136719 189.773438 45.925781 189.742188 45.4375 C 189.695312 44.972656 189.546875 44.542969 189.292969 44.148438 C 189.007812 43.667969 188.8125 43.15625 188.703125 42.613281 C 185.847656 29.011719 190.046875 14.027344 202.183594 6.398438 C 210.347656 1.273438 220.617188 0.0078125 230.054688 1.964844 C 237.472656 3.507812 244.582031 7.039062 249.757812 12.578125 C 256.582031 19.878906 258.699219 30.203125 257.492188 39.941406 C 257.410156 40.574219 257.460938 41.226562 257.445312 41.871094 C 257.433594 42.457031 257.558594 42.945312 258.171875 43.21875 C 259.296875 43.714844 259.476562 44.664062 259.328125 45.753906 C 259.117188 47.296875 259.070312 48.871094 258.441406 50.339844 Z M 258.441406 50.339844 " fill-opacity="1" fill-rule="nonzero"/><g clip-path="url(#301ad0678f)"><path fill="#094e49" d="M 142.949219 128.097656 C 147.917969 126.074219 153.546875 125.238281 169.253906 117.976562 C 184.957031 110.71875 188.453125 104.796875 190.058594 101.101562 C 190.246094 100.328125 190.574219 99.691406 191.074219 99.214844 C 192.078125 97.808594 192.679688 98.382812 192.679688 98.382812 C 193.703125 98.144531 194.003906 98.261719 194.253906 99.324219 C 194.691406 101.210938 195.640625 102.804688 196.8125 104.316406 C 201.339844 110.171875 206.011719 115.910156 210.644531 121.683594 C 213.40625 125.125 216.296875 128.476562 218.898438 132.035156 C 224.828125 140.1875 230.210938 148.691406 235.046875 157.539062 C 238.035156 162.984375 240.785156 168.542969 242.753906 174.457031 C 242.832031 174.679688 242.789062 175.035156 243.246094 175.085938 C 243.28125 174.636719 243.324219 174.195312 243.34375 173.746094 C 243.464844 171.019531 243.105469 168.34375 242.617188 165.664062 C 241.976562 162.175781 240.90625 158.796875 240.011719 155.375 C 237.871094 147.1875 236.367188 138.859375 234.496094 130.613281 C 233.753906 127.335938 232.964844 124.078125 231.511719 121.023438 C 230.992188 119.933594 230.636719 118.796875 230.441406 117.609375 C 230.359375 117.089844 230.136719 116.425781 230.71875 116.097656 C 231.160156 115.851562 231.550781 116.339844 231.929688 116.566406 C 234.296875 117.988281 236.839844 118.574219 239.589844 118.277344 C 240.230469 118.207031 240.875 118.183594 241.515625 118.160156 C 241.753906 118.140625 241.976562 118.183594 242.1875 118.296875 C 242.394531 118.40625 242.5625 118.5625 242.679688 118.765625 C 243.683594 120.359375 244.34375 122.066406 244.074219 123.976562 C 243.621094 127.261719 243.304688 130.535156 243.671875 133.863281 C 243.960938 136.464844 244.550781 138.910156 246.085938 141.09375 C 247.671875 143.359375 249.0625 145.738281 250.257812 148.230469 C 253.890625 155.753906 255.722656 163.714844 255.882812 172.070312 C 255.882812 172.410156 255.761719 172.78125 256.082031 173.203125 C 256.554688 172.421875 256.722656 171.640625 256.867188 170.828125 C 257.265625 168.570312 257.023438 166.332031 256.699219 164.105469 C 256.246094 161.015625 255.664062 157.945312 255.171875 154.859375 C 254.328125 149.59375 253.648438 144.304688 252.058594 139.191406 C 250.949219 135.636719 249.9375 132.050781 248.796875 128.507812 C 248.429688 127.355469 248.382812 126.1875 248.660156 125.007812 C 249.386719 121.570312 249.667969 118.097656 249.09375 114.597656 C 248.878906 113.300781 248.636719 112.003906 248.398438 110.648438 C 248.539062 110.710938 248.597656 110.71875 248.613281 110.746094 C 248.6875 110.863281 248.738281 110.988281 248.765625 111.125 C 248.828125 112.285156 249.5 112.789062 250.582031 113.015625 C 251.941406 113.273438 253.273438 113.621094 254.585938 114.054688 C 259.277344 115.679688 264.03125 117.09375 268.847656 118.289062 C 271.09375 118.851562 273.316406 119.496094 275.539062 120.136719 C 290.53125 123.953125 295.070312 123.300781 298.789062 139.058594 C 302.445312 143.5625 309.023438 160.976562 318.644531 173.777344 C 319.019531 174.011719 319.363281 174.285156 319.675781 174.59375 C 320.265625 175.175781 320.863281 175.742188 321.46875 176.304688 C 322.367188 177.136719 323.070312 178.089844 323.3125 179.308594 C 335.496094 191.964844 341.164062 190.304688 343.546875 201.378906 C 344.21875 202.722656 344.664062 204.136719 344.886719 205.621094 C 345.136719 207.296875 345.429688 208.964844 345.679688 210.644531 C 346.648438 214.972656 346.976562 217.765625 346.152344 222.464844 C 346.054688 224.960938 345.460938 227.375 344.871094 229.78125 C 344.644531 230.742188 344.308594 231.660156 343.867188 232.542969 C 340.605469 240.039062 331.683594 247.464844 304.179688 244.261719 C 303.4375 244.253906 302.707031 244.183594 301.980469 244.042969 C 295.214844 243.5 294.347656 244.710938 294.347656 244.710938 C 294.648438 246.148438 295.015625 247.574219 295.332031 249.007812 C 296.140625 252.640625 297.050781 256.246094 298.160156 259.804688 C 298.964844 262.390625 299.601562 265.03125 300.175781 267.679688 C 300.589844 269.621094 300.21875 269.96875 298.28125 269.976562 L 170.820312 269.976562 C 170.40625 269.976562 169.988281 269.992188 169.574219 269.960938 C 168.570312 269.886719 168.28125 269.582031 168.347656 268.554688 C 168.417969 267.445312 168.730469 266.382812 168.988281 265.3125 C 169.140625 264.6875 169.363281 264.0625 169.285156 263.414062 C 168.871094 259.886719 169.21875 256.386719 169.578125 252.890625 C 163.886719 244.699219 146.929688 219.761719 142.207031 206.824219 C 136.507812 191.1875 135.585938 160.289062 134.296875 149.066406 C 133.011719 137.84375 137.984375 130.117188 142.949219 128.097656 Z M 142.949219 128.097656 " fill-opacity="1" fill-rule="nonzero"/></g><g clip-path="url(#1e003f1fbe)"><path fill="#094e49" d="M 342.25 56.105469 C 342.25 65.121094 342.242188 74.136719 342.234375 83.152344 C 342.230469 83.792969 342.4375 84.179688 342.972656 84.484375 C 343.972656 85.046875 344.996094 85.570312 345.804688 86.425781 C 347.488281 88.210938 348.515625 90.300781 348.621094 92.757812 C 348.707031 94.792969 347.945312 96.578125 346.601562 98.097656 C 346.253906 98.496094 346.148438 98.878906 346.257812 99.386719 C 346.382812 99.964844 346.3125 100.570312 346.429688 101.160156 C 346.648438 102.265625 347.066406 102.753906 348.144531 102.972656 C 350.273438 103.40625 352.417969 103.753906 354.554688 104.179688 C 355.738281 104.417969 357.011719 104.359375 358.226562 104.097656 C 358.644531 104.003906 358.792969 104.117188 358.78125 104.535156 C 358.773438 104.777344 358.824219 105.023438 358.832031 105.269531 C 358.863281 106.394531 358.734375 106.347656 359.984375 106.347656 C 360.597656 106.347656 361.214844 106.363281 361.832031 106.34375 C 362.3125 106.324219 362.476562 106.515625 362.476562 106.996094 C 362.460938 109.007812 362.472656 111.019531 362.476562 113.03125 C 362.476562 113.300781 362.472656 113.566406 362.488281 113.832031 C 362.542969 114.90625 362.546875 114.910156 361.503906 114.910156 C 346.160156 114.910156 330.820312 114.910156 315.476562 114.910156 C 314.480469 114.910156 314.476562 114.90625 314.480469 113.941406 C 314.5 111.621094 314.53125 109.300781 314.539062 106.980469 C 314.539062 106.484375 314.722656 106.292969 315.234375 106.316406 C 316.011719 106.355469 316.796875 106.289062 317.574219 106.339844 C 318.15625 106.375 318.332031 106.144531 318.3125 105.597656 C 318.296875 105.167969 318.371094 104.738281 318.394531 104.308594 C 318.410156 104.085938 318.480469 103.953125 318.734375 104.007812 C 320.988281 104.507812 323.203125 104.246094 325.429688 103.757812 C 327.105469 103.386719 328.820312 103.167969 330.523438 102.910156 C 331.253906 102.796875 331.632812 102.359375 331.839844 101.703125 C 332.125 100.808594 332.066406 99.875 332.191406 98.960938 C 332.230469 98.683594 332.054688 98.496094 331.867188 98.332031 C 329.40625 96.167969 329.066406 91.84375 330.753906 88.753906 C 331.871094 86.707031 333.585938 85.371094 335.628906 84.40625 C 336.375 84.054688 336.699219 83.621094 336.667969 82.765625 C 336.605469 80.835938 336.648438 78.902344 336.660156 76.972656 C 336.730469 64.980469 336.808594 52.988281 336.730469 40.996094 C 336.703125 36.929688 336.683594 32.863281 336.667969 28.796875 C 336.664062 28.261719 336.496094 28.019531 335.964844 27.949219 C 333.542969 27.621094 331.125 27.316406 328.683594 27.164062 C 325.222656 26.953125 321.761719 26.746094 318.292969 26.710938 C 316.367188 26.695312 314.4375 26.8125 312.511719 26.875 C 310.519531 26.941406 308.546875 27.167969 306.574219 27.464844 C 303.265625 27.964844 300.378906 29.300781 297.972656 31.652344 C 297.683594 31.9375 297.339844 32.175781 296.996094 32.398438 C 296.578125 32.667969 296.167969 32.585938 295.820312 32.25 C 295.476562 31.914062 295.652344 31.570312 295.839844 31.238281 C 296.042969 30.878906 296.304688 30.5625 296.59375 30.269531 C 299.230469 27.597656 302.164062 25.292969 305.316406 23.261719 C 307.753906 21.695312 310.476562 21.082031 313.328125 20.957031 C 316.164062 20.835938 318.984375 21.195312 321.808594 21.324219 C 326.488281 21.539062 331.171875 21.378906 335.855469 21.4375 C 336.207031 21.441406 336.550781 21.378906 336.3125 20.929688 C 335.988281 20.324219 336.246094 19.921875 336.652344 19.515625 C 336.933594 19.230469 337.335938 19.015625 337.359375 18.550781 C 337.40625 17.75 337.429688 16.949219 337.214844 16.164062 C 337.183594 16.046875 337.042969 15.929688 336.921875 15.867188 C 335.511719 15.164062 335.113281 13.847656 334.945312 12.453125 C 334.597656 9.5625 336.441406 7.066406 339.296875 6.613281 C 340.820312 6.371094 342.050781 7.144531 343.058594 8.207031 C 344.503906 9.722656 344.863281 12.375 343.949219 14.261719 C 343.648438 14.882812 343.242188 15.421875 342.582031 15.703125 C 342.148438 15.886719 342.074219 16.261719 342.019531 16.652344 C 341.96875 17.019531 341.949219 17.390625 341.898438 17.753906 C 341.792969 18.535156 341.882812 19.199219 342.671875 19.644531 C 343.195312 19.941406 343.402344 20.425781 343.023438 21 C 342.792969 21.351562 342.910156 21.445312 343.289062 21.441406 C 344.914062 21.433594 346.535156 21.441406 348.15625 21.441406 C 351.199219 21.441406 354.238281 21.460938 357.277344 21.425781 C 358.753906 21.410156 360.226562 21.265625 361.703125 21.226562 C 365.9375 21.117188 369.894531 21.96875 373.371094 24.558594 C 375.125 25.863281 376.710938 27.347656 378.328125 28.804688 C 379.074219 29.476562 379.835938 30.132812 380.628906 30.753906 C 380.984375 31.035156 381.195312 31.367188 380.984375 31.820312 C 380.78125 32.257812 380.390625 32.363281 379.949219 32.3125 C 379.574219 32.273438 379.230469 32.148438 378.917969 31.933594 C 378.667969 31.761719 378.402344 31.59375 378.179688 31.382812 C 376.027344 29.347656 373.402344 28.367188 370.554688 27.765625 C 366.261719 26.855469 361.929688 26.65625 357.570312 26.828125 C 354.210938 26.957031 350.847656 27.109375 347.496094 27.425781 C 345.925781 27.574219 344.359375 27.773438 342.800781 28.035156 C 342.316406 28.117188 342.230469 28.382812 342.234375 28.808594 C 342.25 30.90625 342.25 33 342.25 35.09375 C 342.25 42.097656 342.25 49.101562 342.25 56.105469 Z M 342.25 56.105469 " fill-opacity="1" fill-rule="nonzero"/></g><path fill="#094e49" d="M 303.566406 86.5625 C 296.816406 86.445312 290.894531 84.292969 286.042969 79.488281 C 285.355469 78.804688 284.753906 78.050781 284.238281 77.234375 C 284.054688 76.945312 283.964844 76.710938 284.304688 76.445312 C 284.617188 76.199219 284.753906 75.816406 284.90625 75.453125 C 289.792969 63.703125 294.398438 51.839844 299.191406 40.050781 C 300.253906 37.425781 301.191406 34.746094 302.488281 32.222656 C 302.714844 31.78125 303.007812 31.421875 303.558594 31.421875 C 304.117188 31.421875 304.46875 31.742188 304.71875 32.203125 C 304.8125 32.386719 304.902344 32.570312 304.984375 32.757812 C 305.621094 34.292969 306.269531 35.828125 306.894531 37.367188 C 311.941406 49.78125 316.8125 62.269531 321.769531 74.722656 C 322.011719 75.332031 322.214844 75.953125 322.703125 76.4375 C 323.035156 76.769531 322.707031 77.058594 322.535156 77.304688 C 321.609375 78.644531 320.527344 79.847656 319.292969 80.917969 C 315.875 83.886719 311.851562 85.5 307.417969 86.199219 C 306.140625 86.398438 304.859375 86.53125 303.566406 86.5625 Z M 303.621094 33.992188 C 303.328125 34.234375 303.28125 34.484375 303.1875 34.707031 C 300.441406 41.324219 297.789062 47.976562 295.152344 54.636719 C 292.453125 61.449219 289.742188 68.253906 286.902344 75.011719 C 286.722656 75.4375 286.660156 75.664062 287.28125 75.660156 C 298.101562 75.652344 308.921875 75.65625 319.742188 75.675781 C 320.3125 75.675781 320.296875 75.472656 320.121094 75.0625 C 319.621094 73.890625 319.113281 72.722656 318.652344 71.539062 C 314.253906 60.277344 309.820312 49.03125 305.238281 37.847656 C 304.71875 36.578125 304.179688 35.320312 303.621094 33.992188 Z M 303.621094 33.992188 " fill-opacity="1" fill-rule="nonzero"/><g clip-path="url(#c57ec2ffd7)"><path fill="#094e49" d="M 372.75 86.566406 C 367.496094 86.433594 362.53125 85 358.207031 81.65625 C 356.617188 80.429688 355.265625 78.980469 354.152344 77.304688 C 353.917969 76.960938 353.886719 76.742188 354.253906 76.441406 C 354.71875 76.058594 354.929688 75.46875 355.164062 74.921875 C 358.507812 67.175781 361.753906 59.390625 364.996094 51.597656 C 367.34375 45.949219 369.664062 40.289062 372.148438 34.699219 C 372.339844 34.269531 372.539062 33.835938 372.789062 33.4375 C 373.226562 32.757812 374.066406 32.765625 374.496094 33.460938 C 374.742188 33.859375 374.9375 34.292969 375.109375 34.730469 C 378.792969 43.960938 382.636719 53.125 386.378906 62.324219 C 388.175781 66.738281 390.046875 71.117188 391.796875 75.546875 C 391.957031 75.949219 392.136719 76.347656 392.523438 76.589844 C 392.820312 76.78125 392.726562 76.96875 392.5625 77.199219 C 389.742188 81.222656 385.921875 83.835938 381.265625 85.300781 C 378.539062 86.160156 375.742188 86.511719 372.75 86.566406 Z M 373.566406 35.625 C 373.378906 36.054688 373.265625 36.292969 373.164062 36.539062 C 368.246094 48.1875 363.332031 59.835938 358.414062 71.484375 C 357.898438 72.714844 357.386719 73.945312 356.859375 75.171875 C 356.71875 75.507812 356.753906 75.683594 357.164062 75.652344 C 357.328125 75.644531 357.492188 75.652344 357.65625 75.652344 C 368.191406 75.660156 378.726562 75.667969 389.257812 75.675781 C 389.972656 75.675781 390.007812 75.621094 389.734375 74.945312 C 384.847656 63.039062 379.960938 51.136719 375.074219 39.230469 C 374.601562 38.074219 374.113281 36.929688 373.566406 35.625 Z M 373.566406 35.625 " fill-opacity="1" fill-rule="nonzero"/></g></svg>