<svg xmlns="http://www.w3.org/2000/svg" xmlns:xlink="http://www.w3.org/1999/xlink" width="640" zoomAndPan="magnify" viewBox="0 0 480 269.999989" height="360" preserveAspectRatio="xMidYMid meet" version="1.0"><path fill="#094e49" d="M 261.949219 70.871094 L 262.179688 70.871094 C 262.292969 70.871094 262.351562 70.8125 262.351562 70.753906 C 263.214844 65.398438 264.714844 60.269531 266.84375 55.371094 C 267.132812 54.679688 267.421875 53.066406 267.652344 50.589844 C 267.710938 50.070312 268.113281 49.496094 268.976562 48.804688 C 269.554688 48.34375 269.898438 47.9375 269.957031 47.59375 C 270.015625 47.132812 269.898438 46.554688 269.667969 45.863281 C 268.917969 44.019531 267.59375 43.097656 265.691406 43.214844 C 263.386719 43.328125 261.140625 43.15625 258.953125 42.753906 C 258.375 42.636719 257.972656 42.117188 258.03125 41.542969 L 258.433594 36.53125 C 258.433594 36.242188 258.375 35.953125 258.144531 35.722656 C 256.820312 34.167969 256.359375 32.324219 256.761719 30.019531 C 256.820312 29.671875 256.703125 29.441406 256.359375 29.269531 L 254.515625 28.40625 C 253.824219 28.117188 253.535156 27.253906 253.824219 26.5625 C 253.824219 26.503906 253.882812 26.503906 253.882812 26.445312 L 257.164062 20.859375 C 257.339844 20.570312 257.394531 20.28125 257.339844 19.9375 C 256.933594 16.191406 257.742188 12.214844 259.816406 8.066406 C 259.929688 7.777344 259.929688 7.546875 259.757812 7.316406 C 258.777344 5.878906 258.375 4.207031 258.492188 2.246094 C 258.546875 1.613281 258.894531 1.324219 259.527344 1.382812 L 263.15625 1.671875 C 263.445312 1.730469 263.734375 1.613281 264.023438 1.5 C 266.558594 0.171875 269.4375 0 272.664062 1.039062 C 274.21875 1.5 275.371094 1.785156 276.179688 1.785156 C 277.964844 1.84375 279.175781 1.84375 279.867188 1.84375 C 285.515625 1.902344 289.433594 4.726562 291.5625 10.3125 C 293.351562 15.039062 293.925781 19.1875 293.292969 22.757812 C 292.601562 26.734375 290.988281 31.113281 288.511719 35.839844 C 287.933594 36.933594 288.105469 37.507812 288.222656 38.488281 C 288.28125 38.777344 288.105469 39.007812 287.875 39.121094 C 283.726562 40.910156 278.886719 43.617188 273.355469 47.132812 C 272.605469 47.59375 272.433594 48.226562 272.835938 49.035156 L 273.875 51.050781 C 273.988281 51.339844 273.988281 51.570312 273.757812 51.800781 C 272.605469 53.007812 271.339844 53.355469 270.992188 55.542969 C 269.839844 62.746094 268.6875 73.058594 267.480469 86.425781 C 267.480469 86.65625 267.652344 86.886719 267.882812 86.886719 L 268.171875 86.886719 C 268.285156 86.886719 268.285156 86.886719 268.34375 86.773438 C 269.035156 84.296875 269.496094 81.644531 270.246094 79.511719 C 274.105469 68.96875 278.542969 59 283.554688 49.667969 C 285.054688 46.785156 287.589844 43.328125 289.085938 40.679688 C 289.257812 40.390625 289.488281 40.332031 289.71875 40.503906 C 290.296875 40.792969 291.101562 41.832031 291.851562 42.234375 C 295.25 43.960938 299.917969 46.210938 305.851562 49.035156 C 311.84375 51.855469 315.9375 55.601562 317.433594 62.515625 C 318.183594 65.972656 318.644531 69.316406 318.875 72.542969 C 319.449219 81.355469 320.375 90.863281 321.527344 101.121094 C 321.988281 105.152344 321.007812 111.605469 318.242188 114.660156 C 314.667969 118.636719 307.351562 120.421875 302.683594 121.054688 C 302.339844 121.113281 302.222656 121.285156 302.28125 121.632812 C 303.085938 127.796875 303.835938 134.769531 304.527344 142.605469 C 305.046875 148.425781 305.21875 153.898438 305.105469 159.085938 C 305.046875 160.984375 303.953125 162.082031 301.820312 162.484375 C 301.1875 162.597656 300.839844 163.003906 300.898438 163.636719 C 301.300781 173.546875 301.1875 183.457031 300.496094 193.425781 C 300.4375 194.460938 300.496094 196.304688 300.78125 198.839844 C 303.085938 221.886719 304.757812 245.570312 305.851562 269.769531 C 305.851562 269.886719 305.738281 270 305.621094 270 L 286.207031 270 C 285.917969 270 285.800781 269.882812 285.746094 269.597656 C 282.058594 253.289062 279.867188 242.804688 279.175781 238.136719 C 278.65625 234.738281 278.195312 227.476562 277.792969 216.300781 C 277.621094 211.054688 275.257812 206.042969 274.277344 200.859375 C 273.125 194.921875 270.992188 182.824219 268.6875 173.027344 C 268.632812 172.796875 268.402344 172.625 268.171875 172.683594 C 268.113281 172.683594 268.054688 172.738281 267.996094 172.796875 C 267.824219 172.96875 267.710938 173.199219 267.710938 173.546875 C 266.613281 199.9375 265.867188 226.671875 265.347656 253.808594 C 265.289062 255.308594 265 260.550781 264.425781 269.480469 C 264.425781 269.828125 264.195312 270 263.847656 270 L 230.027344 270 C 229.335938 270 228.703125 269.480469 228.644531 268.789062 L 228.585938 268.214844 C 228.414062 267.175781 228.875 266.65625 229.910156 266.601562 C 231.238281 266.542969 233.542969 266.425781 236.828125 266.195312 C 239.074219 266.023438 241.320312 264.640625 243.742188 263.890625 C 243.972656 263.835938 244.085938 263.660156 244.085938 263.375 C 243.394531 244.246094 242.414062 225.460938 241.320312 207.082031 C 240.746094 197.402344 240.054688 189.566406 239.304688 183.515625 C 238.671875 178.097656 238.324219 174.179688 238.265625 171.644531 C 238.152344 167.726562 238.265625 163.75 238.496094 159.660156 C 238.496094 159.316406 238.324219 159.085938 237.980469 159.027344 L 234.523438 158.507812 C 233.945312 158.394531 233.542969 157.933594 233.542969 157.355469 C 233.832031 149.058594 234.695312 139.4375 236.019531 128.546875 C 236.078125 128.257812 235.90625 128.027344 235.675781 127.914062 L 207.671875 115.699219 C 207.441406 115.582031 207.324219 115.699219 207.324219 115.929688 L 207.324219 266.140625 C 207.324219 266.371094 207.441406 266.542969 207.730469 266.542969 L 227.144531 266.542969 C 228.066406 266.542969 228.527344 267.003906 228.527344 267.925781 L 228.527344 268.617188 C 228.527344 269.308594 227.953125 269.886719 227.261719 269.886719 L 172.871094 269.886719 C 172.121094 269.886719 171.773438 269.539062 171.773438 268.789062 L 171.773438 267.523438 C 171.773438 266.886719 172.121094 266.542969 172.753906 266.542969 L 195.457031 266.542969 C 195.6875 266.542969 195.917969 266.3125 195.917969 266.082031 L 195.917969 110.453125 C 195.917969 110.28125 195.800781 110.109375 195.628906 110.050781 L 158.695312 93.054688 C 158.234375 92.824219 158.003906 92.476562 158.003906 91.902344 L 159.964844 68.910156 C 159.964844 68.625 160.25 68.394531 160.539062 68.449219 C 160.597656 68.449219 160.65625 68.449219 160.710938 68.507812 L 188.425781 81.242188 C 188.65625 81.355469 188.945312 81.242188 189.0625 81.011719 C 189.117188 80.953125 189.117188 80.839844 189.117188 80.722656 L 188.140625 74.15625 C 188.082031 73.75 188.195312 73.40625 188.601562 73.117188 L 223.515625 48.804688 C 224.035156 48.457031 224.324219 47.824219 224.265625 47.246094 C 223.863281 42.808594 227.203125 38.429688 231.757812 38.429688 C 238.613281 38.488281 240.917969 47.132812 235.039062 50.648438 C 232.21875 52.316406 229.566406 51.742188 226.339844 50.703125 C 226.050781 50.589844 225.707031 50.648438 225.476562 50.820312 L 191.308594 74.5 C 191.019531 74.730469 190.847656 74.960938 190.847656 75.363281 L 190.847656 81.125 C 190.847656 81.933594 191.191406 82.507812 191.941406 82.855469 L 227.78125 99.335938 C 228.242188 99.566406 228.816406 99.335938 229.046875 98.875 C 229.046875 98.875 229.046875 98.816406 229.105469 98.816406 C 232.910156 88.328125 236.828125 77.496094 240.917969 66.320312 C 241.839844 63.785156 243.511719 59.175781 245.296875 56.8125 C 247.371094 53.929688 250.195312 51.914062 253.765625 50.878906 C 256.703125 50.011719 259.644531 49.035156 262.523438 47.996094 C 264.367188 47.363281 265.519531 46.785156 266.039062 46.324219 C 268.113281 44.421875 268.515625 44.710938 267.191406 47.246094 C 263.503906 54.507812 261.71875 62.34375 261.773438 70.753906 C 261.773438 70.8125 261.832031 70.871094 261.949219 70.871094 Z M 238.324219 100.890625 L 236.019531 100.890625 C 235.617188 100.890625 235.445312 101.0625 235.5 101.464844 L 235.960938 104.460938 C 236.019531 104.75 236.136719 104.980469 236.421875 105.152344 C 237.230469 105.613281 237.980469 105.730469 238.671875 105.558594 C 238.902344 105.5 239.074219 105.328125 239.074219 105.039062 L 239.074219 101.523438 C 239.015625 101.121094 238.785156 100.890625 238.324219 100.890625 Z M 238.324219 100.890625 " fill-opacity="1" fill-rule="nonzero"/></svg>