<svg xmlns="http://www.w3.org/2000/svg" xmlns:xlink="http://www.w3.org/1999/xlink" width="640" zoomAndPan="magnify" viewBox="0 0 480 269.999989" height="360" preserveAspectRatio="xMidYMid meet" version="1.0"><defs><g/></defs><g fill="#094e49" fill-opacity="1"><g transform="translate(113.065049, 137.324285)"><g><path d="M 2.234375 -22.40625 L 11.515625 -22.40625 C 12.671875 -22.40625 13.734375 -22.210938 14.703125 -21.828125 C 15.671875 -21.441406 16.492188 -20.910156 17.171875 -20.234375 C 17.859375 -19.566406 18.394531 -18.757812 18.78125 -17.8125 C 19.164062 -16.863281 19.359375 -15.832031 19.359375 -14.71875 C 19.359375 -13.59375 19.164062 -12.554688 18.78125 -11.609375 C 18.394531 -10.671875 17.859375 -9.863281 17.171875 -9.1875 C 16.492188 -8.519531 15.671875 -7.992188 14.703125 -7.609375 C 13.734375 -7.234375 12.671875 -7.046875 11.515625 -7.046875 L 7.046875 -7.046875 L 7.046875 0 L 2.234375 0 Z M 11.046875 -11.359375 C 12.171875 -11.359375 13.035156 -11.65625 13.640625 -12.25 C 14.253906 -12.851562 14.5625 -13.675781 14.5625 -14.71875 C 14.5625 -15.757812 14.253906 -16.578125 13.640625 -17.171875 C 13.035156 -17.773438 12.171875 -18.078125 11.046875 -18.078125 L 7.046875 -18.078125 L 7.046875 -11.359375 Z M 11.046875 -11.359375 "/></g></g></g><g fill="#094e49" fill-opacity="1"><g transform="translate(132.420176, 137.324285)"><g><path d="M 6.875 0.3125 C 5.957031 0.3125 5.128906 0.179688 4.390625 -0.078125 C 3.660156 -0.347656 3.039062 -0.71875 2.53125 -1.1875 C 2.019531 -1.65625 1.628906 -2.207031 1.359375 -2.84375 C 1.085938 -3.488281 0.953125 -4.191406 0.953125 -4.953125 C 0.953125 -5.722656 1.09375 -6.425781 1.375 -7.0625 C 1.65625 -7.707031 2.070312 -8.265625 2.625 -8.734375 C 3.175781 -9.203125 3.859375 -9.566406 4.671875 -9.828125 C 5.484375 -10.097656 6.429688 -10.234375 7.515625 -10.234375 L 11.515625 -10.234375 L 11.515625 -11.046875 C 11.515625 -11.847656 11.257812 -12.445312 10.75 -12.84375 C 10.238281 -13.238281 9.535156 -13.4375 8.640625 -13.4375 C 8.003906 -13.4375 7.460938 -13.296875 7.015625 -13.015625 C 6.566406 -12.742188 6.253906 -12.40625 6.078125 -12 L 1.59375 -12 C 1.75 -12.6875 2.007812 -13.34375 2.375 -13.96875 C 2.75 -14.59375 3.226562 -15.148438 3.8125 -15.640625 C 4.40625 -16.140625 5.113281 -16.535156 5.9375 -16.828125 C 6.757812 -17.128906 7.710938 -17.28125 8.796875 -17.28125 C 11.054688 -17.28125 12.820312 -16.734375 14.09375 -15.640625 C 15.363281 -14.554688 16 -12.96875 16 -10.875 L 16 0 L 12.15625 0 L 11.6875 -1.921875 L 11.515625 -1.921875 C 11.347656 -1.679688 11.132812 -1.425781 10.875 -1.15625 C 10.625 -0.894531 10.304688 -0.648438 9.921875 -0.421875 C 9.535156 -0.203125 9.09375 -0.0234375 8.59375 0.109375 C 8.09375 0.242188 7.519531 0.3125 6.875 0.3125 Z M 8 -3.359375 C 9.039062 -3.359375 9.882812 -3.648438 10.53125 -4.234375 C 11.1875 -4.828125 11.515625 -5.601562 11.515625 -6.5625 L 11.515625 -7.046875 L 7.6875 -7.046875 C 6.875 -7.046875 6.296875 -6.875 5.953125 -6.53125 C 5.609375 -6.1875 5.4375 -5.769531 5.4375 -5.28125 C 5.4375 -4.726562 5.640625 -4.269531 6.046875 -3.90625 C 6.453125 -3.539062 7.101562 -3.359375 8 -3.359375 Z M 8 -3.359375 "/></g></g></g><g fill="#094e49" fill-opacity="1"><g transform="translate(150.175809, 137.324285)"><g><path d="M 8.640625 0 C 6.867188 0 5.546875 -0.425781 4.671875 -1.28125 C 3.796875 -2.132812 3.359375 -3.359375 3.359375 -4.953125 L 3.359375 -12.796875 L 0.640625 -12.796875 L 0.640625 -16.953125 L 3.359375 -16.953125 L 4 -21.4375 L 7.84375 -21.4375 L 7.84375 -16.953125 L 11.84375 -16.953125 L 11.84375 -12.796875 L 7.84375 -12.796875 L 7.84375 -5.765625 C 7.84375 -5.273438 7.984375 -4.882812 8.265625 -4.59375 C 8.554688 -4.300781 8.945312 -4.15625 9.4375 -4.15625 L 11.84375 -4.15625 L 11.84375 0 Z M 8.640625 0 "/></g></g></g><g fill="#094e49" fill-opacity="1"><g transform="translate(163.29258, 137.324285)"><g><path d="M 1.921875 -16.953125 L 5.765625 -16.953125 L 6.234375 -15.046875 L 6.40625 -15.046875 C 6.894531 -15.765625 7.476562 -16.257812 8.15625 -16.53125 C 8.84375 -16.8125 9.59375 -16.953125 10.40625 -16.953125 L 12.484375 -16.953125 L 12.484375 -12.640625 L 10.71875 -12.640625 C 9.351562 -12.640625 8.289062 -12.265625 7.53125 -11.515625 C 6.78125 -10.773438 6.40625 -9.765625 6.40625 -8.484375 L 6.40625 0 L 1.921875 0 Z M 1.921875 -16.953125 "/></g></g></g><g fill="#094e49" fill-opacity="1"><g transform="translate(175.6095, 137.324285)"><g><path d="M 9.4375 0.3125 C 8.15625 0.3125 7.003906 0.117188 5.984375 -0.265625 C 4.960938 -0.660156 4.085938 -1.234375 3.359375 -1.984375 C 2.628906 -2.734375 2.070312 -3.648438 1.6875 -4.734375 C 1.3125 -5.828125 1.125 -7.078125 1.125 -8.484375 C 1.125 -9.890625 1.3125 -11.132812 1.6875 -12.21875 C 2.070312 -13.3125 2.628906 -14.226562 3.359375 -14.96875 C 4.085938 -15.71875 4.960938 -16.289062 5.984375 -16.6875 C 7.003906 -17.082031 8.15625 -17.28125 9.4375 -17.28125 C 10.71875 -17.28125 11.867188 -17.082031 12.890625 -16.6875 C 13.921875 -16.289062 14.796875 -15.71875 15.515625 -14.96875 C 16.242188 -14.226562 16.800781 -13.3125 17.1875 -12.21875 C 17.570312 -11.132812 17.765625 -9.890625 17.765625 -8.484375 C 17.765625 -7.078125 17.570312 -5.828125 17.1875 -4.734375 C 16.800781 -3.648438 16.242188 -2.734375 15.515625 -1.984375 C 14.796875 -1.234375 13.921875 -0.660156 12.890625 -0.265625 C 11.867188 0.117188 10.71875 0.3125 9.4375 0.3125 Z M 9.4375 -3.6875 C 9.945312 -3.6875 10.4375 -3.773438 10.90625 -3.953125 C 11.375 -4.128906 11.785156 -4.414062 12.140625 -4.8125 C 12.492188 -5.207031 12.769531 -5.707031 12.96875 -6.3125 C 13.175781 -6.925781 13.28125 -7.648438 13.28125 -8.484375 C 13.28125 -9.316406 13.175781 -10.035156 12.96875 -10.640625 C 12.769531 -11.242188 12.492188 -11.742188 12.140625 -12.140625 C 11.785156 -12.535156 11.375 -12.820312 10.90625 -13 C 10.4375 -13.1875 9.945312 -13.28125 9.4375 -13.28125 C 8.925781 -13.28125 8.4375 -13.1875 7.96875 -13 C 7.5 -12.820312 7.085938 -12.535156 6.734375 -12.140625 C 6.378906 -11.742188 6.097656 -11.242188 5.890625 -10.640625 C 5.691406 -10.035156 5.59375 -9.316406 5.59375 -8.484375 C 5.59375 -7.648438 5.691406 -6.925781 5.890625 -6.3125 C 6.097656 -5.707031 6.378906 -5.207031 6.734375 -4.8125 C 7.085938 -4.414062 7.5 -4.128906 7.96875 -3.953125 C 8.4375 -3.773438 8.925781 -3.6875 9.4375 -3.6875 Z M 9.4375 -3.6875 "/></g></g></g><g fill="#094e49" fill-opacity="1"><g transform="translate(194.484857, 137.324285)"><g><path d="M 9.4375 0.3125 C 8.15625 0.3125 7.003906 0.117188 5.984375 -0.265625 C 4.960938 -0.660156 4.085938 -1.234375 3.359375 -1.984375 C 2.628906 -2.734375 2.070312 -3.648438 1.6875 -4.734375 C 1.3125 -5.828125 1.125 -7.078125 1.125 -8.484375 C 1.125 -9.890625 1.3125 -11.132812 1.6875 -12.21875 C 2.070312 -13.3125 2.628906 -14.226562 3.359375 -14.96875 C 4.085938 -15.71875 4.960938 -16.289062 5.984375 -16.6875 C 7.003906 -17.082031 8.15625 -17.28125 9.4375 -17.28125 C 10.632812 -17.28125 11.679688 -17.113281 12.578125 -16.78125 C 13.472656 -16.445312 14.234375 -16 14.859375 -15.4375 C 15.492188 -14.875 16.003906 -14.222656 16.390625 -13.484375 C 16.785156 -12.753906 17.082031 -11.992188 17.28125 -11.203125 L 12.796875 -11.203125 C 12.472656 -11.835938 12.054688 -12.34375 11.546875 -12.71875 C 11.035156 -13.09375 10.332031 -13.28125 9.4375 -13.28125 C 8.3125 -13.28125 7.390625 -12.878906 6.671875 -12.078125 C 5.953125 -11.273438 5.59375 -10.078125 5.59375 -8.484375 C 5.59375 -6.878906 5.953125 -5.675781 6.671875 -4.875 C 7.390625 -4.082031 8.3125 -3.6875 9.4375 -3.6875 C 10.332031 -3.6875 11.035156 -3.867188 11.546875 -4.234375 C 12.054688 -4.609375 12.472656 -5.117188 12.796875 -5.765625 L 17.28125 -5.765625 C 17.082031 -4.953125 16.785156 -4.179688 16.390625 -3.453125 C 16.003906 -2.734375 15.492188 -2.085938 14.859375 -1.515625 C 14.234375 -0.953125 13.472656 -0.503906 12.578125 -0.171875 C 11.679688 0.148438 10.632812 0.3125 9.4375 0.3125 Z M 9.4375 0.3125 "/></g></g></g><g fill="#094e49" fill-opacity="1"><g transform="translate(212.720375, 137.324285)"><g><path d="M 1.921875 -16.953125 L 6.40625 -16.953125 L 6.40625 0 L 1.921875 0 Z M 4.15625 -18.71875 C 3.4375 -18.71875 2.828125 -18.960938 2.328125 -19.453125 C 1.835938 -19.941406 1.59375 -20.550781 1.59375 -21.28125 C 1.59375 -22.007812 1.835938 -22.617188 2.328125 -23.109375 C 2.828125 -23.597656 3.4375 -23.84375 4.15625 -23.84375 C 4.882812 -23.84375 5.492188 -23.597656 5.984375 -23.109375 C 6.472656 -22.617188 6.71875 -22.007812 6.71875 -21.28125 C 6.71875 -20.550781 6.472656 -19.941406 5.984375 -19.453125 C 5.492188 -18.960938 4.882812 -18.71875 4.15625 -18.71875 Z M 4.15625 -18.71875 "/></g></g></g><g fill="#094e49" fill-opacity="1"><g transform="translate(221.03833, 137.324285)"><g><path d="M 1.921875 -16.953125 L 5.765625 -16.953125 L 6.234375 -15.046875 L 6.40625 -15.046875 C 6.957031 -15.765625 7.613281 -16.316406 8.375 -16.703125 C 9.144531 -17.085938 9.976562 -17.28125 10.875 -17.28125 C 11.789062 -17.28125 12.632812 -17.125 13.40625 -16.8125 C 14.175781 -16.507812 14.832031 -16.054688 15.375 -15.453125 C 15.914062 -14.859375 16.34375 -14.140625 16.65625 -13.296875 C 16.96875 -12.453125 17.125 -11.488281 17.125 -10.40625 L 17.125 0 L 12.640625 0 L 12.640625 -9.765625 C 12.640625 -10.890625 12.375 -11.753906 11.84375 -12.359375 C 11.3125 -12.972656 10.5625 -13.28125 9.59375 -13.28125 C 8.632812 -13.28125 7.863281 -12.953125 7.28125 -12.296875 C 6.695312 -11.648438 6.40625 -10.804688 6.40625 -9.765625 L 6.40625 0 L 1.921875 0 Z M 1.921875 -16.953125 "/></g></g></g><g fill="#094e49" fill-opacity="1"><g transform="translate(239.913687, 137.324285)"><g><path d="M 6.875 0.3125 C 5.957031 0.3125 5.128906 0.179688 4.390625 -0.078125 C 3.660156 -0.347656 3.039062 -0.71875 2.53125 -1.1875 C 2.019531 -1.65625 1.628906 -2.207031 1.359375 -2.84375 C 1.085938 -3.488281 0.953125 -4.191406 0.953125 -4.953125 C 0.953125 -5.722656 1.09375 -6.425781 1.375 -7.0625 C 1.65625 -7.707031 2.070312 -8.265625 2.625 -8.734375 C 3.175781 -9.203125 3.859375 -9.566406 4.671875 -9.828125 C 5.484375 -10.097656 6.429688 -10.234375 7.515625 -10.234375 L 11.515625 -10.234375 L 11.515625 -11.046875 C 11.515625 -11.847656 11.257812 -12.445312 10.75 -12.84375 C 10.238281 -13.238281 9.535156 -13.4375 8.640625 -13.4375 C 8.003906 -13.4375 7.460938 -13.296875 7.015625 -13.015625 C 6.566406 -12.742188 6.253906 -12.40625 6.078125 -12 L 1.59375 -12 C 1.75 -12.6875 2.007812 -13.34375 2.375 -13.96875 C 2.75 -14.59375 3.226562 -15.148438 3.8125 -15.640625 C 4.40625 -16.140625 5.113281 -16.535156 5.9375 -16.828125 C 6.757812 -17.128906 7.710938 -17.28125 8.796875 -17.28125 C 11.054688 -17.28125 12.820312 -16.734375 14.09375 -15.640625 C 15.363281 -14.554688 16 -12.96875 16 -10.875 L 16 0 L 12.15625 0 L 11.6875 -1.921875 L 11.515625 -1.921875 C 11.347656 -1.679688 11.132812 -1.425781 10.875 -1.15625 C 10.625 -0.894531 10.304688 -0.648438 9.921875 -0.421875 C 9.535156 -0.203125 9.09375 -0.0234375 8.59375 0.109375 C 8.09375 0.242188 7.519531 0.3125 6.875 0.3125 Z M 8 -3.359375 C 9.039062 -3.359375 9.882812 -3.648438 10.53125 -4.234375 C 11.1875 -4.828125 11.515625 -5.601562 11.515625 -6.5625 L 11.515625 -7.046875 L 7.6875 -7.046875 C 6.875 -7.046875 6.296875 -6.875 5.953125 -6.53125 C 5.609375 -6.1875 5.4375 -5.769531 5.4375 -5.28125 C 5.4375 -4.726562 5.640625 -4.269531 6.046875 -3.90625 C 6.453125 -3.539062 7.101562 -3.359375 8 -3.359375 Z M 8 -3.359375 "/></g></g></g><g fill="#094e49" fill-opacity="1"><g transform="translate(257.66932, 137.324285)"><g><path d="M 8.484375 0.3125 C 7.390625 0.3125 6.394531 0.128906 5.5 -0.234375 C 4.601562 -0.609375 3.828125 -1.171875 3.171875 -1.921875 C 2.523438 -2.671875 2.019531 -3.585938 1.65625 -4.671875 C 1.300781 -5.753906 1.125 -7.023438 1.125 -8.484375 C 1.125 -9.910156 1.300781 -11.171875 1.65625 -12.265625 C 2.019531 -13.367188 2.523438 -14.289062 3.171875 -15.03125 C 3.828125 -15.78125 4.601562 -16.34375 5.5 -16.71875 C 6.394531 -17.09375 7.390625 -17.28125 8.484375 -17.28125 C 9.117188 -17.28125 9.6875 -17.207031 10.1875 -17.0625 C 10.6875 -16.925781 11.128906 -16.75 11.515625 -16.53125 C 11.898438 -16.320312 12.21875 -16.09375 12.46875 -15.84375 C 12.726562 -15.601562 12.945312 -15.390625 13.125 -15.203125 L 13.28125 -15.203125 L 13.28125 -22.40625 L 17.765625 -22.40625 L 17.765625 0 L 13.921875 0 L 13.4375 -1.921875 L 13.28125 -1.921875 C 13.039062 -1.640625 12.765625 -1.363281 12.453125 -1.09375 C 12.148438 -0.832031 11.804688 -0.59375 11.421875 -0.375 C 11.035156 -0.164062 10.597656 0 10.109375 0.125 C 9.617188 0.25 9.078125 0.3125 8.484375 0.3125 Z M 9.4375 -3.6875 C 9.945312 -3.6875 10.4375 -3.773438 10.90625 -3.953125 C 11.375 -4.128906 11.785156 -4.414062 12.140625 -4.8125 C 12.492188 -5.207031 12.769531 -5.707031 12.96875 -6.3125 C 13.175781 -6.925781 13.28125 -7.648438 13.28125 -8.484375 C 13.28125 -9.316406 13.175781 -10.035156 12.96875 -10.640625 C 12.769531 -11.242188 12.492188 -11.742188 12.140625 -12.140625 C 11.785156 -12.535156 11.375 -12.820312 10.90625 -13 C 10.4375 -13.1875 9.945312 -13.28125 9.4375 -13.28125 C 8.925781 -13.28125 8.4375 -13.1875 7.96875 -13 C 7.5 -12.820312 7.085938 -12.535156 6.734375 -12.140625 C 6.378906 -11.742188 6.097656 -11.242188 5.890625 -10.640625 C 5.691406 -10.035156 5.59375 -9.316406 5.59375 -8.484375 C 5.59375 -7.648438 5.691406 -6.925781 5.890625 -6.3125 C 6.097656 -5.707031 6.378906 -5.207031 6.734375 -4.8125 C 7.085938 -4.414062 7.5 -4.128906 7.96875 -3.953125 C 8.4375 -3.773438 8.925781 -3.6875 9.4375 -3.6875 Z M 9.4375 -3.6875 "/></g></g></g><g fill="#094e49" fill-opacity="1"><g transform="translate(277.504446, 137.324285)"><g><path d="M 9.4375 0.3125 C 8.15625 0.3125 7.003906 0.117188 5.984375 -0.265625 C 4.960938 -0.660156 4.085938 -1.234375 3.359375 -1.984375 C 2.628906 -2.734375 2.070312 -3.648438 1.6875 -4.734375 C 1.3125 -5.828125 1.125 -7.078125 1.125 -8.484375 C 1.125 -9.890625 1.3125 -11.132812 1.6875 -12.21875 C 2.070312 -13.3125 2.628906 -14.226562 3.359375 -14.96875 C 4.085938 -15.71875 4.960938 -16.289062 5.984375 -16.6875 C 7.003906 -17.082031 8.15625 -17.28125 9.4375 -17.28125 C 10.71875 -17.28125 11.867188 -17.082031 12.890625 -16.6875 C 13.921875 -16.289062 14.796875 -15.71875 15.515625 -14.96875 C 16.242188 -14.226562 16.800781 -13.3125 17.1875 -12.21875 C 17.570312 -11.132812 17.765625 -9.890625 17.765625 -8.484375 C 17.765625 -7.078125 17.570312 -5.828125 17.1875 -4.734375 C 16.800781 -3.648438 16.242188 -2.734375 15.515625 -1.984375 C 14.796875 -1.234375 13.921875 -0.660156 12.890625 -0.265625 C 11.867188 0.117188 10.71875 0.3125 9.4375 0.3125 Z M 9.4375 -3.6875 C 9.945312 -3.6875 10.4375 -3.773438 10.90625 -3.953125 C 11.375 -4.128906 11.785156 -4.414062 12.140625 -4.8125 C 12.492188 -5.207031 12.769531 -5.707031 12.96875 -6.3125 C 13.175781 -6.925781 13.28125 -7.648438 13.28125 -8.484375 C 13.28125 -9.316406 13.175781 -10.035156 12.96875 -10.640625 C 12.769531 -11.242188 12.492188 -11.742188 12.140625 -12.140625 C 11.785156 -12.535156 11.375 -12.820312 10.90625 -13 C 10.4375 -13.1875 9.945312 -13.28125 9.4375 -13.28125 C 8.925781 -13.28125 8.4375 -13.1875 7.96875 -13 C 7.5 -12.820312 7.085938 -12.535156 6.734375 -12.140625 C 6.378906 -11.742188 6.097656 -11.242188 5.890625 -10.640625 C 5.691406 -10.035156 5.59375 -9.316406 5.59375 -8.484375 C 5.59375 -7.648438 5.691406 -6.925781 5.890625 -6.3125 C 6.097656 -5.707031 6.378906 -5.207031 6.734375 -4.8125 C 7.085938 -4.414062 7.5 -4.128906 7.96875 -3.953125 C 8.4375 -3.773438 8.925781 -3.6875 9.4375 -3.6875 Z M 9.4375 -3.6875 "/></g></g></g><g fill="#094e49" fill-opacity="1"><g transform="translate(296.379804, 137.324285)"><g><path d="M 1.921875 -16.953125 L 5.765625 -16.953125 L 6.234375 -15.046875 L 6.40625 -15.046875 C 6.894531 -15.765625 7.476562 -16.257812 8.15625 -16.53125 C 8.84375 -16.8125 9.59375 -16.953125 10.40625 -16.953125 L 12.484375 -16.953125 L 12.484375 -12.640625 L 10.71875 -12.640625 C 9.351562 -12.640625 8.289062 -12.265625 7.53125 -11.515625 C 6.78125 -10.773438 6.40625 -9.765625 6.40625 -8.484375 L 6.40625 0 L 1.921875 0 Z M 1.921875 -16.953125 "/></g></g></g><g fill="#094e49" fill-opacity="1"><g transform="translate(308.696724, 137.324285)"><g><path d="M 9.4375 0.3125 C 8.15625 0.3125 7.003906 0.117188 5.984375 -0.265625 C 4.960938 -0.660156 4.085938 -1.234375 3.359375 -1.984375 C 2.628906 -2.734375 2.070312 -3.648438 1.6875 -4.734375 C 1.3125 -5.828125 1.125 -7.078125 1.125 -8.484375 C 1.125 -9.890625 1.3125 -11.132812 1.6875 -12.21875 C 2.070312 -13.3125 2.628906 -14.226562 3.359375 -14.96875 C 4.085938 -15.71875 4.960938 -16.289062 5.984375 -16.6875 C 7.003906 -17.082031 8.15625 -17.28125 9.4375 -17.28125 C 10.675781 -17.28125 11.796875 -17.070312 12.796875 -16.65625 C 13.796875 -16.238281 14.65625 -15.648438 15.375 -14.890625 C 16.09375 -14.140625 16.640625 -13.242188 17.015625 -12.203125 C 17.398438 -11.171875 17.59375 -10.035156 17.59375 -8.796875 C 17.59375 -8.566406 17.582031 -8.34375 17.5625 -8.125 C 17.539062 -7.914062 17.519531 -7.722656 17.5 -7.546875 C 17.476562 -7.359375 17.457031 -7.191406 17.4375 -7.046875 L 5.765625 -7.046875 C 5.929688 -6.078125 6.300781 -5.273438 6.875 -4.640625 C 7.457031 -4.003906 8.3125 -3.6875 9.4375 -3.6875 C 10.3125 -3.6875 10.957031 -3.828125 11.375 -4.109375 C 11.789062 -4.398438 12.160156 -4.789062 12.484375 -5.28125 L 17.28125 -5.28125 C 17.082031 -4.550781 16.785156 -3.847656 16.390625 -3.171875 C 16.003906 -2.503906 15.492188 -1.910156 14.859375 -1.390625 C 14.234375 -0.867188 13.472656 -0.453125 12.578125 -0.140625 C 11.679688 0.160156 10.632812 0.3125 9.4375 0.3125 Z M 12.953125 -10.40625 C 12.867188 -10.757812 12.734375 -11.109375 12.546875 -11.453125 C 12.367188 -11.796875 12.132812 -12.101562 11.84375 -12.375 C 11.5625 -12.65625 11.21875 -12.875 10.8125 -13.03125 C 10.40625 -13.195312 9.945312 -13.28125 9.4375 -13.28125 C 8.394531 -13.28125 7.578125 -13 6.984375 -12.4375 C 6.398438 -11.882812 5.992188 -11.207031 5.765625 -10.40625 Z M 12.953125 -10.40625 "/></g></g></g><g fill="#094e49" fill-opacity="1"><g transform="translate(327.412138, 137.324285)"><g><path d="M 8.15625 0.3125 C 6.914062 0.3125 5.847656 0.164062 4.953125 -0.125 C 4.054688 -0.425781 3.3125 -0.832031 2.71875 -1.34375 C 2.125 -1.851562 1.660156 -2.441406 1.328125 -3.109375 C 0.992188 -3.785156 0.765625 -4.507812 0.640625 -5.28125 L 5.4375 -5.28125 C 5.519531 -4.875 5.789062 -4.503906 6.25 -4.171875 C 6.707031 -3.847656 7.34375 -3.6875 8.15625 -3.6875 C 9.269531 -3.6875 10.03125 -3.816406 10.4375 -4.078125 C 10.84375 -4.347656 11.046875 -4.640625 11.046875 -4.953125 C 11.046875 -5.378906 10.800781 -5.6875 10.3125 -5.875 C 9.832031 -6.070312 9.226562 -6.242188 8.5 -6.390625 C 7.78125 -6.546875 7 -6.707031 6.15625 -6.875 C 5.3125 -7.050781 4.523438 -7.332031 3.796875 -7.71875 C 3.078125 -8.113281 2.476562 -8.660156 2 -9.359375 C 1.519531 -10.054688 1.28125 -10.988281 1.28125 -12.15625 C 1.28125 -12.882812 1.425781 -13.554688 1.71875 -14.171875 C 2.019531 -14.796875 2.457031 -15.335938 3.03125 -15.796875 C 3.613281 -16.253906 4.332031 -16.613281 5.1875 -16.875 C 6.039062 -17.144531 7.03125 -17.28125 8.15625 -17.28125 C 9.351562 -17.28125 10.390625 -17.140625 11.265625 -16.859375 C 12.140625 -16.585938 12.867188 -16.210938 13.453125 -15.734375 C 14.046875 -15.253906 14.503906 -14.691406 14.828125 -14.046875 C 15.160156 -13.410156 15.390625 -12.726562 15.515625 -12 L 10.71875 -12 C 10.632812 -12.320312 10.410156 -12.613281 10.046875 -12.875 C 9.679688 -13.144531 9.050781 -13.28125 8.15625 -13.28125 C 7.4375 -13.28125 6.882812 -13.171875 6.5 -12.953125 C 6.113281 -12.742188 5.921875 -12.476562 5.921875 -12.15625 C 5.921875 -11.726562 6.160156 -11.414062 6.640625 -11.21875 C 7.117188 -11.03125 7.71875 -10.863281 8.4375 -10.71875 C 9.164062 -10.570312 9.953125 -10.410156 10.796875 -10.234375 C 11.640625 -10.066406 12.421875 -9.785156 13.140625 -9.390625 C 13.867188 -8.992188 14.472656 -8.445312 14.953125 -7.75 C 15.441406 -7.0625 15.6875 -6.128906 15.6875 -4.953125 C 15.6875 -4.273438 15.5625 -3.617188 15.3125 -2.984375 C 15.0625 -2.359375 14.648438 -1.800781 14.078125 -1.3125 C 13.503906 -0.820312 12.726562 -0.425781 11.75 -0.125 C 10.78125 0.164062 9.582031 0.3125 8.15625 0.3125 Z M 8.15625 0.3125 "/></g></g></g></svg>