<svg xmlns="http://www.w3.org/2000/svg" xmlns:xlink="http://www.w3.org/1999/xlink" width="640" zoomAndPan="magnify" viewBox="0 0 480 269.999989" height="360" preserveAspectRatio="xMidYMid meet" version="1.0"><defs><clipPath id="2dcbeb5628"><path d="M 279.679688 157.46875 L 367.003906 157.46875 L 367.003906 243 L 279.679688 243 Z M 279.679688 157.46875 " clip-rule="nonzero"/></clipPath><clipPath id="c0d02e22a6"><path d="M 112.96875 157.46875 L 200.46875 157.46875 L 200.46875 243 L 112.96875 243 Z M 112.96875 157.46875 " clip-rule="nonzero"/></clipPath></defs><g clip-path="url(#2dcbeb5628)"><path fill="#094e49" d="M 367.007812 177.460938 L 363.585938 180.761719 L 308.5 233.851562 L 302.316406 239.8125 L 298.988281 243.027344 L 281.179688 224.847656 C 279.359375 222.96875 279.417969 219.941406 281.308594 218.121094 L 342.554688 159.089844 C 343.453125 158.226562 344.625 157.75 345.871094 157.75 L 345.949219 157.75 C 347.226562 157.773438 348.414062 158.285156 349.289062 159.199219 L 363.703125 174.039062 L 367.007812 177.460938 " fill-opacity="1" fill-rule="nonzero"/></g><g clip-path="url(#c0d02e22a6)"><path fill="#094e49" d="M 112.96875 177.460938 L 116.390625 180.761719 L 171.476562 233.851562 L 177.660156 239.8125 L 180.988281 243.027344 L 198.792969 224.847656 C 200.617188 222.96875 200.558594 219.941406 198.667969 218.121094 L 137.421875 159.089844 C 136.523438 158.226562 135.347656 157.75 134.105469 157.75 L 134.023438 157.75 C 132.75 157.773438 131.5625 158.285156 130.6875 159.199219 L 116.273438 174.039062 L 112.96875 177.460938 " fill-opacity="1" fill-rule="nonzero"/></g><path fill="#094e49" d="M 326.734375 146.746094 L 293.125 168.652344 C 278.367188 178.410156 265.425781 183.863281 253.613281 188.023438 C 255.410156 188.617188 257.113281 189.371094 258.683594 190.386719 C 259.347656 190.8125 260.023438 191.332031 260.816406 192.019531 L 260.871094 192.070312 L 280.148438 210.234375 L 336.386719 155.929688 C 332.867188 152.890625 329.648438 149.816406 326.734375 146.746094 " fill-opacity="1" fill-rule="nonzero"/><path fill="#094e49" d="M 184.667969 130.378906 L 163.621094 121.472656 C 161.003906 120.363281 158.117188 120.339844 155.484375 121.40625 C 152.851562 122.472656 150.792969 124.503906 149.683594 127.121094 L 149.527344 127.488281 C 147.296875 132.757812 149.675781 138.859375 154.832031 141.265625 L 154.867188 141.265625 L 155.191406 141.425781 L 176.226562 150.324219 C 178.84375 151.433594 181.734375 151.457031 184.367188 150.390625 C 187 149.320312 189.058594 147.292969 190.164062 144.675781 L 190.320312 144.308594 C 191.425781 141.699219 191.445312 138.808594 190.382812 136.175781 C 189.316406 133.542969 187.289062 131.484375 184.675781 130.378906 L 184.671875 130.378906 C 184.671875 130.378906 184.671875 130.378906 184.667969 130.378906 " fill-opacity="1" fill-rule="nonzero"/><path fill="#094e49" d="M 192.433594 129.6875 C 198.753906 132.363281 206.074219 129.398438 208.753906 123.078125 L 208.910156 122.6875 C 210.21875 119.601562 210.242188 116.21875 208.996094 113.136719 C 207.746094 110.058594 205.375 107.644531 202.3125 106.347656 L 173.976562 94.351562 C 167.652344 91.683594 160.335938 94.648438 157.667969 100.964844 L 157.488281 101.386719 C 154.816406 107.699219 157.777344 115.019531 164.101562 117.699219 L 165.050781 118.097656 C 165.050781 118.097656 165.050781 118.101562 165.050781 118.101562 L 186.097656 127.003906 L 192.433594 129.6875 " fill-opacity="1" fill-rule="nonzero"/><path fill="#094e49" d="M 192.710938 70.609375 C 192.707031 70.609375 192.703125 70.605469 192.699219 70.605469 L 184.492188 67.132812 C 182.933594 66.46875 181.289062 66.140625 179.640625 66.140625 C 178.0625 66.140625 176.476562 66.445312 174.964844 67.058594 C 171.886719 68.304688 169.476562 70.679688 168.183594 73.738281 L 168.007812 74.15625 C 165.328125 80.472656 168.292969 87.789062 174.613281 90.46875 L 208.542969 104.832031 C 214.863281 107.5 222.179688 104.535156 224.855469 98.214844 L 225.035156 97.796875 C 227.636719 91.636719 224.804688 84.386719 218.71875 81.621094 L 218.449219 81.507812 L 192.710938 70.609375 " fill-opacity="1" fill-rule="nonzero"/><path fill="#094e49" d="M 222.710938 60.03125 L 222.421875 59.972656 C 212.664062 58.070312 206.492188 53.042969 203.554688 44.613281 C 203.492188 44.4375 203.417969 44.210938 203.332031 43.941406 C 203.300781 43.835938 203.269531 43.722656 203.238281 43.617188 C 197.003906 41.4375 190.019531 44.449219 187.40625 50.632812 C 186.765625 52.148438 186.425781 53.730469 186.402344 55.339844 C 186.316406 60.429688 189.261719 65.058594 193.90625 67.128906 L 194.074219 67.210938 L 219.84375 78.113281 C 219.851562 78.117188 219.859375 78.121094 219.867188 78.125 L 223.421875 79.628906 C 226.542969 80.953125 229.984375 80.980469 233.121094 79.707031 C 236.257812 78.4375 238.710938 76.019531 240.03125 72.90625 C 241.640625 69.105469 241.285156 64.789062 239.152344 61.332031 L 222.710938 60.03125 " fill-opacity="1" fill-rule="nonzero"/><path fill="#094e49" d="M 263.09375 37.207031 L 245.984375 49.085938 L 245.167969 49.648438 L 236.011719 55.941406 L 223.40625 54.945312 C 215.484375 53.398438 210.714844 49.585938 208.394531 42.925781 C 208.34375 42.773438 208.292969 42.617188 208.234375 42.429688 C 207.273438 39.457031 206.78125 35.96875 206.730469 31.777344 L 248.644531 32.34375 C 252.335938 32.386719 255.992188 33.339844 259.199219 35.089844 L 263.09375 37.207031 " fill-opacity="1" fill-rule="nonzero"/><path fill="#094e49" d="M 332.808594 121.027344 C 330.40625 117.597656 326.335938 115.785156 322.1875 116.300781 C 320.433594 116.515625 318.734375 117.152344 317.261719 118.152344 L 317.117188 118.253906 L 306.714844 125.535156 C 305.886719 126.113281 304.746094 125.910156 304.164062 125.082031 C 303.585938 124.253906 303.789062 123.113281 304.613281 122.53125 L 315.003906 115.261719 C 315.058594 115.222656 315.113281 115.179688 315.175781 115.140625 C 315.179688 115.140625 315.183594 115.136719 315.1875 115.132812 L 325.019531 108.261719 C 331.132812 103.976562 332.625 95.515625 328.347656 89.402344 C 325.464844 85.289062 320.574219 83.125 315.589844 83.742188 C 313.417969 84.003906 311.316406 84.8125 309.503906 86.082031 C 309.492188 86.089844 309.480469 86.09375 309.472656 86.101562 L 301.609375 91.605469 C 301.289062 91.828125 300.925781 91.9375 300.5625 91.9375 C 299.984375 91.9375 299.414062 91.664062 299.058594 91.152344 C 298.480469 90.324219 298.683594 89.183594 299.511719 88.605469 L 316.214844 76.910156 C 319.179688 74.839844 321.15625 71.738281 321.785156 68.179688 C 322.414062 64.617188 321.621094 61.027344 319.542969 58.066406 C 316.664062 53.949219 311.773438 51.773438 306.78125 52.390625 C 305.289062 52.578125 303.847656 53.007812 302.5 53.667969 L 302.171875 53.992188 L 301.886719 53.996094 C 301.457031 54.234375 301.070312 54.476562 300.714844 54.726562 C 300.539062 54.863281 300.351562 55.011719 300.148438 55.144531 L 289.125 62.859375 C 288.804688 63.082031 288.4375 63.1875 288.074219 63.1875 C 287.5 63.1875 286.929688 62.917969 286.574219 62.410156 C 285.996094 61.582031 286.195312 60.441406 287.023438 59.859375 L 298.070312 52.132812 C 298.234375 52.019531 298.375 51.914062 298.515625 51.804688 C 304.304688 47.371094 305.558594 39.246094 301.394531 33.289062 C 298.511719 29.171875 293.625 27.003906 288.628906 27.621094 C 286.425781 27.894531 284.375 28.679688 282.535156 29.957031 L 243.984375 56.710938 C 247.902344 62.125 248.734375 69.253906 246.101562 75.476562 C 244.09375 80.210938 240.363281 83.886719 235.597656 85.816406 C 234.292969 86.347656 232.949219 86.722656 231.582031 86.957031 C 233.003906 91.214844 232.960938 95.96875 231.105469 100.359375 L 230.917969 100.808594 C 228.238281 107.132812 222.394531 111.445312 215.664062 112.253906 C 216.96875 116.503906 216.75 121.039062 215.003906 125.199219 L 214.820312 125.648438 C 211.859375 132.632812 205.074219 137.164062 197.496094 137.253906 C 198.054688 140.476562 197.695312 143.792969 196.394531 146.875 L 196.222656 147.269531 C 194.445312 151.480469 191.105469 154.769531 186.84375 156.496094 C 184.769531 157.339844 182.59375 157.765625 180.375 157.765625 C 178.0625 157.765625 175.800781 157.300781 173.648438 156.390625 L 153.480469 147.855469 L 153.402344 147.855469 L 152.761719 147.566406 C 150.054688 150.363281 147.09375 153.160156 143.890625 155.929688 L 200.128906 210.234375 L 219.472656 192.003906 C 220.023438 191.53125 220.761719 190.921875 221.59375 190.382812 C 225.621094 187.773438 230.503906 186.890625 235.671875 185.960938 C 236.65625 185.78125 237.664062 185.597656 238.6875 185.402344 C 241.207031 184.914062 244.214844 184.269531 247.375 183.199219 C 259.871094 178.992188 273.621094 173.644531 289.527344 163.128906 L 330.085938 136.695312 C 335.128906 133.164062 336.371094 126.117188 332.808594 121.027344 " fill-opacity="1" fill-rule="nonzero"/></svg>