<svg xmlns="http://www.w3.org/2000/svg" xmlns:xlink="http://www.w3.org/1999/xlink" width="40" zoomAndPan="magnify" viewBox="0 0 30 30.000001" height="40" preserveAspectRatio="xMidYMid meet" version="1.0"><defs><clipPath id="d06680398b"><path d="M 5 1.875 L 15 1.875 L 15 12 L 5 12 Z M 5 1.875 " clip-rule="nonzero"/></clipPath><clipPath id="7b878d187f"><path d="M 14 13 L 28.066406 13 L 28.066406 27.28125 L 14 27.28125 Z M 14 13 " clip-rule="nonzero"/></clipPath></defs><path fill="#8c52ff" d="M 14.984375 15.433594 L 16.273438 14.144531 C 16.328125 14.089844 16.382812 14.035156 16.4375 14.007812 C 15.699219 12.96875 14.65625 12.144531 13.453125 11.679688 C 12.492188 12.3125 11.316406 12.695312 10.082031 12.695312 C 8.851562 12.695312 7.675781 12.3125 6.714844 11.679688 C 4.960938 12.367188 3.539062 13.789062 2.882812 15.625 C 2.414062 16.9375 2.113281 18.335938 2.003906 19.734375 C 1.949219 20.363281 2.46875 20.910156 3.128906 20.910156 L 13.234375 20.910156 L 13.234375 19.652344 C 13.234375 18.746094 13.863281 17.980469 14.738281 17.816406 C 14.273438 17.074219 14.355469 16.0625 14.984375 15.433594 Z M 14.984375 15.433594 " fill-opacity="1" fill-rule="nonzero"/><g clip-path="url(#d06680398b)"><path fill="#8c52ff" d="M 10.082031 11.1875 C 12.660156 11.1875 14.738281 9.105469 14.738281 6.53125 C 14.738281 3.957031 12.660156 1.875 10.082031 1.875 C 7.507812 1.875 5.429688 3.957031 5.429688 6.53125 C 5.457031 9.105469 7.535156 11.1875 10.082031 11.1875 Z M 10.082031 11.1875 " fill-opacity="1" fill-rule="nonzero"/></g><g clip-path="url(#7b878d187f)"><path fill="#8c52ff" d="M 27.722656 19.265625 L 26.460938 19.128906 C 26.351562 18.71875 26.1875 18.335938 25.996094 17.980469 L 26.789062 16.992188 C 26.898438 16.855469 26.898438 16.636719 26.761719 16.5 L 25.449219 15.214844 C 25.3125 15.078125 25.09375 15.078125 24.957031 15.1875 L 23.96875 15.980469 C 23.613281 15.789062 23.230469 15.625 22.820312 15.515625 L 22.683594 14.253906 C 22.65625 14.0625 22.492188 13.925781 22.296875 13.925781 L 20.492188 13.925781 C 20.300781 13.925781 20.136719 14.0625 20.109375 14.253906 L 19.972656 15.488281 C 19.558594 15.597656 19.175781 15.761719 18.820312 15.953125 L 17.835938 15.160156 C 17.699219 15.050781 17.480469 15.050781 17.339844 15.1875 L 16.054688 16.472656 C 15.917969 16.609375 15.917969 16.828125 16.027344 16.964844 L 16.820312 17.953125 C 16.628906 18.308594 16.464844 18.691406 16.355469 19.101562 L 15.097656 19.238281 C 14.902344 19.265625 14.765625 19.429688 14.765625 19.625 L 14.765625 21.429688 C 14.765625 21.621094 14.902344 21.785156 15.097656 21.8125 L 16.355469 21.949219 C 16.464844 22.363281 16.628906 22.746094 16.820312 23.101562 L 16.027344 24.085938 C 15.917969 24.222656 15.917969 24.441406 16.054688 24.582031 L 17.339844 25.867188 C 17.480469 26.003906 17.699219 26.003906 17.835938 25.894531 L 18.820312 25.101562 C 19.175781 25.292969 19.558594 25.457031 19.972656 25.566406 L 20.109375 26.824219 C 20.136719 27.019531 20.300781 27.15625 20.492188 27.15625 L 22.296875 27.15625 C 22.492188 27.15625 22.65625 27.019531 22.683594 26.824219 L 22.820312 25.566406 C 23.230469 25.457031 23.613281 25.292969 23.96875 25.101562 L 24.957031 25.894531 C 25.09375 26.003906 25.3125 26.003906 25.449219 25.867188 L 26.734375 24.582031 C 26.871094 24.441406 26.871094 24.222656 26.761719 24.085938 L 25.96875 23.101562 C 26.160156 22.746094 26.324219 22.363281 26.433594 21.949219 L 27.695312 21.8125 C 27.886719 21.785156 28.023438 21.621094 28.023438 21.429688 L 28.023438 19.625 C 28.050781 19.457031 27.914062 19.292969 27.722656 19.265625 Z M 21.394531 23.128906 C 19.972656 23.128906 18.820312 21.976562 18.820312 20.554688 C 18.820312 19.128906 19.972656 17.980469 21.394531 17.980469 C 22.820312 17.980469 23.96875 19.128906 23.96875 20.554688 C 23.96875 21.976562 22.820312 23.128906 21.394531 23.128906 Z M 21.394531 23.128906 " fill-opacity="1" fill-rule="nonzero"/></g></svg>