<svg xmlns="http://www.w3.org/2000/svg" xmlns:xlink="http://www.w3.org/1999/xlink" width="40" zoomAndPan="magnify" viewBox="0 0 30 30.000001" height="40" preserveAspectRatio="xMidYMid meet" version="1.0"><defs><clipPath id="3b902bdfd4"><path d="M 6 17 L 15 17 L 15 27.648438 L 6 27.648438 Z M 6 17 " clip-rule="nonzero"/></clipPath><clipPath id="fc2a320883"><path d="M 14 17 L 24 17 L 24 27.648438 L 14 27.648438 Z M 14 17 " clip-rule="nonzero"/></clipPath><clipPath id="45f60d172e"><path d="M 5.382812 1.519531 L 24.253906 1.519531 L 24.253906 21 L 5.382812 21 Z M 5.382812 1.519531 " clip-rule="nonzero"/></clipPath><clipPath id="bed01ff759"><path d="M 5.382812 1.519531 L 24.253906 1.519531 L 24.253906 25 L 5.382812 25 Z M 5.382812 1.519531 " clip-rule="nonzero"/></clipPath></defs><g clip-path="url(#3b902bdfd4)"><path fill="#2f9c00" d="M 9.5625 24.609375 L 10.46875 27.359375 C 10.554688 27.609375 10.898438 27.628906 11.003906 27.386719 L 14.664062 19.878906 L 10.359375 17.367188 L 6.640625 25.003906 C 6.535156 25.238281 6.746094 25.484375 6.984375 25.410156 L 9.5625 24.609375 " fill-opacity="1" fill-rule="nonzero"/></g><g clip-path="url(#fc2a320883)"><path fill="#2f9c00" d="M 20.132812 24.488281 L 22.648438 25.222656 C 22.886719 25.292969 23.09375 25.042969 22.988281 24.8125 L 19.1875 17.285156 L 14.910156 19.871094 L 18.699219 27.367188 C 18.808594 27.605469 19.152344 27.585938 19.234375 27.332031 L 20.132812 24.488281 " fill-opacity="1" fill-rule="nonzero"/></g><g clip-path="url(#45f60d172e)"><path fill="#2f9c00" d="M 23.921875 12.660156 L 23.011719 11.878906 C 22.867188 11.753906 22.785156 11.570312 22.785156 11.375 C 22.785156 11.367188 22.785156 11.359375 22.785156 11.355469 C 22.785156 11.160156 22.871094 10.972656 23.015625 10.847656 L 23.925781 10.066406 C 24.152344 9.871094 24.089844 9.496094 23.808594 9.390625 L 22.695312 8.976562 C 22.515625 8.910156 22.378906 8.765625 22.3125 8.582031 C 22.3125 8.574219 22.308594 8.566406 22.304688 8.558594 C 22.242188 8.375 22.257812 8.175781 22.351562 8.007812 L 22.945312 6.953125 C 23.09375 6.6875 22.910156 6.359375 22.609375 6.359375 L 21.421875 6.359375 C 21.234375 6.359375 21.054688 6.269531 20.933594 6.121094 C 20.929688 6.117188 20.925781 6.109375 20.921875 6.105469 C 20.796875 5.957031 20.746094 5.761719 20.777344 5.570312 L 20.984375 4.371094 C 21.039062 4.070312 20.753906 3.824219 20.472656 3.929688 L 19.359375 4.34375 C 19.179688 4.410156 18.984375 4.390625 18.820312 4.292969 C 18.8125 4.289062 18.804688 4.285156 18.796875 4.28125 C 18.636719 4.183594 18.523438 4.019531 18.488281 3.828125 L 18.28125 2.628906 C 18.230469 2.328125 17.878906 2.199219 17.652344 2.394531 L 16.742188 3.175781 C 16.597656 3.300781 16.40625 3.351562 16.222656 3.316406 C 16.214844 3.316406 16.207031 3.3125 16.199219 3.3125 C 16.011719 3.277344 15.851562 3.164062 15.753906 2.996094 L 15.160156 1.941406 C 15.011719 1.675781 14.636719 1.675781 14.488281 1.941406 L 13.902344 2.980469 C 13.804688 3.15625 13.636719 3.277344 13.445312 3.308594 L 13.441406 3.3125 C 13.246094 3.34375 13.046875 3.289062 12.894531 3.160156 L 11.996094 2.386719 C 11.769531 2.191406 11.417969 2.320312 11.367188 2.621094 L 11.164062 3.804688 C 11.128906 4.003906 11.011719 4.175781 10.84375 4.273438 L 10.832031 4.28125 C 10.664062 4.378906 10.464844 4.398438 10.285156 4.328125 L 9.171875 3.914062 C 8.894531 3.8125 8.609375 4.058594 8.660156 4.355469 L 8.863281 5.542969 C 8.898438 5.738281 8.84375 5.941406 8.71875 6.09375 L 8.714844 6.101562 C 8.589844 6.253906 8.40625 6.339844 8.210938 6.339844 L 7.03125 6.339844 C 6.730469 6.339844 6.546875 6.671875 6.695312 6.9375 L 7.28125 7.976562 C 7.378906 8.148438 7.394531 8.359375 7.328125 8.546875 L 7.328125 8.554688 C 7.257812 8.742188 7.113281 8.890625 6.929688 8.960938 L 5.824219 9.371094 C 5.546875 9.476562 5.480469 9.851562 5.710938 10.046875 L 6.621094 10.832031 C 6.765625 10.953125 6.847656 11.136719 6.84375 11.328125 C 6.84375 11.335938 6.84375 11.34375 6.84375 11.355469 L 6.84375 11.359375 C 6.84375 11.550781 6.761719 11.730469 6.621094 11.855469 L 5.707031 12.640625 C 5.476562 12.835938 5.542969 13.210938 5.824219 13.316406 L 6.925781 13.730469 C 7.109375 13.796875 7.253906 13.945312 7.316406 14.128906 L 7.320312 14.140625 C 7.390625 14.328125 7.371094 14.539062 7.273438 14.710938 L 6.683594 15.753906 C 6.535156 16.019531 6.722656 16.347656 7.019531 16.347656 L 8.195312 16.347656 C 8.390625 16.347656 8.578125 16.4375 8.703125 16.589844 L 8.707031 16.597656 C 8.832031 16.75 8.882812 16.949219 8.847656 17.148438 L 8.644531 18.347656 C 8.589844 18.644531 8.871094 18.886719 9.148438 18.78125 L 10.261719 18.367188 C 10.445312 18.300781 10.648438 18.316406 10.820312 18.417969 L 10.828125 18.425781 C 10.996094 18.523438 11.109375 18.691406 11.144531 18.886719 L 11.347656 20.078125 C 11.398438 20.378906 11.75 20.507812 11.980469 20.3125 L 12.878906 19.542969 C 13.027344 19.414062 13.226562 19.359375 13.417969 19.394531 L 13.421875 19.394531 C 13.617188 19.429688 13.785156 19.546875 13.882812 19.722656 L 14.46875 20.765625 C 14.621094 21.03125 14.992188 21.03125 15.140625 20.765625 L 15.726562 19.726562 C 15.824219 19.550781 15.992188 19.433594 16.1875 19.398438 L 16.199219 19.394531 C 16.386719 19.363281 16.582031 19.414062 16.730469 19.542969 L 17.632812 20.320312 C 17.863281 20.515625 18.210938 20.386719 18.265625 20.085938 L 18.46875 18.902344 C 18.5 18.703125 18.621094 18.53125 18.789062 18.433594 L 18.796875 18.425781 C 18.964844 18.328125 19.167969 18.308594 19.347656 18.378906 L 20.457031 18.792969 C 20.738281 18.894531 21.023438 18.652344 20.972656 18.351562 L 20.765625 17.160156 C 20.734375 16.964844 20.785156 16.765625 20.910156 16.613281 L 20.917969 16.605469 C 21.042969 16.453125 21.226562 16.367188 21.417969 16.367188 L 22.601562 16.367188 C 22.898438 16.367188 23.085938 16.035156 22.9375 15.769531 L 22.351562 14.734375 C 22.253906 14.558594 22.234375 14.347656 22.300781 14.160156 L 22.304688 14.152344 C 22.371094 13.964844 22.515625 13.816406 22.699219 13.75 L 23.804688 13.335938 C 24.085938 13.230469 24.148438 12.855469 23.921875 12.660156 " fill-opacity="1" fill-rule="nonzero"/></g><g clip-path="url(#bed01ff759)"><path stroke-linecap="butt" transform="matrix(0.00745593, 0, 0, -0.00763793, -3.8245, 33.745235)" fill="none" stroke-linejoin="miter" d="M 3721.381622 2760.574368 L 3599.310224 2862.859911 C 3579.925496 2879.225598 3568.923353 2903.2627 3568.923353 2928.834086 C 3568.923353 2929.856941 3568.923353 2930.879797 3568.923353 2931.391224 C 3568.923353 2956.96261 3580.449407 2981.51114 3599.834136 2997.876827 L 3721.905534 3100.16237 C 3752.292406 3125.733755 3743.90982 3174.830816 3706.188187 3188.639364 L 3556.873386 3242.850702 C 3532.773454 3251.544973 3514.436548 3270.467798 3505.530052 3294.504901 C 3505.530052 3295.527756 3505.00614 3296.550612 3504.482228 3297.573467 C 3496.099643 3321.61057 3498.195289 3347.693383 3510.769167 3369.684775 L 3590.403727 3507.770257 C 3610.312368 3542.547342 3585.688523 3585.50727 3545.347332 3585.50727 L 3386.078211 3585.50727 C 3360.930456 3585.50727 3336.830523 3597.270107 3320.589264 3616.70436 C 3320.065352 3617.215788 3319.541441 3618.238644 3319.017529 3618.750071 C 3302.252359 3638.184324 3295.441508 3663.75571 3299.632801 3688.815668 L 3327.400114 3845.823976 C 3334.734877 3885.20391 3296.489331 3917.423856 3258.767697 3903.615308 L 3109.452897 3849.40397 C 3085.352965 3840.709699 3059.157386 3843.266837 3037.153099 3856.05253 C 3036.105276 3856.563958 3035.057453 3857.075386 3034.00963 3857.586813 C 3012.529255 3870.372506 2997.335819 3891.85247 2992.620615 3916.912428 L 2964.853301 4073.920736 C 2958.042451 4113.30067 2910.890408 4130.177785 2880.503537 4104.606399 L 2758.432139 4002.320856 C 2739.04741 3985.95517 2713.375743 3979.306609 2688.751899 3983.909459 C 2687.704075 3983.909459 2686.656252 3984.420886 2685.608429 3984.420886 C 2660.460673 3989.023736 2638.980299 4003.85514 2625.882509 4025.846531 L 2546.247949 4163.932014 C 2526.339309 4198.709098 2476.043797 4198.709098 2456.135157 4163.932014 L 2377.54842 4027.892242 C 2364.450631 4004.877995 2341.922433 3989.023736 2316.250765 3984.932314 L 2315.726854 3984.420886 C 2289.531275 3980.329465 2262.811784 3987.489453 2242.379233 4004.366567 L 2121.879569 4105.629255 C 2091.492698 4131.20064 2044.340655 4114.323526 2037.529805 4074.943592 L 2010.286403 3919.980995 C 2005.571199 3893.898181 1989.853851 3871.395362 1967.325653 3858.609669 L 1965.753918 3857.586813 C 1943.225721 3844.801121 1916.50623 3842.243982 1892.406297 3851.449681 L 1743.091497 3905.661019 C 1705.893775 3918.958139 1667.64823 3886.738193 1674.45908 3847.869687 L 1701.702482 3692.395662 C 1706.417686 3666.824276 1699.082924 3640.230035 1682.317754 3620.284354 L 1681.793842 3619.261499 C 1665.028672 3599.315818 1640.404827 3588.064408 1614.209248 3588.064408 L 1455.987951 3588.064408 C 1415.64676 3588.064408 1391.022915 3544.593053 1410.931555 3509.815968 L 1489.518292 3373.776196 C 1502.616082 3351.273377 1504.711728 3323.656281 1495.805231 3299.10775 L 1495.805231 3298.084895 C 1486.374823 3273.536365 1466.990094 3254.102112 1442.36625 3244.896413 L 1294.099273 3191.196503 C 1256.901551 3177.387955 1247.995054 3128.290894 1278.905837 3102.719508 L 1400.977235 2999.922538 C 1420.361964 2984.068279 1431.364107 2960.031176 1430.840195 2934.971218 C 1430.840195 2933.948363 1430.840195 2932.925507 1430.840195 2931.391224 L 1430.840195 2930.879797 C 1430.840195 2905.819839 1419.838052 2882.294164 1400.977235 2865.928477 L 1278.381926 2763.131507 C 1247.471143 2737.560121 1256.377639 2688.46306 1294.099273 2674.654512 L 1441.842339 2620.443175 C 1466.466183 2611.748903 1485.850911 2592.31465 1494.233497 2568.277548 L 1494.757408 2566.743265 C 1504.187817 2542.194734 1501.568259 2514.577638 1488.470469 2492.074818 L 1409.359821 2355.523619 C 1389.451181 2320.746534 1414.598936 2277.786606 1454.416217 2277.786606 L 1612.113602 2277.786606 C 1638.309181 2277.786606 1663.456937 2266.023769 1680.222107 2246.078088 L 1680.746019 2245.055233 C 1697.51119 2225.109552 1704.32204 2199.026739 1699.606836 2172.943925 L 1672.363434 2015.935617 C 1665.028672 1977.067111 1702.750305 1945.358593 1739.948028 1959.167141 L 1889.262828 2013.378479 C 1913.886672 2022.07275 1941.130074 2020.027039 1964.182184 2006.729918 L 1965.230007 2005.707063 C 1987.758205 1992.92137 2002.951641 1970.929978 2007.666845 1945.358593 L 2034.910247 1789.37314 C 2041.721098 1749.993206 2088.87314 1733.116092 2119.783923 1758.687477 L 2240.283586 1859.438737 C 2260.192226 1876.315851 2286.911717 1883.475839 2312.583384 1878.87299 L 2313.107296 1878.87299 C 2339.302875 1874.270141 2361.831073 1858.927309 2374.928862 1835.913062 L 2453.515599 1699.361863 C 2473.948151 1664.584778 2523.719751 1664.584778 2543.628391 1699.361863 L 2622.215128 1835.401634 C 2635.312917 1858.415881 2657.841115 1873.758713 2684.036694 1878.361562 L 2685.608429 1878.87299 C 2710.756185 1882.964412 2736.951764 1876.315851 2756.860404 1859.438737 L 2877.883979 1757.664622 C 2908.794762 1732.093236 2955.422893 1748.970351 2962.757655 1788.350285 L 2990.001057 1943.312882 C 2994.19235 1969.395695 3010.433609 1991.898515 3032.961807 2004.684207 L 3034.00963 2005.707063 C 3056.537828 2018.492756 3083.78123 2021.049894 3107.881162 2011.844195 L 3256.672051 1957.632858 C 3294.393685 1944.335737 3332.63923 1976.044256 3325.82838 2015.424189 L 3298.061066 2171.409642 C 3293.869773 2196.981028 3300.680624 2223.063841 3317.445794 2243.009522 L 3318.493618 2244.032377 C 3335.258788 2263.978058 3359.882632 2275.229468 3385.5543 2275.229468 L 3544.299508 2275.229468 C 3584.116789 2275.229468 3609.264544 2318.700824 3589.355904 2353.477908 L 3510.769167 2489.006252 C 3497.671378 2512.020499 3495.05182 2539.637596 3503.958317 2564.186126 L 3504.482228 2565.208981 C 3513.388725 2589.757512 3532.773454 2609.191765 3557.397298 2617.886036 L 3705.664275 2672.097374 C 3743.385909 2685.905922 3751.768494 2735.002982 3721.381622 2760.574368 Z M 3721.381622 2760.574368 " stroke="#ffffff" stroke-width="34.703999" stroke-opacity="1" stroke-miterlimit="10"/></g><path fill="#ffffff" d="M 21.878906 11.355469 C 21.878906 15.351562 18.71875 18.589844 14.816406 18.589844 C 10.914062 18.589844 7.75 15.351562 7.75 11.355469 C 7.75 7.355469 10.914062 4.117188 14.816406 4.117188 C 18.71875 4.117188 21.878906 7.355469 21.878906 11.355469 " fill-opacity="1" fill-rule="nonzero"/><path fill="#2f9c00" d="M 21.441406 11.355469 C 21.441406 15.101562 18.472656 18.140625 14.816406 18.140625 C 11.15625 18.140625 8.191406 15.101562 8.191406 11.355469 C 8.191406 7.605469 11.15625 4.566406 14.816406 4.566406 C 18.472656 4.566406 21.441406 7.605469 21.441406 11.355469 " fill-opacity="1" fill-rule="nonzero"/><path fill="#ffffff" d="M 13.65625 14.40625 L 11.203125 11.984375 C 10.871094 11.65625 10.863281 11.109375 11.183594 10.769531 C 11.503906 10.429688 12.035156 10.417969 12.367188 10.746094 L 14.136719 12.496094 L 17.183594 8.3125 C 17.460938 7.929688 17.988281 7.851562 18.359375 8.136719 C 18.730469 8.421875 18.804688 8.957031 18.527344 9.339844 L 14.910156 14.304688 C 14.609375 14.71875 14.019531 14.765625 13.65625 14.40625 " fill-opacity="1" fill-rule="nonzero"/></svg>