<svg xmlns="http://www.w3.org/2000/svg" xmlns:xlink="http://www.w3.org/1999/xlink" width="70" zoomAndPan="magnify" viewBox="0 0 52.5 30.000001" height="40" preserveAspectRatio="xMidYMid meet" version="1.0"><defs><clipPath id="cc618fa073"><path d="M 6 16 L 47 16 L 47 28.558594 L 6 28.558594 Z M 6 16 " clip-rule="nonzero"/></clipPath><clipPath id="4cbf6382e6"><path d="M 4.019531 2 L 19 2 L 19 27 L 4.019531 27 Z M 4.019531 2 " clip-rule="nonzero"/></clipPath><clipPath id="78032d09ff"><path d="M 6 0.253906 L 47 0.253906 L 47 17 L 6 17 Z M 6 0.253906 " clip-rule="nonzero"/></clipPath><clipPath id="e321372b7f"><path d="M 33 2 L 48.296875 2 L 48.296875 27 L 33 27 Z M 33 2 " clip-rule="nonzero"/></clipPath></defs><g clip-path="url(#cc618fa073)"><path fill="#00a8e2" d="M 46.042969 28.257812 L 32.085938 16.664062 C 31.679688 16.328125 31.085938 16.328125 30.679688 16.664062 L 26.917969 19.789062 C 26.539062 20.101562 25.992188 20.101562 25.613281 19.789062 L 21.851562 16.664062 C 21.445312 16.328125 20.851562 16.328125 20.445312 16.664062 L 6.484375 28.257812 C 6.292969 28.414062 6.40625 28.726562 6.65625 28.726562 L 45.875 28.726562 C 46.125 28.726562 46.238281 28.414062 46.042969 28.257812 " fill-opacity="1" fill-rule="nonzero"/></g><g clip-path="url(#4cbf6382e6)"><path fill="#00a8e2" d="M 18.699219 14.050781 L 4.464844 2.230469 C 4.289062 2.085938 4.027344 2.207031 4.027344 2.433594 L 4.027344 26.589844 C 4.027344 26.816406 4.289062 26.941406 4.464844 26.796875 L 18.699219 14.976562 C 18.992188 14.734375 18.992188 14.289062 18.699219 14.050781 " fill-opacity="1" fill-rule="nonzero"/></g><g clip-path="url(#78032d09ff)"><path fill="#00a8e2" d="M 6.484375 0.769531 L 25.730469 16.75 C 26.039062 17.003906 26.488281 17.003906 26.800781 16.75 L 46.042969 0.769531 C 46.238281 0.609375 46.125 0.296875 45.875 0.296875 L 6.65625 0.296875 C 6.40625 0.296875 6.292969 0.609375 6.484375 0.769531 " fill-opacity="1" fill-rule="nonzero"/></g><g clip-path="url(#e321372b7f)"><path fill="#00a8e2" d="M 48.066406 2.230469 L 33.828125 14.050781 C 33.539062 14.289062 33.539062 14.734375 33.828125 14.976562 L 48.066406 26.796875 C 48.238281 26.941406 48.503906 26.816406 48.503906 26.589844 L 48.503906 2.433594 C 48.503906 2.207031 48.238281 2.085938 48.066406 2.230469 " fill-opacity="1" fill-rule="nonzero"/></g></svg>