<svg xmlns="http://www.w3.org/2000/svg" xmlns:xlink="http://www.w3.org/1999/xlink" width="40" zoomAndPan="magnify" viewBox="0 0 30 30.000001" height="40" preserveAspectRatio="xMidYMid meet" version="1.0"><defs><clipPath id="315d9e8be8"><path d="M 3 15 L 27 15 L 27 22.96875 L 3 22.96875 Z M 3 15 " clip-rule="nonzero"/></clipPath><clipPath id="99daeb5489"><path d="M 2.152344 7 L 11 7 L 11 22 L 2.152344 22 Z M 2.152344 7 " clip-rule="nonzero"/></clipPath><clipPath id="5d4c19b971"><path d="M 3 6.277344 L 27 6.277344 L 27 16 L 3 16 Z M 3 6.277344 " clip-rule="nonzero"/></clipPath><clipPath id="5ae7962629"><path d="M 19 7 L 27.554688 7 L 27.554688 22 L 19 22 Z M 19 7 " clip-rule="nonzero"/></clipPath></defs><g clip-path="url(#315d9e8be8)"><path fill="#00a8e2" d="M 26.421875 22.453125 L 18.359375 15.757812 C 18.125 15.5625 17.78125 15.5625 17.546875 15.757812 L 15.375 17.5625 C 15.15625 17.742188 14.839844 17.742188 14.621094 17.5625 L 12.449219 15.757812 C 12.210938 15.5625 11.871094 15.5625 11.636719 15.757812 L 3.574219 22.453125 C 3.464844 22.542969 3.527344 22.726562 3.671875 22.726562 L 26.320312 22.726562 C 26.464844 22.726562 26.53125 22.542969 26.421875 22.453125 " fill-opacity="1" fill-rule="nonzero"/></g><g clip-path="url(#99daeb5489)"><path fill="#00a8e2" d="M 10.628906 14.246094 L 2.40625 7.421875 C 2.308594 7.335938 2.15625 7.410156 2.15625 7.539062 L 2.15625 21.492188 C 2.15625 21.621094 2.308594 21.691406 2.40625 21.609375 L 10.628906 14.78125 C 10.796875 14.644531 10.796875 14.386719 10.628906 14.246094 " fill-opacity="1" fill-rule="nonzero"/></g><g clip-path="url(#5d4c19b971)"><path fill="#00a8e2" d="M 3.574219 6.578125 L 14.6875 15.804688 C 14.867188 15.953125 15.125 15.953125 15.304688 15.804688 L 26.421875 6.578125 C 26.53125 6.484375 26.464844 6.304688 26.320312 6.304688 L 3.671875 6.304688 C 3.527344 6.304688 3.464844 6.484375 3.574219 6.578125 " fill-opacity="1" fill-rule="nonzero"/></g><g clip-path="url(#5ae7962629)"><path fill="#00a8e2" d="M 27.585938 7.421875 L 19.367188 14.246094 C 19.199219 14.386719 19.199219 14.644531 19.367188 14.78125 L 27.585938 21.609375 C 27.6875 21.691406 27.839844 21.621094 27.839844 21.492188 L 27.839844 7.539062 C 27.839844 7.410156 27.6875 7.335938 27.585938 7.421875 " fill-opacity="1" fill-rule="nonzero"/></g></svg>