<svg xmlns="http://www.w3.org/2000/svg" xmlns:xlink="http://www.w3.org/1999/xlink" width="40" zoomAndPan="magnify" viewBox="0 0 30 30.000001" height="40" preserveAspectRatio="xMidYMid meet" version="1.0"><defs><clipPath id="6474ee969f"><path d="M 8 5 L 23.703125 5 L 23.703125 25.324219 L 8 25.324219 Z M 8 5 " clip-rule="nonzero"/></clipPath><clipPath id="5a379fac34"><path d="M 6.285156 3.546875 L 22 3.546875 L 22 24 L 6.285156 24 Z M 6.285156 3.546875 " clip-rule="nonzero"/></clipPath><clipPath id="533ee9895b"><path d="M 6.285156 3.546875 L 23.703125 3.546875 L 23.703125 25.324219 L 6.285156 25.324219 Z M 6.285156 3.546875 " clip-rule="nonzero"/></clipPath><clipPath id="6e7e8b098d"><path d="M 6.285156 4 L 13 4 L 13 9 L 6.285156 9 Z M 6.285156 4 " clip-rule="nonzero"/></clipPath></defs><g clip-path="url(#6474ee969f)"><path fill="#fbe2ae" d="M 23.523438 5.03125 L 23.523438 25.148438 L 8.460938 25.148438 L 8.460938 23.839844 L 21.53125 23.839844 L 21.53125 5.03125 Z M 23.523438 5.03125 " fill-opacity="1" fill-rule="nonzero"/></g><g clip-path="url(#5a379fac34)"><path fill="#e2ece1" d="M 21.53125 5.03125 L 21.53125 23.839844 L 6.464844 23.839844 L 6.464844 3.722656 L 21.53125 3.722656 Z M 21.53125 5.03125 " fill-opacity="1" fill-rule="nonzero"/></g><path fill="#f9b132" d="M 10.234375 21.871094 C 11.210938 21.871094 12.003906 21.085938 12.003906 20.121094 C 12.003906 19.15625 11.210938 18.371094 10.234375 18.371094 C 9.253906 18.371094 8.460938 19.15625 8.460938 20.121094 C 8.460938 21.085938 9.253906 21.871094 10.234375 21.871094 Z M 10.234375 17.496094 C 11.699219 17.496094 12.890625 18.671875 12.890625 20.121094 C 12.890625 21.570312 11.699219 22.746094 10.234375 22.746094 C 8.761719 22.746094 7.574219 21.570312 7.574219 20.121094 C 7.574219 18.671875 8.761719 17.496094 10.234375 17.496094 Z M 10.234375 17.496094 " fill-opacity="1" fill-rule="nonzero"/><path fill="#fbc88e" d="M 10.234375 18.371094 C 11.210938 18.371094 12.003906 19.15625 12.003906 20.121094 C 12.003906 21.085938 11.210938 21.871094 10.234375 21.871094 C 9.253906 21.871094 8.460938 21.085938 8.460938 20.121094 C 8.460938 19.15625 9.253906 18.371094 10.234375 18.371094 Z M 10.234375 18.371094 " fill-opacity="1" fill-rule="nonzero"/><path fill="#9c9d9c" d="M 10.453125 8.3125 C 10.15625 8.3125 9.863281 8.3125 9.566406 8.3125 L 8.683594 8.3125 C 8.796875 7.925781 9.160156 7.65625 9.566406 7.65625 C 9.976562 7.65625 10.339844 7.925781 10.453125 8.3125 Z M 10.453125 8.3125 " fill-opacity="1" fill-rule="nonzero"/><path fill="#f9b132" d="M 7.132812 6.78125 L 8.460938 6.78125 C 8.460938 7.144531 8.164062 7.4375 7.796875 7.4375 C 7.429688 7.4375 7.132812 7.144531 7.132812 6.78125 Z M 7.132812 6.78125 " fill-opacity="1" fill-rule="nonzero"/><path fill="#f9b132" d="M 12.003906 6.78125 C 12.003906 7.144531 11.707031 7.4375 11.339844 7.4375 C 10.972656 7.4375 10.675781 7.144531 10.675781 6.78125 Z M 12.003906 6.78125 " fill-opacity="1" fill-rule="nonzero"/><path fill="#be3a3c" d="M 9.980469 5.1875 C 9.917969 5.351562 9.757812 5.46875 9.566406 5.46875 C 9.378906 5.46875 9.214844 5.351562 9.152344 5.1875 C 9.132812 5.136719 9.125 5.085938 9.125 5.03125 C 9.125 4.792969 9.324219 4.597656 9.566406 4.597656 C 9.8125 4.597656 10.011719 4.792969 10.011719 5.03125 C 10.011719 5.085938 10 5.136719 9.980469 5.1875 Z M 9.980469 5.1875 " fill-opacity="1" fill-rule="nonzero"/><g clip-path="url(#533ee9895b)"><path fill="#3a322b" d="M 23.523438 4.859375 L 21.703125 4.859375 L 21.703125 3.722656 C 21.703125 3.625 21.628906 3.546875 21.53125 3.546875 L 6.464844 3.546875 C 6.371094 3.546875 6.292969 3.625 6.292969 3.722656 L 6.292969 23.839844 C 6.292969 23.933594 6.371094 24.011719 6.464844 24.011719 L 8.285156 24.011719 L 8.285156 25.148438 C 8.285156 25.246094 8.363281 25.324219 8.460938 25.324219 L 23.523438 25.324219 C 23.621094 25.324219 23.699219 25.246094 23.699219 25.148438 L 23.699219 5.035156 C 23.699219 4.9375 23.621094 4.859375 23.523438 4.859375 Z M 6.640625 3.894531 L 21.355469 3.894531 L 21.355469 23.664062 L 6.640625 23.664062 Z M 23.351562 24.976562 L 8.632812 24.976562 L 8.632812 24.011719 L 21.53125 24.011719 C 21.628906 24.011719 21.707031 23.933594 21.707031 23.839844 L 21.707031 5.207031 L 23.351562 5.207031 Z M 23.351562 24.976562 " fill-opacity="1" fill-rule="nonzero"/></g><g clip-path="url(#6e7e8b098d)"><path fill="#3a322b" d="M 8.632812 6.78125 C 8.632812 6.777344 8.632812 6.773438 8.632812 6.769531 C 8.628906 6.757812 8.628906 6.75 8.625 6.738281 C 8.621094 6.726562 8.617188 6.714844 8.613281 6.703125 C 8.609375 6.699219 8.609375 6.695312 8.609375 6.691406 L 8.054688 5.777344 L 9.078125 5.398438 C 9.15625 5.503906 9.265625 5.578125 9.394531 5.617188 L 9.394531 7.5 C 8.980469 7.566406 8.632812 7.859375 8.515625 8.265625 C 8.5 8.316406 8.507812 8.371094 8.542969 8.417969 C 8.574219 8.460938 8.625 8.484375 8.679688 8.484375 L 10.453125 8.484375 C 10.507812 8.484375 10.558594 8.460938 10.59375 8.417969 C 10.625 8.371094 10.636719 8.316406 10.621094 8.265625 C 10.5 7.859375 10.152344 7.566406 9.742188 7.5 L 9.742188 5.617188 C 9.871094 5.578125 9.980469 5.503906 10.058594 5.398438 L 11.082031 5.777344 L 10.527344 6.691406 C 10.523438 6.695312 10.523438 6.699219 10.523438 6.703125 C 10.515625 6.714844 10.515625 6.726562 10.511719 6.738281 C 10.507812 6.75 10.503906 6.757812 10.503906 6.769531 C 10.503906 6.773438 10.5 6.777344 10.5 6.78125 C 10.5 7.238281 10.878906 7.609375 11.339844 7.609375 C 11.800781 7.609375 12.179688 7.238281 12.179688 6.78125 C 12.179688 6.777344 12.175781 6.773438 12.175781 6.769531 C 12.175781 6.757812 12.171875 6.75 12.167969 6.738281 C 12.167969 6.726562 12.164062 6.714844 12.15625 6.703125 C 12.15625 6.699219 12.15625 6.695312 12.152344 6.691406 L 11.488281 5.601562 C 11.484375 5.59375 11.476562 5.589844 11.472656 5.582031 C 11.46875 5.574219 11.460938 5.566406 11.453125 5.5625 C 11.441406 5.550781 11.429688 5.542969 11.414062 5.535156 C 11.410156 5.535156 11.40625 5.527344 11.402344 5.527344 L 10.179688 5.074219 C 10.179688 5.0625 10.183594 5.046875 10.183594 5.03125 C 10.183594 4.695312 9.90625 4.421875 9.566406 4.421875 C 9.226562 4.421875 8.949219 4.695312 8.949219 5.03125 C 8.949219 5.046875 8.953125 5.0625 8.953125 5.074219 L 7.734375 5.527344 C 7.730469 5.527344 7.726562 5.535156 7.71875 5.535156 C 7.707031 5.542969 7.695312 5.550781 7.683594 5.5625 C 7.675781 5.566406 7.667969 5.574219 7.660156 5.582031 C 7.65625 5.589844 7.648438 5.59375 7.644531 5.601562 L 6.980469 6.691406 C 6.980469 6.695312 6.980469 6.699219 6.976562 6.703125 C 6.972656 6.714844 6.96875 6.726562 6.964844 6.738281 C 6.960938 6.75 6.960938 6.757812 6.957031 6.769531 C 6.957031 6.773438 6.957031 6.777344 6.957031 6.78125 C 6.957031 7.238281 7.332031 7.609375 7.796875 7.609375 C 8.257812 7.609375 8.632812 7.238281 8.632812 6.78125 Z M 11.339844 6.023438 L 11.695312 6.609375 L 10.984375 6.609375 Z M 11.339844 7.265625 C 11.132812 7.265625 10.953125 7.136719 10.882812 6.957031 L 11.796875 6.957031 C 11.726562 7.136719 11.546875 7.265625 11.339844 7.265625 Z M 10.175781 8.140625 L 8.957031 8.140625 C 9.097656 7.949219 9.320312 7.828125 9.566406 7.828125 C 9.8125 7.828125 10.039062 7.949219 10.175781 8.140625 Z M 9.566406 4.769531 C 9.714844 4.769531 9.835938 4.886719 9.835938 5.035156 C 9.835938 5.179688 9.714844 5.296875 9.566406 5.296875 C 9.417969 5.296875 9.296875 5.179688 9.296875 5.035156 C 9.296875 4.886719 9.417969 4.769531 9.566406 4.769531 Z M 8.152344 6.609375 L 7.4375 6.609375 L 7.796875 6.023438 Z M 7.335938 6.957031 L 8.253906 6.957031 C 8.183594 7.136719 8.003906 7.265625 7.796875 7.265625 C 7.585938 7.265625 7.40625 7.136719 7.335938 6.957031 Z M 7.335938 6.957031 " fill-opacity="1" fill-rule="nonzero"/></g><path fill="#3a322b" d="M 14 5.863281 L 18.429688 5.863281 C 18.523438 5.863281 18.601562 5.785156 18.601562 5.6875 C 18.601562 5.59375 18.523438 5.515625 18.429688 5.515625 L 14 5.515625 C 13.902344 5.515625 13.824219 5.59375 13.824219 5.6875 C 13.824219 5.785156 13.902344 5.863281 14 5.863281 Z M 14 5.863281 " fill-opacity="1" fill-rule="nonzero"/><path fill="#3a322b" d="M 13.332031 7.394531 L 20.203125 7.394531 C 20.296875 7.394531 20.375 7.316406 20.375 7.21875 C 20.375 7.125 20.296875 7.046875 20.203125 7.046875 L 13.332031 7.046875 C 13.238281 7.046875 13.160156 7.125 13.160156 7.21875 C 13.160156 7.316406 13.238281 7.394531 13.332031 7.394531 Z M 13.332031 7.394531 " fill-opacity="1" fill-rule="nonzero"/><path fill="#3a322b" d="M 10.898438 9.671875 L 8.238281 9.671875 C 8.140625 9.671875 8.0625 9.75 8.0625 9.84375 C 8.0625 9.9375 8.140625 10.015625 8.238281 10.015625 L 10.898438 10.015625 C 10.992188 10.015625 11.070312 9.9375 11.070312 9.84375 C 11.070312 9.75 10.992188 9.671875 10.898438 9.671875 Z M 10.898438 9.671875 " fill-opacity="1" fill-rule="nonzero"/><path fill="#3a322b" d="M 9.171875 11.15625 C 9.171875 11.25 9.25 11.328125 9.347656 11.328125 L 19.757812 11.328125 C 19.855469 11.328125 19.933594 11.25 19.933594 11.15625 C 19.933594 11.058594 19.855469 10.984375 19.757812 10.984375 L 9.347656 10.984375 C 9.25 10.984375 9.171875 11.058594 9.171875 11.15625 Z M 9.171875 11.15625 " fill-opacity="1" fill-rule="nonzero"/><path fill="#3a322b" d="M 8.238281 13.078125 L 19.757812 13.078125 C 19.855469 13.078125 19.933594 13 19.933594 12.90625 C 19.933594 12.808594 19.855469 12.730469 19.757812 12.730469 L 8.238281 12.730469 C 8.140625 12.730469 8.0625 12.808594 8.0625 12.90625 C 8.0625 13 8.140625 13.078125 8.238281 13.078125 Z M 8.238281 13.078125 " fill-opacity="1" fill-rule="nonzero"/><path fill="#3a322b" d="M 8.238281 15.046875 L 19.757812 15.046875 C 19.855469 15.046875 19.933594 14.96875 19.933594 14.871094 C 19.933594 14.777344 19.855469 14.699219 19.757812 14.699219 L 8.238281 14.699219 C 8.140625 14.699219 8.0625 14.777344 8.0625 14.871094 C 8.0625 14.96875 8.140625 15.046875 8.238281 15.046875 Z M 8.238281 15.046875 " fill-opacity="1" fill-rule="nonzero"/><path fill="#3a322b" d="M 12.890625 16.796875 L 19.757812 16.796875 C 19.855469 16.796875 19.933594 16.71875 19.933594 16.621094 C 19.933594 16.527344 19.855469 16.449219 19.757812 16.449219 L 12.890625 16.449219 C 12.792969 16.449219 12.714844 16.527344 12.714844 16.621094 C 12.714844 16.71875 12.792969 16.796875 12.890625 16.796875 Z M 12.890625 16.796875 " fill-opacity="1" fill-rule="nonzero"/><path fill="#3a322b" d="M 13.066406 20.121094 C 13.066406 18.578125 11.792969 17.324219 10.230469 17.324219 C 8.671875 17.324219 7.398438 18.578125 7.398438 20.121094 C 7.398438 21.664062 8.671875 22.917969 10.230469 22.917969 C 11.792969 22.917969 13.066406 21.664062 13.066406 20.121094 Z M 7.746094 20.121094 C 7.746094 18.769531 8.863281 17.667969 10.230469 17.667969 C 11.601562 17.667969 12.714844 18.769531 12.714844 20.121094 C 12.714844 21.472656 11.601562 22.570312 10.230469 22.570312 C 8.863281 22.570312 7.746094 21.472656 7.746094 20.121094 Z M 7.746094 20.121094 " fill-opacity="1" fill-rule="nonzero"/><path fill="#3a322b" d="M 12.179688 20.121094 C 12.179688 19.0625 11.304688 18.199219 10.230469 18.199219 C 9.160156 18.199219 8.285156 19.0625 8.285156 20.121094 C 8.285156 21.179688 9.160156 22.042969 10.230469 22.042969 C 11.304688 22.042969 12.179688 21.179688 12.179688 20.121094 Z M 8.632812 20.121094 C 8.632812 19.25 9.351562 18.542969 10.230469 18.542969 C 11.113281 18.542969 11.832031 19.25 11.832031 20.121094 C 11.832031 20.988281 11.113281 21.699219 10.230469 21.699219 C 9.351562 21.699219 8.632812 20.988281 8.632812 20.121094 Z M 8.632812 20.121094 " fill-opacity="1" fill-rule="nonzero"/><path fill="#3a322b" d="M 11.007812 19.332031 C 10.933594 19.269531 10.824219 19.28125 10.761719 19.355469 L 9.804688 20.488281 L 9.492188 20.023438 C 9.4375 19.945312 9.328125 19.921875 9.25 19.976562 C 9.167969 20.03125 9.148438 20.136719 9.203125 20.21875 L 9.644531 20.875 C 9.675781 20.917969 9.726562 20.945312 9.78125 20.949219 C 9.78125 20.949219 9.785156 20.949219 9.789062 20.949219 C 9.839844 20.949219 9.890625 20.925781 9.921875 20.886719 L 11.03125 19.574219 C 11.09375 19.503906 11.082031 19.394531 11.007812 19.332031 Z M 11.007812 19.332031 " fill-opacity="1" fill-rule="nonzero"/><path fill="#3a322b" d="M 20.140625 20.144531 C 19.9375 20.222656 19.726562 20.292969 19.519531 20.351562 C 19.292969 20.414062 19.066406 20.464844 18.835938 20.503906 C 18.855469 20.453125 18.871094 20.402344 18.886719 20.347656 C 18.929688 20.179688 18.992188 19.945312 18.851562 19.777344 C 18.710938 19.605469 18.433594 19.585938 18.023438 19.722656 C 17.722656 19.824219 17.46875 19.992188 17.265625 20.167969 C 17.273438 20.015625 17.246094 19.867188 17.144531 19.765625 C 16.925781 19.539062 16.519531 19.65625 15.886719 19.9375 C 15.230469 20.230469 14.578125 20.589844 13.953125 21.003906 C 13.875 21.058594 13.851562 21.164062 13.90625 21.246094 C 13.941406 21.292969 13.996094 21.320312 14.050781 21.320312 C 14.085938 21.320312 14.117188 21.3125 14.148438 21.292969 C 14.757812 20.886719 15.390625 20.539062 16.03125 20.253906 C 16.746094 19.933594 16.871094 19.984375 16.894531 20.003906 C 16.898438 20.007812 16.964844 20.082031 16.851562 20.46875 C 16.808594 20.617188 16.730469 20.730469 16.691406 20.792969 C 16.589844 20.941406 16.640625 21.027344 16.703125 21.074219 C 16.738281 21.101562 16.785156 21.117188 16.832031 21.109375 C 16.914062 21.097656 16.949219 21.050781 17.015625 20.960938 C 17.160156 20.765625 17.550781 20.246094 18.136719 20.046875 C 18.445312 19.945312 18.566406 19.980469 18.582031 19.996094 C 18.609375 20.03125 18.5625 20.207031 18.546875 20.261719 C 18.515625 20.390625 18.453125 20.511719 18.367188 20.621094 C 18.324219 20.675781 18.320312 20.75 18.351562 20.8125 C 18.386719 20.871094 18.457031 20.90625 18.527344 20.898438 C 18.890625 20.855469 19.257812 20.78125 19.613281 20.683594 C 19.832031 20.621094 20.050781 20.546875 20.265625 20.46875 C 20.355469 20.433594 20.398438 20.332031 20.363281 20.242188 C 20.328125 20.15625 20.226562 20.109375 20.140625 20.144531 Z M 20.140625 20.144531 " fill-opacity="1" fill-rule="nonzero"/><path fill="#3a322b" d="M 19.519531 21.480469 L 15.089844 21.917969 C 14.992188 21.925781 14.921875 22.011719 14.933594 22.105469 C 14.941406 22.195312 15.015625 22.261719 15.105469 22.261719 C 15.113281 22.261719 15.117188 22.261719 15.125 22.261719 L 19.554688 21.824219 C 19.648438 21.8125 19.71875 21.730469 19.710938 21.632812 C 19.699219 21.539062 19.617188 21.46875 19.519531 21.480469 Z M 19.519531 21.480469 " fill-opacity="1" fill-rule="nonzero"/></svg>