<svg xmlns="http://www.w3.org/2000/svg" xmlns:xlink="http://www.w3.org/1999/xlink" width="40" zoomAndPan="magnify" viewBox="0 0 30 30.000001" height="40" preserveAspectRatio="xMidYMid meet" version="1.0"><defs><clipPath id="068f7f1ef9"><path d="M 3 2.359375 L 27.777344 2.359375 L 27.777344 26 L 3 26 Z M 3 2.359375 " clip-rule="nonzero"/></clipPath></defs><g clip-path="url(#068f7f1ef9)"><path fill="#e81e25" d="M 6.222656 2.621094 C 6.222656 2.621094 2.367188 6.929688 4.082031 10.644531 C 5.679688 14.109375 10.511719 22.148438 18.625 25.441406 C 19.808594 25.921875 21.109375 26.109375 22.367188 25.882812 C 23.308594 25.710938 25.910156 25.144531 26.765625 24.125 C 26.855469 24.015625 27.023438 23.890625 27.191406 23.628906 C 27.339844 23.402344 27.617188 23.101562 27.511719 22.585938 C 27.375 21.894531 24.453125 19.199219 23.324219 18.179688 C 22.992188 17.878906 22.5625 17.699219 22.117188 17.699219 C 21.828125 17.699219 21.5625 17.765625 21.453125 17.957031 C 20.667969 19.359375 19.835938 20.285156 19.132812 20.65625 C 18.207031 21.136719 12.464844 17.148438 10.148438 12.46875 C 9.789062 11.746094 9.941406 10.871094 10.527344 10.316406 C 11.253906 9.621094 12.429688 8.441406 12.464844 8.203125 C 12.519531 7.804688 12.367188 7.554688 12.140625 7.042969 C 11.960938 6.636719 9.335938 4.066406 8.226562 2.992188 C 7.824219 2.601562 7.285156 2.371094 6.726562 2.390625 C 6.542969 2.398438 6.296875 2.53125 6.222656 2.621094 Z M 6.222656 2.621094 " fill-opacity="1" fill-rule="nonzero"/></g></svg>