<svg xmlns="http://www.w3.org/2000/svg" xmlns:xlink="http://www.w3.org/1999/xlink" width="540" zoomAndPan="magnify" viewBox="0 0 404.88 269.999989" height="360" preserveAspectRatio="xMidYMid meet" version="1.0"><defs><clipPath id="c8d3e1d7d1"><path d="M 67.480469 0.0390625 L 337.398438 0.0390625 L 337.398438 269.960938 L 67.480469 269.960938 Z M 67.480469 0.0390625 " clip-rule="nonzero"/></clipPath></defs><g clip-path="url(#c8d3e1d7d1)"><path fill="#1a5da9" d="M 101.222656 0.0390625 L 303.667969 0.0390625 C 322.226562 0.0390625 337.410156 15.222656 337.410156 33.78125 L 337.410156 236.230469 C 337.410156 254.785156 322.226562 269.972656 303.667969 269.972656 L 101.222656 269.972656 C 82.664062 269.972656 67.480469 254.785156 67.480469 236.230469 L 67.480469 33.78125 C 67.480469 15.222656 82.664062 0.0390625 101.222656 0.0390625 " fill-opacity="1" fill-rule="evenodd"/></g><path fill="#fffffe" d="M 268.417969 56.28125 L 268.417969 38.460938 C 268.429688 38.339844 268.433594 38.214844 268.433594 38.085938 C 268.433594 35.761719 266.546875 33.871094 264.214844 33.871094 L 105.441406 33.871094 C 103.109375 33.871094 101.222656 35.761719 101.222656 38.085938 L 101.222656 182.433594 C 101.222656 184.761719 103.109375 186.652344 105.441406 186.652344 L 113.679688 186.652344 L 113.679688 64.714844 C 113.679688 60.058594 117.457031 56.28125 122.113281 56.28125 L 268.417969 56.28125 " fill-opacity="1" fill-rule="nonzero"/><path fill="#fffffe" d="M 140.671875 83.359375 L 299.449219 83.359375 C 301.78125 83.359375 303.667969 85.25 303.667969 87.578125 L 303.667969 231.921875 C 303.667969 234.25 301.78125 236.140625 299.449219 236.140625 L 140.671875 236.140625 C 138.34375 236.140625 136.457031 234.25 136.457031 231.921875 L 136.457031 87.578125 C 136.457031 85.25 138.34375 83.359375 140.671875 83.359375 Z M 269.289062 121.867188 C 266.980469 119.5625 263.792969 118.132812 260.273438 118.132812 C 256.753906 118.132812 253.566406 119.5625 251.257812 121.867188 C 248.953125 124.171875 247.527344 127.359375 247.527344 130.882812 C 247.527344 134.402344 248.953125 137.589844 251.257812 139.894531 C 253.566406 142.203125 256.753906 143.628906 260.273438 143.628906 C 263.792969 143.628906 266.980469 142.203125 269.289062 139.894531 C 271.59375 137.589844 273.019531 134.402344 273.019531 130.882812 C 273.019531 127.359375 271.59375 124.171875 269.289062 121.867188 Z M 295.234375 207.894531 L 281.664062 183.015625 C 281.417969 182.445312 281.035156 181.921875 280.53125 181.492188 C 278.757812 179.984375 276.09375 180.203125 274.585938 181.976562 L 277.800781 184.707031 L 274.585938 181.988281 L 257.976562 201.539062 L 229.03125 148.957031 C 228.742188 148.339844 228.300781 147.789062 227.710938 147.355469 C 225.832031 145.980469 223.191406 146.382812 221.816406 148.265625 L 225.21875 150.757812 L 221.824219 148.269531 L 163.585938 227.707031 L 295.234375 227.707031 Z M 144.890625 195.464844 L 144.890625 227.707031 L 158.355469 227.707031 L 198.6875 172.695312 L 183.277344 151.125 L 179.851562 153.566406 L 183.285156 151.113281 C 181.933594 149.214844 179.296875 148.777344 177.402344 150.132812 C 176.914062 150.480469 176.523438 150.910156 176.234375 151.394531 L 144.890625 195.464844 " fill-opacity="1" fill-rule="nonzero"/><path fill="#fffffe" d="M 285.109375 79.144531 L 285.109375 64.714844 C 285.109375 62.386719 283.222656 60.5 280.894531 60.5 L 122.113281 60.5 C 119.785156 60.5 117.898438 62.386719 117.898438 64.714844 L 117.898438 209.058594 C 117.898438 211.390625 119.785156 213.277344 122.113281 213.277344 L 132.238281 213.277344 L 132.238281 87.578125 C 132.238281 82.921875 136.019531 79.144531 140.671875 79.144531 L 285.109375 79.144531 " fill-opacity="1" fill-rule="nonzero"/></svg>