<svg xmlns="http://www.w3.org/2000/svg" xmlns:xlink="http://www.w3.org/1999/xlink" width="170" zoomAndPan="magnify" viewBox="0 0 127.5 127.499994" height="170" preserveAspectRatio="xMidYMid meet" version="1.0"><defs><clipPath id="2a5acc753e"><path d="M 26.003906 67 L 97.722656 67 L 97.722656 101.484375 L 26.003906 101.484375 Z M 26.003906 67 " clip-rule="nonzero"/></clipPath><clipPath id="53db5dc035"><path d="M 42 21.546875 L 81 21.546875 L 81 60 L 42 60 Z M 42 21.546875 " clip-rule="nonzero"/></clipPath></defs><path fill="#ffffff" d="M 0 0 L 127 0 L 127 127 L 0 127 Z M 0 0 " fill-opacity="1" fill-rule="nonzero"/><path fill="#ffffff" d="M 0 0 L 127 0 L 127 127 L 0 127 Z M 0 0 " fill-opacity="1" fill-rule="nonzero"/><g clip-path="url(#2a5acc753e)"><path fill="#0e375c" d="M 72.988281 67.390625 L 50.527344 67.390625 C 49.722656 67.394531 48.921875 67.433594 48.125 67.511719 C 47.324219 67.59375 46.53125 67.710938 45.746094 67.867188 C 44.957031 68.023438 44.179688 68.21875 43.410156 68.453125 C 42.644531 68.6875 41.886719 68.957031 41.148438 69.265625 C 40.40625 69.574219 39.679688 69.917969 38.972656 70.296875 C 38.265625 70.675781 37.578125 71.085938 36.910156 71.53125 C 36.242188 71.980469 35.597656 72.457031 34.976562 72.964844 C 34.355469 73.476562 33.761719 74.015625 33.195312 74.582031 C 32.625 75.148438 32.085938 75.746094 31.578125 76.363281 C 31.070312 76.984375 30.589844 77.628906 30.144531 78.296875 C 29.699219 78.964844 29.285156 79.652344 28.90625 80.359375 C 28.527344 81.070312 28.183594 81.792969 27.878906 82.535156 C 27.570312 83.277344 27.300781 84.03125 27.066406 84.800781 C 26.832031 85.566406 26.636719 86.347656 26.480469 87.132812 C 26.324219 87.921875 26.203125 88.714844 26.125 89.511719 C 26.046875 90.3125 26.003906 91.113281 26.003906 91.914062 L 26.003906 99.40625 C 26.003906 99.6875 26.058594 99.953125 26.164062 100.210938 C 26.269531 100.46875 26.421875 100.695312 26.621094 100.894531 C 26.816406 101.089844 27.042969 101.242188 27.300781 101.351562 C 27.558594 101.457031 27.828125 101.511719 28.105469 101.511719 L 95.410156 101.511719 C 95.6875 101.511719 95.957031 101.457031 96.214844 101.351562 C 96.472656 101.242188 96.699219 101.089844 96.898438 100.894531 C 97.09375 100.695312 97.246094 100.46875 97.351562 100.210938 C 97.460938 99.953125 97.511719 99.6875 97.511719 99.40625 L 97.511719 91.914062 C 97.511719 91.113281 97.472656 90.3125 97.390625 89.511719 C 97.3125 88.714844 97.195312 87.921875 97.039062 87.132812 C 96.878906 86.347656 96.683594 85.566406 96.453125 84.800781 C 96.21875 84.03125 95.945312 83.277344 95.640625 82.535156 C 95.332031 81.792969 94.988281 81.070312 94.609375 80.359375 C 94.230469 79.652344 93.820312 78.964844 93.371094 78.296875 C 92.925781 77.628906 92.449219 76.984375 91.9375 76.363281 C 91.429688 75.746094 90.890625 75.148438 90.324219 74.582031 C 89.753906 74.015625 89.160156 73.476562 88.539062 72.964844 C 87.917969 72.457031 87.277344 71.980469 86.609375 71.53125 C 85.941406 71.085938 85.253906 70.675781 84.542969 70.296875 C 83.835938 69.917969 83.113281 69.574219 82.371094 69.265625 C 81.628906 68.957031 80.875 68.6875 80.105469 68.453125 C 79.335938 68.21875 78.558594 68.023438 77.773438 67.867188 C 76.984375 67.710938 76.191406 67.59375 75.390625 67.511719 C 74.59375 67.433594 73.792969 67.394531 72.988281 67.390625 Z M 72.988281 67.390625 " fill-opacity="1" fill-rule="nonzero"/></g><g clip-path="url(#53db5dc035)"><path fill="#0e375c" d="M 80.6875 40.519531 C 80.6875 41.136719 80.65625 41.757812 80.597656 42.375 C 80.535156 42.988281 80.445312 43.601562 80.324219 44.210938 C 80.203125 44.820312 80.050781 45.417969 79.871094 46.011719 C 79.691406 46.605469 79.484375 47.1875 79.246094 47.761719 C 79.007812 48.335938 78.746094 48.894531 78.453125 49.441406 C 78.160156 49.988281 77.839844 50.519531 77.496094 51.035156 C 77.152344 51.550781 76.785156 52.046875 76.390625 52.527344 C 75.996094 53.003906 75.582031 53.464844 75.144531 53.902344 C 74.703125 54.339844 74.246094 54.757812 73.765625 55.148438 C 73.289062 55.542969 72.789062 55.910156 72.273438 56.257812 C 71.757812 56.601562 71.226562 56.917969 70.679688 57.210938 C 70.132812 57.503906 69.574219 57.769531 69.003906 58.003906 C 68.429688 58.242188 67.847656 58.453125 67.253906 58.632812 C 66.660156 58.8125 66.058594 58.960938 65.453125 59.082031 C 64.84375 59.203125 64.230469 59.292969 63.613281 59.355469 C 62.996094 59.417969 62.378906 59.445312 61.757812 59.445312 C 61.136719 59.445312 60.519531 59.417969 59.902344 59.355469 C 59.285156 59.292969 58.671875 59.203125 58.066406 59.082031 C 57.457031 58.960938 56.855469 58.8125 56.265625 58.632812 C 55.671875 58.453125 55.085938 58.242188 54.515625 58.003906 C 53.941406 57.769531 53.382812 57.503906 52.835938 57.210938 C 52.289062 56.917969 51.757812 56.601562 51.242188 56.257812 C 50.726562 55.910156 50.230469 55.542969 49.75 55.148438 C 49.269531 54.757812 48.8125 54.339844 48.375 53.902344 C 47.933594 53.464844 47.519531 53.003906 47.125 52.527344 C 46.734375 52.046875 46.363281 51.550781 46.019531 51.035156 C 45.675781 50.519531 45.355469 49.988281 45.066406 49.441406 C 44.773438 48.894531 44.507812 48.335938 44.269531 47.761719 C 44.035156 47.1875 43.824219 46.605469 43.644531 46.011719 C 43.464844 45.417969 43.3125 44.820312 43.195312 44.210938 C 43.074219 43.601562 42.980469 42.988281 42.921875 42.375 C 42.859375 41.757812 42.828125 41.136719 42.828125 40.519531 C 42.828125 39.898438 42.859375 39.28125 42.921875 38.664062 C 42.980469 38.046875 43.074219 37.433594 43.195312 36.824219 C 43.3125 36.21875 43.464844 35.617188 43.644531 35.023438 C 43.824219 34.429688 44.035156 33.847656 44.269531 33.273438 C 44.507812 32.703125 44.773438 32.140625 45.066406 31.59375 C 45.355469 31.046875 45.675781 30.515625 46.019531 30 C 46.363281 29.484375 46.734375 28.988281 47.125 28.507812 C 47.519531 28.03125 47.933594 27.570312 48.375 27.132812 C 48.8125 26.695312 49.269531 26.277344 49.75 25.886719 C 50.230469 25.492188 50.726562 25.125 51.242188 24.777344 C 51.757812 24.433594 52.289062 24.117188 52.835938 23.824219 C 53.382812 23.53125 53.941406 23.265625 54.515625 23.03125 C 55.085938 22.792969 55.671875 22.585938 56.265625 22.402344 C 56.855469 22.222656 57.457031 22.074219 58.066406 21.953125 C 58.671875 21.832031 59.285156 21.742188 59.902344 21.679688 C 60.519531 21.621094 61.136719 21.589844 61.757812 21.589844 C 62.378906 21.589844 62.996094 21.621094 63.613281 21.679688 C 64.230469 21.742188 64.84375 21.832031 65.453125 21.953125 C 66.058594 22.074219 66.660156 22.222656 67.253906 22.402344 C 67.847656 22.585938 68.429688 22.792969 69.003906 23.03125 C 69.574219 23.265625 70.132812 23.53125 70.679688 23.824219 C 71.226562 24.117188 71.757812 24.433594 72.273438 24.777344 C 72.789062 25.125 73.289062 25.492188 73.765625 25.886719 C 74.246094 26.277344 74.703125 26.695312 75.144531 27.132812 C 75.582031 27.570312 75.996094 28.03125 76.390625 28.507812 C 76.785156 28.988281 77.152344 29.484375 77.496094 30 C 77.839844 30.515625 78.160156 31.046875 78.453125 31.59375 C 78.746094 32.140625 79.007812 32.703125 79.246094 33.273438 C 79.484375 33.847656 79.691406 34.429688 79.871094 35.023438 C 80.050781 35.617188 80.203125 36.21875 80.324219 36.824219 C 80.445312 37.433594 80.535156 38.046875 80.597656 38.664062 C 80.65625 39.28125 80.6875 39.898438 80.6875 40.519531 Z M 80.6875 40.519531 " fill-opacity="1" fill-rule="nonzero"/></g></svg>